<?xml version="1.0" encoding="utf-8"?>
<!-- Generator: Adobe Illustrator 18.1.0, SVG Export Plug-In . SVG Version: 6.00 Build 0)  -->
<!DOCTYPE svg PUBLIC "-//W3C//DTD SVG 1.1//EN" "http://www.w3.org/Graphics/SVG/1.1/DTD/svg11.dtd">
<svg version="1.1" id="Layer_1" xmlns="http://www.w3.org/2000/svg" xmlns:xlink="http://www.w3.org/1999/xlink" x="0px" y="0px"
	 viewBox="0 0 100 100" enable-background="new 0 0 100 100" xml:space="preserve">
<g id="Layer_3">
	<path fill="none" stroke="#000000" stroke-width="2" stroke-linecap="round" stroke-linejoin="round" stroke-miterlimit="10" d="
		M69.3,83.9c0,0.2-0.1,0.3-0.1,0.4c-1.1,8.4-9.2,14.9-19.1,14.9c-8.7,0-15.9-4.9-18.4-11.8c-0.4-0.6-0.6-1.4-0.8-2.1
		c-1-3.9-0.6-8,0.2-12c0.8-3.5,1.9-6.8,3.2-10.1c0.4-9.5,7.4-17.1,16-17.1c8.2,0,15.2,8.2,16.3,17.1c1.1,3.2,1.2,5.4,1.9,8.7
		c0.4,1.9,0.9,3.9,1.1,5.8C69.9,79.8,69.8,81.9,69.3,83.9z"/>
	<path d="M62.2,51.8c-0.9-0.9-1.9-1.5-3-2.1c-1.3-0.7-2.7-1.5-4-2.3c-0.7-0.4-1.5-0.8-2.3-1.1c-1.5-0.4-3.1-0.1-4.6,0.3
		c-1.9,0.5-3.9,1.2-5.7,1.9c-1.1,0.5-2.1,1-3,1.8c-0.6,0.6-1.1,1.5-1.5,2.3c-0.7,1.4-1.5,2.8-2.1,4.1c-0.2,0.5-0.5,1.1-0.3,1.6
		c0.6-0.8,1.5-1.4,2.5-1.5c1.6-0.2,3.2,0.7,4.3,1.9c1.1,1.2,1.7,2.8,2.3,4.3c1.4,3.2,2.9,6.2,4.6,9.2c0.2,0.3,0.4,0.7,0.8,0.7
		c0.3,0,0.6-0.2,0.8-0.5c0.6-0.7,1.1-1.7,1.5-2.6c1.5-3.2,3.4-6.1,5.5-9c0.7-1.1,1.5-2,2.6-2.7c1.5-0.9,3.6-1,5.1-0.2
		c-0.2-1.5-1.1-2.8-1.8-4C63.5,53.3,62.9,52.5,62.2,51.8z"/>
	<circle fill="none" stroke="#000000" stroke-width="2" stroke-miterlimit="10" cx="38.1" cy="63.7" r="1.4"/>
	<circle fill="none" stroke="#000000" stroke-width="2" stroke-miterlimit="10" cx="63.1" cy="63.7" r="1.4"/>
	<path fill="none" stroke="#000000" stroke-width="2" stroke-linecap="round" stroke-linejoin="round" stroke-miterlimit="10" d="
		M79.5,70.8c-0.1,0.2-0.1,0.6-0.2,0.8C77.8,87.1,65.3,99.2,50,99.2c-13.3,0-24.4-9.1-28.2-21.8c-0.6-1.1-1-2.5-1.2-3.8
		c-1.5-7.3-1.1-14.9,0.3-22.2c1.2-6.4,3-12.6,4.9-18.7C26.7,14.9,37.4,0.8,50.6,0.8c12.5,0,22.4,16.4,24,32.9
		c1.8,5.8,2.8,8.7,3.7,14.9c0.6,3.6,1.4,7.2,1.7,10.8C80.4,63.3,80.2,67.1,79.5,70.8z"/>
	<path d="M64,6.6C62,5.4,60,4.2,58,3c-1.1-0.7-2.3-1.4-3.6-1.8c-2.3-0.6-4.7-0.1-7,0.6c-3,0.9-5.9,1.9-8.7,3.2
		c-1.6,0.7-3.2,1.6-4.5,2.9c-1,1.1-1.7,2.3-2.3,3.6c-1.1,2.2-2.2,4.4-3.2,6.8c-0.4,0.8-0.7,1.8-0.5,2.7c0.9-1.4,2.3-2.3,3.9-2.4
		c2.5-0.3,4.9,1.2,6.6,3.2c1.6,2,2.6,4.5,3.6,7c2.1,5.2,4.4,10.3,7,15.2c0.2,0.6,0.6,1.1,1.2,1.2c0.5,0,0.9-0.4,1.2-0.8
		c1-1.3,1.6-2.8,2.3-4.2c2.3-5.2,5.2-10.1,8.3-14.7c1.1-1.7,2.3-3.3,4-4.4c2.3-1.5,2.5-2.8,4.9-1.5C70.8,17.2,65.7,7.7,64,6.6z"/>
	<circle fill="none" stroke="#000000" stroke-width="2" stroke-miterlimit="10" cx="31.7" cy="33.7" r="1.7"/>
	<circle fill="none" stroke="#000000" stroke-width="2" stroke-miterlimit="10" cx="68.9" cy="35.4" r="1.7"/>
	<path d="M29.2,91.7c-1.7-0.4-3.5-0.8-5.2-0.5c-1.7,0.3-3.3,1.8-3.3,3.5c0,0.6,0.2,1.1,0.6,1.5c0.3,0.3,0.6,0.4,1.1,0.6
		c1.9,0.6,4.1,0.6,6.1-0.1c2.1-0.7,4.4-2.3,6.5-1.4c-1.5-1.9-3.6-3.4-6.1-4"/>
	<path d="M69.2,92.5c1.7-0.4,3.5-0.8,5.2-0.5c1.7,0.3,3.3,1.8,3.3,3.5c0,0.6-0.2,1.1-0.6,1.5c-0.3,0.3-0.6,0.4-1.1,0.6
		c-1.9,0.6-4.1,0.6-6.1-0.1c-2.1-0.7-4.4-2.3-6.5-1.4c1.5-1.9,3.6-3.4,6.1-4"/>
	<path d="M23.8,39.7c0,0,5.1,32.9,14.3,41.6c0,0,5.5,7.9-2.5,5C27.6,83.4,21,75,21,75S16.9,60.6,23.8,39.7z"/>
	<path d="M75.6,38.9c0,0-5.1,32.9-14.3,41.6c0,0-5.5,7.9,2.5,5s14.6-11.4,14.6-11.4S82.6,59.8,75.6,38.9z"/>
</g>
</svg>
