<?xml version="1.0" encoding="utf-8"?>
<!-- Generator: Adobe Illustrator 18.1.0, SVG Export Plug-In . SVG Version: 6.00 Build 0)  -->
<!DOCTYPE svg PUBLIC "-//W3C//DTD SVG 1.1//EN" "http://www.w3.org/Graphics/SVG/1.1/DTD/svg11.dtd">
<svg version="1.1" xmlns="http://www.w3.org/2000/svg" xmlns:xlink="http://www.w3.org/1999/xlink" x="0px" y="0px"
	 viewBox="0 0 76.7 123.6" enable-background="new 0 0 76.7 123.6" xml:space="preserve">
<g id="Layer_1">
</g>
<g id="Layer_3">
	<path fill="none" stroke="#000000" stroke-width="2" stroke-linecap="round" stroke-linejoin="round" stroke-miterlimit="10" d="
		M62.2,103.7c0,0.2-0.1,0.4-0.1,0.5c-1.3,10.4-11.4,18.4-23.6,18.4c-10.7,0-19.7-6.1-22.7-14.6c-0.5-0.8-0.8-1.7-1-2.6
		c-1.2-4.8-0.8-9.9,0.3-14.8c1-4.3,2.4-8.4,4-12.5C19.6,66.4,28.3,57,38.9,57C49,57,57.7,67.1,59,78.1c1.4,3.9,1.5,6.7,2.3,10.8
		c0.5,2.4,1.1,4.8,1.3,7.2C62.9,98.6,62.8,101.2,62.2,103.7z"/>
	<path d="M53.4,64c-1.1-1.1-2.4-1.8-3.7-2.6c-1.6-0.9-3.3-1.8-4.9-2.8c-0.9-0.5-1.9-1-2.9-1.3c-1.9-0.5-3.8-0.1-5.7,0.4
		c-2.4,0.6-4.8,1.5-7,2.4c-1.3,0.6-2.6,1.2-3.7,2.2c-0.8,0.8-1.4,1.8-1.9,2.8c-0.9,1.7-1.8,3.4-2.6,5.1c-0.3,0.6-0.6,1.3-0.4,2
		c0.7-1,1.9-1.7,3.1-1.8c2-0.2,4,0.9,5.3,2.4c1.3,1.5,2.1,3.4,2.9,5.3c1.7,3.9,3.6,7.7,5.7,11.4c0.2,0.4,0.5,0.9,1,0.9
		c0.4,0,0.7-0.3,1-0.6c0.8-0.9,1.3-2.1,1.9-3.2c1.9-3.9,4.2-7.6,6.8-11.1c0.9-1.3,1.9-2.5,3.2-3.3c1.9-1.1,4.4-1.2,6.3-0.2
		c-0.3-1.8-1.3-3.4-2.2-5C55,65.9,54.3,64.9,53.4,64z"/>
	<circle fill="none" stroke="#000000" stroke-width="2" stroke-miterlimit="10" cx="23.7" cy="78.7" r="1.7"/>
	<circle fill="none" stroke="#000000" stroke-width="2" stroke-miterlimit="10" cx="54.5" cy="78.7" r="1.7"/>
	<path fill="none" stroke="#000000" stroke-width="2" stroke-linecap="round" stroke-linejoin="round" stroke-miterlimit="10" d="
		M74.8,87.5c-0.1,0.3-0.1,0.7-0.2,1c-1.9,19.2-17.4,34.1-36.2,34.1c-16.4,0-30.2-11.3-34.8-27c-0.7-1.4-1.2-3.1-1.5-4.7
		c-1.8-9-1.3-18.4,0.4-27.4C4,55.6,6.2,47.9,8.6,40.4C9.5,18.4,22.8,1,39.1,1c15.5,0,27.7,20.3,29.7,40.7c2.2,7.2,3.4,10.8,4.6,18.4
		c0.7,4.4,1.7,8.9,2.1,13.4C75.9,78.2,75.7,82.9,74.8,87.5z"/>
	<path d="M55.7,8.2c-2.5-1.5-5-3-7.5-4.5c-1.4-0.9-2.8-1.7-4.4-2.2C41,0.7,38,1.4,35.2,2.2c-3.7,1.1-7.3,2.4-10.8,4
		c-2,0.9-4,2-5.6,3.6c-1.2,1.3-2.1,2.9-2.9,4.5c-1.4,2.7-2.7,5.5-4,8.4c-0.5,1-0.9,2.2-0.6,3.3c1.1-1.7,2.9-2.8,4.8-3
		c3.1-0.4,6.1,1.5,8.1,4s3.2,5.6,4.4,8.7c2.6,6.4,5.5,12.7,8.7,18.8c0.3,0.7,0.8,1.4,1.5,1.5c0.6,0,1.1-0.5,1.5-1
		c1.2-1.6,2-3.4,2.8-5.2c2.9-6.4,6.4-12.5,10.3-18.2c1.4-2.1,2.9-4.1,5-5.4c2.9-1.9,3.1-3.5,6.1-1.8C64.1,21.2,57.7,9.5,55.7,8.2z"
		/>
	<circle fill="none" stroke="#000000" stroke-width="2" stroke-miterlimit="10" cx="15.7" cy="41.7" r="2.1"/>
	<circle fill="none" stroke="#000000" stroke-width="2" stroke-miterlimit="10" cx="61.7" cy="43.7" r="2.1"/>
	<path d="M12.6,113.3c-2.1-0.5-4.3-1-6.4-0.6c-2.1,0.4-4.1,2.2-4.1,4.3c0,0.7,0.2,1.4,0.7,1.8c0.4,0.4,0.8,0.5,1.3,0.7
		c2.4,0.8,5.1,0.7,7.5-0.1c2.6-0.9,5.4-2.8,8-1.7c-1.9-2.4-4.5-4.2-7.5-4.9"/>
	<path d="M62.1,114.3c2.1-0.5,4.3-1,6.4-0.6c2.1,0.4,4.1,2.2,4.1,4.3c0,0.7-0.2,1.4-0.7,1.8c-0.4,0.4-0.8,0.5-1.3,0.7
		c-2.4,0.8-5.1,0.7-7.5-0.1c-2.6-0.9-5.4-2.8-8-1.7c1.9-2.4,4.5-4.2,7.5-4.9"/>
	<path d="M6,49.1c0,0,6.3,40.7,17.7,51.4c0,0,6.8,9.8-3.1,6.2S2.5,92.7,2.5,92.7S-2.6,74.9,6,49.1z"/>
	<path d="M70,48.1c0,0-6.3,40.7-17.7,51.4c0,0-6.8,9.8,3.1,6.2s18.1-14.1,18.1-14.1S78.6,73.9,70,48.1z"/>
	<g>
	</g>
	<g>
	</g>
	<g>
	</g>
	<g>
	</g>
	<g>
	</g>
	<g>
	</g>
	<g>
	</g>
	<g>
	</g>
	<g>
	</g>
	<g>
	</g>
	<g>
	</g>
	<g>
	</g>
	<g>
	</g>
	<g>
	</g>
	<g>
	</g>
</g>
</svg>
