<?xml version="1.0" encoding="utf-8"?>
<!-- Generator: Adobe Illustrator 18.1.0, SVG Export Plug-In . SVG Version: 6.00 Build 0)  -->
<!DOCTYPE svg PUBLIC "-//W3C//DTD SVG 1.1//EN" "http://www.w3.org/Graphics/SVG/1.1/DTD/svg11.dtd">
<svg version="1.1" xmlns="http://www.w3.org/2000/svg" xmlns:xlink="http://www.w3.org/1999/xlink" x="0px" y="0px"
	 viewBox="0 0 246.4 97.9" enable-background="new 0 0 246.4 97.9" xml:space="preserve">
<g id="Layer_1">
</g>
<g id="Layer_3">
	<g>
		<defs>
			<path id="XMLID_4_" d="M105.8,49.1c0.8-3.2-1.7-6.3-4.5-8c-3.4-2.1-7.5-3-11.4-2.5c0.3-3.3,1.8-6.4,3.2-9.3c3.6-7,7.7-14,14-18.8
				s14.9-7.1,22.2-4.1c3.7,1.6,7.4,4,10.3,6.9c3.8,3.8,6.6,8.3,8.9,13.2c1.6,3.5,2.5,7.2,3.2,10.9c3.3,17.2,1.7,35.9-7.3,51
				c-2,3.4,1.9,3,3.5,6.5c-10.4,1.1-26.9,0.4-44.3,1.4c-3,0.2-6.3-0.4-8.8-2.1c3.5-1.9,7.7-2.6,11.6-2.1c-4.3-1.6-5.9,0.5-7.5-2.6
				c-6.2-12-7.7-23.8,4.5-36.3C104.5,52.1,105.4,50.7,105.8,49.1z"/>
		</defs>
		<clipPath id="XMLID_2_">
			<use xlink:href="#XMLID_4_"  overflow="visible"/>
		</clipPath>
		<g clip-path="url(#XMLID_2_)">
			<path d="M104.2,49.9c-1.8-3.9-2.8-8.2-2.7-12.5c0.2-4.3,1.6-8.6,4.2-11.9c2-2.5,4.7-4.4,7.4-5.8c6.5-3.4,14.4-4.7,20.9-1.4
				c6.7,3.4,10.7,11,12.1,18.8c0.5,2.5,0.6,5.3-1,7.3c-0.4,0.4-0.8,0.8-1,1.4c-0.4,1.3,0.8,2.5,2,3.2c2.1,1.2,4.7,2,6.8,0.9
				c2.5-1.4,3.1-4.8,3.3-7.8c0.4-6.1,0.1-12.4-2.4-17.9c-1.7-3.7-4.2-6.9-6.9-9.8c-2.2-2.4-4.6-4.8-7.4-6.4c-3.1-1.8-6.5-2.6-10-3.1
				c-8.3-1.3-17.2-1-24.3,3.7c-2.7,1.8-5,4.2-7.4,6.6c-2.2,2.3-4.5,4.6-5.8,7.6c-1.1,2.4-1.5,5-1.9,7.7c-0.5,3.2-0.9,6.5-0.1,9.6
				c0.7,2.7,2.4,5,4.2,7.1c1.2,1.4,2.5,2.8,4.1,3.7s3.6,1.2,5.2,0.3L104.2,49.9z"/>
		</g>
		
			<use xlink:href="#XMLID_4_"  overflow="visible" fill="none" stroke="#000000" stroke-width="3" stroke-linecap="round" stroke-linejoin="round" stroke-miterlimit="10"/>
	</g>
	<path fill="none" stroke="#000000" stroke-width="3" stroke-miterlimit="10" d="M135.6,38c0,7.8-6,14-13.3,14
		c-0.8,0-1.6-0.1-2.4-0.2c-6.2-1.2-10.9-6.9-10.9-13.8c0-7.8,6-14,13.3-14S135.6,30.3,135.6,38z"/>
	<path fill="none" stroke="#000000" stroke-miterlimit="10" d="M132.4,38.5c0,6-4.6,10.8-10.3,10.8c-0.6,0-1.2-0.1-1.8-0.2
		c-4.8-0.9-8.4-5.3-8.4-10.7c0-6,4.6-10.8,10.3-10.8C127.8,27.6,132.4,32.5,132.4,38.5z"/>
	<circle fill="none" stroke="#000000" stroke-width="2" stroke-miterlimit="10" cx="121.7" cy="39.1" r="2.2"/>
	<circle fill="none" stroke="#000000" stroke-width="2" stroke-miterlimit="10" cx="218.7" cy="34.1" r="2.2"/>
	<circle fill="none" stroke="#000000" stroke-width="2" stroke-miterlimit="10" cx="182.7" cy="34.1" r="2.2"/>
	<path fill="none" stroke="#000000" stroke-width="2" stroke-linecap="round" stroke-linejoin="round" stroke-miterlimit="10" d="
		M130.3,59.5c-4.2,0.6-8.3,1.1-12.5,1.7c-1.1,0.1-2.3,0.3-3.2,0.9c-1,0.6-1.7,1.6-1.6,2.7c0.1,0.9,0.7,1.6,1.4,2.1
		c0.7,0.5,1.6,0.7,2.4,0.9c3.2,0.9,6.4,1.8,9.7,2.8"/>
	<circle fill="none" stroke="#000000" stroke-width="2" stroke-miterlimit="10" cx="26.7" cy="38" r="2.1"/>
	<circle fill="none" stroke="#000000" stroke-width="2" stroke-miterlimit="10" cx="55.7" cy="22" r="2.1"/>
	<path fill="none" stroke="#000000" stroke-width="3" stroke-miterlimit="10" d="M75.9,67.9C75.9,83.4,61.2,96,43.1,96
		C25,96,10.5,83.4,10.5,67.9c0-4.9,4.3-13.6,4.3-13.6c2-5.4,0.8-19.3,0.1-24.8c0,0-0.1,0-0.1-0.1c-0.3-1.5-0.5-3-0.5-4.5
		c0-12.8,10-23.1,22.3-23.1c11,0,20.1,8.2,22,18.9l0,0c0,0,3.5,16.1,12.6,32.6c0.8,1.4,1.6,2.9,2.5,4.3
		C75.1,60.8,75.9,64.2,75.9,67.9z"/>
	<path fill="none" stroke="#000000" stroke-width="3" stroke-miterlimit="10" d="M199.9,95.9c18.8-0.9,35.2-15,35.4-30.5
		c0.1-12.9-8.8-28.2-8.3-33.7c0,0-0.6-6.6-0.6-8.2c-0.6-12.7-11.4-22.6-24.2-22c-21.1,1-21.8,20-21.8,20s-6.7,14.7-11.4,33.1
		C160.9,85.6,181.1,96.8,199.9,95.9z"/>
	<path fill="none" stroke="#000000" stroke-width="3" stroke-linecap="round" stroke-linejoin="round" stroke-miterlimit="10" d="
		M62.7,34.5c0,0,6.9-3.5,7.8-15.8c0,0,13.7,21.3-2.3,28.7L62.7,34.5z"/>
	<path fill="none" stroke="#000000" stroke-width="3" stroke-linecap="round" stroke-linejoin="round" stroke-miterlimit="10" d="
		M14.5,54.9c-0.4,0.2-8.8,5.6-13,3.6c0,0,2.2,10.6,9,9.4C10.5,67.9,10.6,63.1,14.5,54.9z"/>
	<path d="M22.8,91.2c-1.2-0.3-2.5-0.6-3.8-0.3c-1.2,0.3-2.4,1.3-2.5,2.6c0,0.4,0.1,0.8,0.4,1.1c0.2,0.2,0.5,0.3,0.8,0.4
		c1.4,0.4,3,0.4,4.4-0.1c1.6-0.5,3.2-1.6,4.7-1c-1.1-1.4-2.7-2.5-4.4-2.9"/>
	<path d="M178.8,92.2c-1.2-0.3-2.5-0.6-3.8-0.3c-1.2,0.3-2.4,1.3-2.5,2.6c0,0.4,0.1,0.8,0.4,1.1c0.2,0.2,0.5,0.3,0.8,0.4
		c1.4,0.4,3,0.4,4.4-0.1c1.6-0.5,3.2-1.6,4.7-1c-1.1-1.4-2.7-2.5-4.4-2.9"/>
	<path d="M61.5,91.1c1.1-0.3,2.2-0.5,3.3-0.3c1.1,0.2,2.1,1.1,2.1,2.2c0,0.3-0.1,0.7-0.3,0.9c-0.2,0.2-0.4,0.3-0.7,0.4
		c-1.2,0.4-2.6,0.4-3.8-0.1c-1.4-0.5-2.8-1.4-4.1-0.9c0.9-1.2,2.3-2.1,3.8-2.5"/>
	<path d="M219.5,90.1c1.1-0.3,2.2-0.5,3.3-0.3c1.1,0.2,2.1,1.1,2.1,2.2c0,0.3-0.1,0.7-0.3,0.9c-0.2,0.2-0.4,0.3-0.7,0.4
		c-1.2,0.4-2.6,0.4-3.8-0.1c-1.4-0.5-2.8-1.4-4.1-0.9c0.9-1.2,2.3-2.1,3.8-2.5"/>
	<path fill="none" stroke="#000000" stroke-width="2" stroke-linecap="round" stroke-linejoin="round" stroke-miterlimit="10" d="
		M18.5,72.9c0,0,0.9,14.4,22.2,17.9"/>
	<path stroke="#000000" stroke-width="0.75" stroke-linecap="round" stroke-linejoin="round" stroke-miterlimit="10" d="M14.8,29.4
		c0,0,14-18.3,32.7,3.8c0,0,2,0.8,0-3s-1.8-17.5,4.9-21.6c0,0-8.9-10.1-23.6-5.3S14.8,29.4,14.8,29.4z"/>
	
		<path fill="none" stroke="#000000" stroke-width="2" stroke-linecap="round" stroke-linejoin="round" stroke-miterlimit="10" stroke-dasharray="0.1,2.5" d="
		M116.5,51.5c0,0-0.8,6.9,0,9.9"/>
	
		<path fill="none" stroke="#000000" stroke-width="2" stroke-linecap="round" stroke-linejoin="round" stroke-miterlimit="10" stroke-dasharray="0.1,2.5" d="
		M117.7,68c0,0-1.4,21.3,27.1,21.8"/>
	<path fill="none" stroke="#000000" stroke-width="2" stroke-linecap="round" stroke-linejoin="round" stroke-miterlimit="10" d="
		M111.1,63.9c-2.5,1.2-6.1-0.9-8.4-5.9l9.2-4.5C114.3,58.5,113.6,62.6,111.1,63.9z"/>
	
		<line fill="none" stroke="#000000" stroke-width="2" stroke-linecap="round" stroke-linejoin="round" stroke-miterlimit="10" x1="111.1" y1="63.9" x2="114.1" y2="70.5"/>
	
		<line fill="none" stroke="#000000" stroke-width="2" stroke-linecap="round" stroke-linejoin="round" stroke-miterlimit="10" x1="111.1" y1="72" x2="117.1" y2="69.5"/>
	<path fill="none" stroke="#000000" stroke-width="2" stroke-linecap="round" stroke-linejoin="round" stroke-miterlimit="10" d="
		M172.6,44.1c0,0,6.8,17.3,10.3,17.7c0,0-13.7,3-14-4.3L172.6,44.1z"/>
	<path fill="none" stroke="#000000" stroke-width="2" stroke-linecap="round" stroke-linejoin="round" stroke-miterlimit="10" d="
		M228.4,36.4c0,0,6.3-8.4,5.3-12.9s1.5-1.2,1.5-1.2s7,22.5-2.2,26.4C233.1,48.7,228.4,40.4,228.4,36.4z"/>
	<path stroke="#000000" stroke-miterlimit="10" d="M180.3,21.5c0,0,16.8-7.4,19,21c0,0,0.7,3.2,1.9-1.5s7.7-29.3,25.1-17.4
		c0,0-1-17.6-20.9-22c0,0-21-3.8-25.6,21"/>
	<path fill="none" stroke="#000000" stroke-width="2" stroke-linecap="round" stroke-linejoin="round" stroke-miterlimit="10" d="
		M231.1,18.1c0,0,0.1-2.5,2-4.3"/>
	<path fill="none" stroke="#000000" stroke-width="2" stroke-linecap="round" stroke-linejoin="round" stroke-miterlimit="10" d="
		M228.3,17.1c0,0,0.1-3.9,3.1-6.7"/>
	<path fill="none" stroke="#000000" stroke-width="2" stroke-linecap="round" stroke-linejoin="round" stroke-miterlimit="10" d="
		M240.1,26.7c0,0,1.7-1.9,1.2-4.9"/>
	<path fill="none" stroke="#000000" stroke-width="2" stroke-linecap="round" stroke-linejoin="round" stroke-miterlimit="10" d="
		M243.4,28.5c0,0,2.6-2.9,1.8-7.5"/>
	<path fill="none" stroke="#000000" stroke-width="2" stroke-linecap="round" stroke-linejoin="round" stroke-miterlimit="10" d="
		M228.3,61.4c0,0,5,27.5-31,29.3"/>
</g>
</svg>
