<?xml version="1.0" encoding="utf-8"?>
<!-- Generator: Adobe Illustrator 18.1.0, SVG Export Plug-In . SVG Version: 6.00 Build 0)  -->
<!DOCTYPE svg PUBLIC "-//W3C//DTD SVG 1.1//EN" "http://www.w3.org/Graphics/SVG/1.1/DTD/svg11.dtd">
<svg version="1.1" xmlns="http://www.w3.org/2000/svg" xmlns:xlink="http://www.w3.org/1999/xlink" x="0px" y="0px"
	 viewBox="0 0 186 186.7" enable-background="new 0 0 186 186.7" xml:space="preserve">
<g id="Layer_1">
</g>
<g id="Layer_3">
	<path fill="none" stroke="#000000" stroke-width="2" stroke-linecap="round" stroke-linejoin="round" stroke-miterlimit="10" d="
		M143.2,63.4c-0.1,0.2-0.2,0.4-0.3,0.6c-4.8,11.6-19.1,17.7-33.3,13.7c-12.4-3.4-20.9-13.5-21.6-24.2c-0.3-1-0.4-2.2-0.3-3.3
		c0.2-6,2.3-11.8,5.1-17.1c2.5-4.6,5.5-9,8.6-13.2c4.5-13.5,17.6-21.6,29.9-18.2c11.7,3.3,18.5,17.8,16.5,31c0.4,5-0.4,8.2-0.8,13.3
		c-0.2,2.9-0.3,5.9-0.8,8.8C145.6,57.8,144.6,60.8,143.2,63.4z"/>
	<path d="M145.8,14.6c-0.9-1.6-2.2-2.9-3.5-4.2c-1.6-1.6-3.2-3.2-4.8-4.8c-0.9-0.9-1.8-1.8-2.9-2.5c-2-1.2-4.4-1.3-6.7-1.4
		c-3,0-6,0.2-9,0.5c-1.7,0.2-3.4,0.5-4.9,1.4c-1.2,0.7-2.1,1.6-3.1,2.6c-1.6,1.6-3.2,3.3-4.6,5.1c-0.5,0.6-1.1,1.4-1.1,2.2
		c1.2-0.9,2.8-1.3,4.2-1.1c2.4,0.4,4.3,2.3,5.3,4.5c1,2.2,1.3,4.7,1.6,7.1c0.7,5.1,1.7,10.1,2.9,15.1c0.1,0.5,0.3,1.2,0.9,1.4
		c0.5,0.2,0.9-0.1,1.3-0.4c1.2-0.8,2.2-2,3.2-3.1c3.5-3.9,7.3-7.5,11.4-10.7c1.5-1.2,3-2.3,4.8-2.8c2.6-0.7,5.5,0,7.4,1.8
		c0.3-2.2-0.3-4.4-0.9-6.5C147,17.4,146.6,15.9,145.8,14.6z"/>
	<circle fill="none" stroke="#000000" stroke-width="2" stroke-miterlimit="10" cx="106.7" cy="22" r="2.1"/>
	<circle fill="none" stroke="#000000" stroke-width="2" stroke-miterlimit="10" cx="142.3" cy="32" r="2.1"/>
	<path fill="none" stroke="#000000" stroke-width="2" stroke-miterlimit="10" d="M152.6,37c-1.7,5.9-7.6,9.5-13.2,7.9
		c-0.6-0.2-1.2-0.4-1.8-0.7c-4.5-2.2-6.9-7.6-5.4-12.9c1.7-5.9,7.6-9.5,13.2-7.9C151,24.9,154.2,31,152.6,37z"/>
	<path fill="none" stroke="#000000" stroke-width="0.75" stroke-miterlimit="10" d="M150.1,36.6c-1.3,4.6-5.8,7.3-10.2,6.1
		c-0.5-0.1-0.9-0.3-1.4-0.5c-3.5-1.7-5.3-5.9-4.2-10c1.3-4.6,5.8-7.3,10.2-6.1C148.9,27.4,151.3,32.1,150.1,36.6z"/>
	
		<path fill="none" stroke="#000000" stroke-linecap="round" stroke-linejoin="round" stroke-miterlimit="10" stroke-dasharray="0.1,1.25" d="
		M136.5,44.6c-1.7,4.6-0.2,9.5,1.2,14.1c0.9,2.7,1.9,5.6,4.2,7"/>
	<path d="M96.7,74.5c-0.3,1-0.7,2.1-0.5,3.2c0.1,1.1,0.9,2.2,2,2.3c0.3,0,0.7,0,0.9-0.3c0.2-0.2,0.3-0.4,0.4-0.6
		c0.5-1.2,0.6-2.6,0.2-3.8c-0.4-1.4-1.2-2.9-0.6-4.1c-1.3,0.9-2.3,2.2-2.8,3.6"/>
	<path d="M118.6,82.7c-0.5,1-1,2-1.9,2.7c-0.9,0.7-2.2,0.9-3.1,0.2c-0.3-0.2-0.5-0.5-0.5-0.9c0-0.3,0.1-0.5,0.2-0.7
		c0.5-1.2,1.4-2.2,2.5-2.9c1.2-0.7,2.9-1.2,3.3-2.5c0.3,1.5,0.1,3.1-0.6,4.5"/>
	<path fill="none" stroke="#000000" stroke-width="2" stroke-linecap="round" stroke-linejoin="round" stroke-miterlimit="10" d="
		M98.8,21.5c0.1-1.5-0.2-3-0.5-4.5c-0.3-1.6-0.7-3.1-1.3-4.6c-1.2-2.7-3.5-5-6.3-6.2c-0.3-0.1-0.6-0.2-0.8-0.2
		c-0.9,0.2-0.8,1.4-0.5,2.3c2.6,7.9,4.7,16.3,3.1,24.5c2-1.3,3.1-3.4,4.2-5.5C97.6,25.5,98.6,23.6,98.8,21.5z"/>
	<path fill="none" stroke="#000000" stroke-width="2" stroke-linecap="round" stroke-linejoin="round" stroke-miterlimit="10" d="
		M148.7,36c0.8-1.3,1.9-2.4,3-3.4c1.2-1.1,2.4-2.2,3.7-3c2.6-1.5,5.8-2.1,8.7-1.4c0.3,0.1,0.6,0.1,0.8,0.3c0.6,0.6-0.2,1.6-0.9,2.2
		c-6.7,5-13.2,10.6-16.7,18.2c-0.9-2.2-0.6-4.6-0.3-7C147.4,39.9,147.7,37.8,148.7,36z"/>
	<circle fill="none" stroke="#000000" stroke-width="5" stroke-miterlimit="10" cx="91.6" cy="128.5" r="55.7"/>
	<g>
		<g>
			<path d="M36.1,129.6c-9.2,3.1-17.8,7.4-25.7,13c-3.8,2.7-13.8,8.7-9.2,14.6c4.1,5.2,15.5,2.4,20.8,1.7
				c10.9-1.4,21.8-3.6,32.7-5.6c21.7-4,43.5-8.3,64.8-14c20.5-5.5,42.1-11.8,60.9-21.8c6.5-3.5,8.7-10.6,0.1-12.7
				c-11.5-2.9-24.3-1.6-35.5,1.6c-1.9,0.5-1.1,3.4,0.8,2.9c8.5-2.4,17.3-3.4,26.1-2.7c2.3,0.2,5.9,0,7.8,1.1c1.9,1,0.9-1.1,1.9,2.6
				c0.7,2.6,0.6,2.6-1.5,3.9c-3.5,2.2-7.6,3.6-11.4,5.2c-15.7,6.7-31.9,12-48.3,16.5c-31.8,8.7-64.8,15.3-97.4,19.8
				c-4.6,0.6-10.7,1.9-15.4,1.1c-2.4-0.4-1.8,0.2-2.4-3c-0.6-3.1-0.7-2.6,1.1-4.2c2-1.8,4.1-3.4,6.3-4.9c7.4-5.3,15.6-9.3,24.3-12.2
				C38.7,131.9,37.9,129,36.1,129.6L36.1,129.6z"/>
		</g>
	</g>
</g>
</svg>
