<?xml version="1.0" encoding="utf-8"?>
<!-- Generator: Adobe Illustrator 18.1.0, SVG Export Plug-In . SVG Version: 6.00 Build 0)  -->
<!DOCTYPE svg PUBLIC "-//W3C//DTD SVG 1.1//EN" "http://www.w3.org/Graphics/SVG/1.1/DTD/svg11.dtd">
<svg version="1.1" xmlns="http://www.w3.org/2000/svg" xmlns:xlink="http://www.w3.org/1999/xlink" x="0px" y="0px"
	 viewBox="0 0 96 97.4" enable-background="new 0 0 96 97.4" xml:space="preserve">
<g id="Layer_1">
</g>
<g id="Layer_3">
	<path fill="none" stroke="#000000" stroke-width="2" stroke-linecap="round" stroke-linejoin="round" stroke-miterlimit="10" d="
		M12.7,66.3c-0.3-0.8-0.3-1.6-0.2-2.4c0.3-7.1,1.4-15.5,3.1-22.4c-1.4,6.7-1,15.1,1.4,21.6c0.9,2.6,2.5,5.4,5.1,6.2
		c-1.7-0.2-3.5,0.1-5.3-0.1C15.2,68.8,13.3,68,12.7,66.3z"/>
	<path fill="none" stroke="#000000" stroke-width="2" stroke-linecap="round" stroke-linejoin="round" stroke-miterlimit="10" d="
		M69.7,65.7c0,0.2-0.1,0.4-0.2,0.6C68,78.8,55.8,88.5,41.1,88.5c-12.9,0-23.7-7.4-27.3-17.5c-0.6-0.9-0.9-2-1.2-3.1
		c-1.4-5.8-1-12,0.3-17.8c1.2-5.1,2.9-10.1,4.8-15c0.7-14.2,11.2-25.6,24-25.6c12.2,0,22.6,12.2,24.2,25.4c1.7,4.7,1.8,8,2.8,13
		c0.6,2.9,1.3,5.8,1.6,8.7C70.6,59.7,70.4,62.7,69.7,65.7z"/>
	<path d="M59.2,17.9c-1.3-1.3-2.9-2.2-4.5-3.1c-2-1.1-3.9-2.2-5.9-3.3c-1.1-0.6-2.2-1.3-3.5-1.6c-2.2-0.6-4.6-0.1-6.8,0.5
		c-2.9,0.8-5.7,1.8-8.5,2.9c-1.6,0.7-3.2,1.4-4.4,2.7c-1,1-1.6,2.1-2.3,3.3c-1.1,2-2.1,4.1-3.1,6.1c-0.4,0.8-0.7,1.6-0.5,2.4
		c0.9-1.2,2.3-2,3.8-2.2c2.4-0.3,4.8,1.1,6.4,2.9c1.6,1.8,2.5,4.1,3.5,6.4c2,4.7,4.3,9.3,6.8,13.8c0.3,0.5,0.6,1,1.2,1.1
		c0.5,0,0.9-0.3,1.2-0.7c0.9-1.1,1.6-2.5,2.2-3.8c2.3-4.7,5-9.2,8.1-13.4c1.1-1.5,2.3-3,3.9-4c2.3-1.4,5.3-1.5,7.6-0.2
		c-0.3-2.2-1.5-4.1-2.7-6C61,20.3,60.2,19,59.2,17.9z"/>
	<circle fill="none" stroke="#000000" stroke-width="2" stroke-miterlimit="10" cx="23.4" cy="35.6" r="2.1"/>
	<circle fill="none" stroke="#000000" stroke-width="2" stroke-miterlimit="10" cx="60.4" cy="35.6" r="2.1"/>
	<path fill="none" stroke="#000000" stroke-width="2" stroke-miterlimit="10" d="M71.7,37.7c0,6.2-4.7,11.2-10.6,11.2
		c-0.6,0-1.3-0.1-1.9-0.2c-4.9-0.9-8.7-5.5-8.7-11c0-6.2,4.7-11.2,10.6-11.2S71.7,31.5,71.7,37.7z"/>
	<path fill="none" stroke="#000000" stroke-width="0.75" stroke-miterlimit="10" d="M69.1,38.1c0,4.8-3.7,8.6-8.2,8.6
		c-0.5,0-1,0-1.5-0.1c-3.8-0.7-6.7-4.2-6.7-8.5c0-4.8,3.7-8.6,8.2-8.6S69.1,33.3,69.1,38.1z"/>
	
		<path fill="none" stroke="#000000" stroke-linecap="round" stroke-linejoin="round" stroke-miterlimit="10" stroke-dasharray="0.1,1.25" d="
		M58.2,49.4c-0.4,4.8,2.4,9.2,5,13.2c1.6,2.4,3.3,4.9,6,5.6"/>
	<path d="M23.1,83.7c-1.1-0.3-2.2-0.5-3.3-0.3c-1.1,0.2-2.1,1.1-2.1,2.2c0,0.3,0.1,0.7,0.3,0.9c0.2,0.2,0.4,0.3,0.7,0.4
		c1.2,0.4,2.6,0.4,3.8-0.1c1.4-0.5,2.8-1.4,4.1-0.9c-0.9-1.2-2.3-2.1-3.8-2.5"/>
	<path d="M58.3,83.7c1.1-0.3,2.2-0.5,3.3-0.3s2.1,1.1,2.1,2.2c0,0.3-0.1,0.7-0.3,0.9c-0.2,0.2-0.4,0.3-0.7,0.4
		c-1.2,0.4-2.6,0.4-3.8-0.1c-1.4-0.5-2.8-1.4-4.1-0.9c0.9-1.2,2.3-2.1,3.8-2.5"/>
	<path fill="none" stroke="#000000" stroke-width="2" stroke-linecap="round" stroke-linejoin="round" stroke-miterlimit="10" d="
		M67.7,37.8c0.4-1.5,1.2-2.8,1.9-4c0.8-1.4,1.7-2.7,2.8-3.9c2.1-2.2,5-3.5,8-3.7c0.3,0,0.6,0,0.8,0.1c0.8,0.5,0.3,1.6-0.3,2.3
		c-5.1,6.6-9.9,13.8-11.2,22c-1.4-1.9-1.8-4.3-2.1-6.6C67.4,41.9,67.1,39.8,67.7,37.8z"/>
	<rect x="0" y="74" width="81.7" height="23.3"/>
	<path fill="none" stroke="#000000" stroke-width="2" stroke-linecap="round" stroke-linejoin="round" stroke-miterlimit="10" d="
		M85.7,35.1l-8.5-10.5l-5.6-6.9c0,0,6.5-1,10.1-9.3S88,1,88,1l7,8.7c0,0-5.3,1.7-6.7,6.8c-1.3,5.2-7.9,9.6-7.9,9.6"/>
</g>
</svg>
