<?xml version="1.0" encoding="utf-8"?>
<!-- Generator: Adobe Illustrator 18.1.0, SVG Export Plug-In . SVG Version: 6.00 Build 0)  -->
<!DOCTYPE svg PUBLIC "-//W3C//DTD SVG 1.1//EN" "http://www.w3.org/Graphics/SVG/1.1/DTD/svg11.dtd">
<svg version="1.1" xmlns="http://www.w3.org/2000/svg" xmlns:xlink="http://www.w3.org/1999/xlink" x="0px" y="0px"
	 viewBox="0 0 83.6 92" enable-background="new 0 0 83.6 92" xml:space="preserve">
<g id="Layer_1">
</g>
<g id="Layer_3">
	<path fill="none" stroke="#000000" stroke-width="3" stroke-miterlimit="10" d="M41.6,37.7c0,7.8-6,14-13.3,14
		c-0.8,0-1.6-0.1-2.4-0.2c-6.2-1.2-10.9-6.9-10.9-13.8c0-7.8,6-14,13.3-14S41.6,30,41.6,37.7z"/>
	<path fill="none" stroke="#000000" stroke-miterlimit="10" d="M38.4,38.2c0,6-4.6,10.8-10.3,10.8c-0.6,0-1.2-0.1-1.8-0.2
		c-4.8-0.9-8.4-5.3-8.4-10.7c0-6,4.6-10.8,10.3-10.8S38.4,32.2,38.4,38.2z"/>
	<circle fill="none" stroke="#000000" stroke-width="2" stroke-miterlimit="10" cx="27.7" cy="37.7" r="2.1"/>
	<circle fill="none" stroke="#000000" stroke-width="2" stroke-miterlimit="10" cx="56.7" cy="21.7" r="2.1"/>
	<path fill="none" stroke="#000000" stroke-width="3" stroke-miterlimit="10" d="M76.9,63.9c0,14.7-14.7,26.5-32.8,26.5
		c-18.1,0-32.6-11.9-32.6-26.5c0-4.7,4.3-12.9,4.3-12.9c2-5.1,0.8-18.3,0.1-23.5c0,0-0.1,0-0.1-0.1c-0.3-1.4-0.5-2.8-0.5-4.2
		c0-12,10-21.8,22.3-21.8c11,0,20.1,7.7,22,17.9l0,0c0,0,3.5,15.2,12.6,30.8c0.8,1.4,1.6,2.7,2.5,4.1C76.1,57.2,76.9,60.5,76.9,63.9
		z"/>
	<path fill="none" stroke="#000000" stroke-width="3" stroke-linecap="round" stroke-linejoin="round" stroke-miterlimit="10" d="
		M14.5,52.6c-0.4,0.2-8.8,5.6-13,3.6c0,0,2.2,10.6,9,9.4C10.5,65.6,10.6,60.8,14.5,52.6z"/>
	<path d="M23.8,84.9c-1.2-0.3-2.5-0.6-3.8-0.3c-1.2,0.3-2.4,1.3-2.5,2.6c0,0.4,0.1,0.8,0.4,1.1c0.2,0.2,0.5,0.3,0.8,0.4
		c1.4,0.4,3,0.4,4.4-0.1c1.6-0.5,3.2-1.6,4.7-1c-1.1-1.4-2.7-2.5-4.4-2.9"/>
	<path d="M67.5,83.8c1.1-0.3,2.2-0.5,3.3-0.3c1.1,0.2,2.1,1.1,2.1,2.2c0,0.3-0.1,0.7-0.3,0.9c-0.2,0.2-0.4,0.3-0.7,0.4
		c-1.2,0.4-2.6,0.4-3.8-0.1c-1.4-0.5-2.8-1.4-4.1-0.9c0.9-1.2,2.3-2.1,3.8-2.5"/>
	<path stroke="#000000" stroke-width="0.75" stroke-linecap="round" stroke-linejoin="round" stroke-miterlimit="10" d="M15.8,29.1
		c0,0,14-18.3,32.7,3.8c0,0,2,0.8,0-3s-1.8-17.5,4.9-21.6c0,0-8.9-10.1-23.6-5.3S15.8,29.1,15.8,29.1z"/>
	<path fill="none" stroke="#000000" stroke-width="2" stroke-linecap="round" stroke-linejoin="round" stroke-miterlimit="10" d="
		M69.2,56.1c0,0,7.6,21.5-19.4,29.3"/>
	<g>
		
			<circle fill="none" stroke="#000000" stroke-width="3" stroke-linecap="round" stroke-linejoin="round" stroke-miterlimit="10" cx="51" cy="50.9" r="3.6"/>
		
			<polygon fill="none" stroke="#000000" stroke-width="3" stroke-linecap="round" stroke-linejoin="round" stroke-miterlimit="10" points="
			53.9,48.2 60.9,42.2 64,54.5 55,51.8 		"/>
		
			<polygon fill="none" stroke="#000000" stroke-width="3" stroke-linecap="round" stroke-linejoin="round" stroke-miterlimit="10" points="
			46.5,50.1 37.5,48.2 40.6,60.4 47.3,53.8 		"/>
	</g>
	<path fill="none" stroke="#000000" stroke-width="3" stroke-linecap="round" stroke-linejoin="round" stroke-miterlimit="10" d="
		M63.6,29.7c0,0,13.4,12.6,17.1,9.1s-0.8,11.7-7.9,10.1L63.6,29.7z"/>
	
		<path fill="none" stroke="#000000" stroke-width="2" stroke-linecap="round" stroke-linejoin="round" stroke-miterlimit="10" stroke-dasharray="0.1,2.5" d="
		M30,51.8c0,0,6.4,37-11.1,29.8"/>
</g>
</svg>
