<?xml version="1.0" encoding="utf-8"?>
<!-- Generator: Adobe Illustrator 18.1.0, SVG Export Plug-In . SVG Version: 6.00 Build 0)  -->
<!DOCTYPE svg PUBLIC "-//W3C//DTD SVG 1.1//EN" "http://www.w3.org/Graphics/SVG/1.1/DTD/svg11.dtd">
<svg version="1.1" id="Layer_1" xmlns="http://www.w3.org/2000/svg" xmlns:xlink="http://www.w3.org/1999/xlink" x="0px" y="0px"
	 viewBox="50 150 100 100" enable-background="new 50 150 100 100" xml:space="preserve">
<g id="Layer_1_1_">
</g>
<g id="Layer_3">
	<path fill="none" stroke="#000000" stroke-width="2" stroke-linecap="round" stroke-linejoin="round" stroke-miterlimit="10" d="
		M138.4,220.6c0,0.2-0.1,0.5-0.2,0.7c-1.7,15.4-16.8,27.4-35.1,27.4c-15.9,0-29.3-9.1-33.7-21.6c-0.7-1.1-1.1-2.5-1.5-3.8
		c-1.7-7.2-1.2-14.8,0.4-22c1.5-6.3,3.6-12.5,5.9-18.5c1-17.7,13.8-31.6,29.6-31.6c15.1,0,27.9,15.1,29.9,31.4
		c2.1,5.8,2.2,9.9,3.5,16c0.7,3.6,1.6,7.2,2,10.7C139.5,213.1,139.3,216.9,138.4,220.6z"/>
	<path fill="none" stroke="#000000" stroke-width="2" stroke-linecap="round" stroke-linejoin="round" stroke-miterlimit="10" d="
		M138.8,220.1c0.4-1,0.4-2,0.2-3c-0.4-8.8-1.2-19.4-3.5-27.9c1.7,8.3,0.7,18.9-2.1,26.8c-1.1,3.2-3.1,6.7-6.3,7.7
		c2.1-0.2,4.3,0.1,6.5-0.1C135.8,223.2,138,222.1,138.8,220.1z"/>
	<path d="M125.4,161.6c-1.6-1.6-3.6-2.7-5.6-3.8c-2.5-1.4-4.8-2.7-7.3-4.1c-1.4-0.7-2.7-1.6-4.3-2c-2.7-0.7-5.7-0.1-8.4,0.6
		c-3.6,1-7,2.2-10.5,3.6c-2,0.9-4,1.7-5.4,3.3c-1.2,1.2-2,2.6-2.8,4.1c-1.4,2.5-2.6,5.1-3.8,7.5c-0.5,1-0.9,2-0.6,3
		c1.1-1.5,2.8-2.5,4.7-2.7c3-0.4,5.9,1.4,7.9,3.6c2,2.2,3.1,5.1,4.3,7.9c2.5,5.8,5.3,11.5,8.4,17c0.4,0.6,0.7,1.2,1.5,1.4
		c0.6,0,1.1-0.4,1.5-0.9c1.1-1.4,2-3.1,2.7-4.7c2.8-5.8,6.2-11.4,10-16.5c1.4-1.9,2.8-3.7,4.8-4.9c2.8-1.7,6.5-1.9,9.4-0.2
		c-0.4-2.7-1.9-5.1-3.3-7.4C127.8,164.6,126.8,163,125.4,161.6z"/>
	<circle fill="none" stroke="#000000" stroke-width="2" stroke-miterlimit="10" cx="81.4" cy="183.5" r="2.6"/>
	<circle fill="none" stroke="#000000" stroke-width="2" stroke-miterlimit="10" cx="127" cy="183.5" r="2.6"/>
	<path fill="none" stroke="#000000" stroke-width="2" stroke-miterlimit="10" d="M140.9,186c0,7.7-5.8,13.8-13.1,13.8
		c-0.7,0-1.6-0.1-2.3-0.2c-6-1.1-10.7-6.8-10.7-13.6c0.1-7.7,5.9-13.8,13.2-13.8C135.2,172.2,140.9,178.4,140.9,186z"/>
	<path fill="none" stroke="#000000" stroke-width="0.75" stroke-miterlimit="10" d="M137.8,186.4c0,5.9-4.6,10.6-10.1,10.6
		c-0.6,0-1.2,0-1.9-0.1c-4.7-0.9-8.3-5.2-8.3-10.5c0-5.9,4.6-10.6,10.1-10.6C133.2,175.8,137.8,180.6,137.8,186.4z"/>
	
		<path fill="none" stroke="#000000" stroke-linecap="round" stroke-linejoin="round" stroke-miterlimit="10" stroke-dasharray="0.1,1.25" d="
		M124.3,200.4c-0.2,4.6,1.7,8.9,3.5,12.6c1.1,2.2,2.3,4.7,4.2,5.3"/>
	<path d="M81,242.8c-1.4-0.4-2.7-0.6-4.1-0.4c-1.4,0.2-2.6,1.4-2.6,2.7c0,0.4,0.1,0.9,0.4,1.1c0.2,0.2,0.5,0.4,0.9,0.5
		c1.5,0.5,3.2,0.5,4.7-0.1c1.7-0.6,3.5-1.7,5.1-1.1c-1.1-1.5-2.8-2.6-4.7-3.1"/>
	<path d="M124.4,242.8c1.4-0.4,2.7-0.6,4.1-0.4c1.4,0.2,2.6,1.4,2.6,2.7c0,0.4-0.1,0.9-0.4,1.1c-0.2,0.2-0.5,0.4-0.9,0.5
		c-1.5,0.5-3.2,0.5-4.7-0.1c-1.7-0.6-3.5-1.7-5.1-1.1c1.1-1.5,2.8-2.6,4.7-3.1"/>
	<path fill="#FFFFFF" stroke="#000000" stroke-width="2" stroke-miterlimit="10" d="M69.4,186.7l1.4,6.2l1.6-0.4
		c3.1-0.7,6,1.4,6.8,4.6l0.7,3c0.7,3.1-1.1,5.9-4.2,6.7l-2.6,0.6c-2.7,0.6-5.7-0.6-6.8-3.1c0-0.1-0.1-0.1-0.1-0.2
		c-0.1-0.2-0.4-0.4-0.5-0.6l-5.4-24.2c-0.7-3.1,1.6-6.5,4.8-7.3l2.6-0.6c3.1-0.7,6,1.5,6.8,4.7l0.7,3c0.7,3.1-1,6.7-4.1,7.4
		L69.4,186.7z"/>
	<path fill="none" stroke="#000000" stroke-width="2" stroke-linecap="round" stroke-linejoin="round" stroke-miterlimit="10" d="
		M62.7,191.6c0,0-10.5,18.8,4.1,29.6l1.4-14.8C68.1,206.4,61.7,195.9,62.7,191.6z"/>
</g>
</svg>
