<?xml version="1.0" encoding="utf-8"?>
<!-- Generator: Adobe Illustrator 18.1.0, SVG Export Plug-In . SVG Version: 6.00 Build 0)  -->
<!DOCTYPE svg PUBLIC "-//W3C//DTD SVG 1.1//EN" "http://www.w3.org/Graphics/SVG/1.1/DTD/svg11.dtd">
<svg version="1.1" xmlns="http://www.w3.org/2000/svg" xmlns:xlink="http://www.w3.org/1999/xlink" x="0px" y="0px"
	 viewBox="0 0 100 100" enable-background="new 0 0 100 100" xml:space="preserve">
<g id="Layer_1">
	<polyline fill="none" stroke="#000000" stroke-width="3" stroke-miterlimit="10" points="1.5,11 1.5,97.5 99,97.5 	"/>
	<rect x="8" y="47.1" width="24.1" height="45"/>
	<rect x="39.6" y="62.9" width="24.1" height="29.2"/>
	<rect x="71.3" y="15.2" width="24.1" height="76.9"/>
</g>
<g id="Layer_3">
	<g>
		<path d="M19.9,55.4c-3.2,0-5.9-1.8-6.8-4.4c-0.1-0.2-0.2-0.5-0.3-0.8c-0.3-1.3-0.3-2.8,0.1-4.4c0.2-1.1,0.6-2.2,1.2-3.6
			c0.2-3.6,2.8-6.4,6-6.4c2.9,0,5.7,2.8,6.1,6.3c0.3,0.8,0.4,1.4,0.5,2.2c0,0.3,0.1,0.6,0.2,1c0,0.2,0.1,0.4,0.1,0.6
			c0.1,0.5,0.2,1,0.3,1.5c0.1,0.8,0,1.5-0.1,2.3c0,0.1,0,0.1,0,0.2C26.6,53,23.6,55.4,19.9,55.4z M20,36.3c-3,0-5.4,2.6-5.6,6
			c0,0,0,0.1,0,0.1c-0.5,1.4-0.9,2.5-1.1,3.6c-0.4,1.6-0.4,3-0.1,4.2c0.1,0.3,0.2,0.5,0.3,0.7c0,0,0,0,0,0c0.9,2.4,3.4,4.1,6.4,4.1
			c3.4,0,6.3-2.2,6.6-5.2c0,0,0,0,0,0c0,0,0-0.1,0-0.1c0.2-0.7,0.2-1.4,0.1-2.1c0-0.5-0.2-1-0.3-1.5c0-0.2-0.1-0.4-0.1-0.6
			c-0.1-0.4-0.1-0.7-0.2-1C26,43.7,26,43,25.7,42.3c0,0,0,0,0-0.1C25.3,38.9,22.8,36.3,20,36.3z"/>
	</g>
	<g>
		<path d="M24.3,38.1c-0.3-0.3-0.7-0.5-1.1-0.8c-0.5-0.3-0.9-0.5-1.4-0.8c-0.3-0.2-0.5-0.3-0.8-0.4c-0.5-0.1-1.1,0-1.7,0.1
			c-0.7,0.2-1.4,0.4-2.1,0.7c-0.4,0.2-0.8,0.3-1.1,0.6c-0.2,0.2-0.4,0.5-0.6,0.8c-0.3,0.5-0.5,1-0.8,1.5c-0.1,0.2-0.2,0.4-0.1,0.6
			c0.2-0.3,0.6-0.5,0.9-0.5c0.6-0.1,1.2,0.3,1.5,0.7s0.6,1,0.8,1.5c0.5,1.1,1,2.3,1.6,3.3c0.1,0.1,0.2,0.3,0.3,0.3
			c0.1,0,0.2-0.1,0.3-0.2c0.2-0.3,0.4-0.6,0.5-0.9c0.6-1.1,1.2-2.2,2-3.2c0.3-0.4,0.6-0.7,0.9-1c0.6-0.3,1.3-0.4,1.8-0.1
			c-0.1-0.5-0.4-1-0.6-1.5C24.7,38.6,24.5,38.3,24.3,38.1z"/>
	</g>
	<g>
		<path d="M15.6,43.1c-0.4,0-0.7-0.3-0.7-0.7s0.3-0.7,0.7-0.7c0.4,0,0.7,0.3,0.7,0.7S16,43.1,15.6,43.1z M15.6,42.1
			c-0.1,0-0.3,0.1-0.3,0.3c0,0.1,0.1,0.3,0.3,0.3c0.1,0,0.3-0.1,0.3-0.3C15.9,42.2,15.8,42.1,15.6,42.1z"/>
	</g>
	<g>
		<path d="M24.6,43.1c-0.4,0-0.7-0.3-0.7-0.7s0.3-0.7,0.7-0.7s0.7,0.3,0.7,0.7S25,43.1,24.6,43.1z M24.6,42.1
			c-0.1,0-0.3,0.1-0.3,0.3c0,0.1,0.1,0.3,0.3,0.3s0.3-0.1,0.3-0.3C24.8,42.2,24.7,42.1,24.6,42.1z"/>
	</g>
	<g>
		<path d="M24.7,45.8c-0.2,0-0.3,0-0.5,0c-1.3-0.3-2.3-1.5-2.3-2.9c0-1.6,1.3-2.9,2.8-2.9s2.8,1.3,2.8,2.9
			C27.6,44.5,26.3,45.8,24.7,45.8z M24.7,40.4c-1.3,0-2.3,1.1-2.3,2.5c0,1.2,0.8,2.2,1.9,2.4c0.1,0,0.3,0,0.4,0
			c1.3,0,2.3-1.1,2.3-2.5C27.1,41.5,26,40.4,24.7,40.4z"/>
	</g>
	<g>
		<path d="M24.7,45.1c-0.1,0-0.3,0-0.4,0c-1-0.2-1.7-1.1-1.7-2.1c0-1.2,0.9-2.2,2.1-2.2s2.1,1,2.1,2.2
			C26.8,44.1,25.9,45.1,24.7,45.1z M24.7,40.9c-1,0-1.9,0.9-1.9,2c0,1,0.7,1.8,1.5,2c0.1,0,0.2,0,0.3,0c1,0,1.9-0.9,1.9-2
			C26.6,41.8,25.8,40.9,24.7,40.9z"/>
	</g>
	<g>
		<path d="M26.5,50.3C26.4,50.3,26.4,50.3,26.5,50.3c-0.1,0-0.1-0.1-0.1-0.2c0-0.1,0.1-0.1,0.2-0.1l0,0c0.1,0,0.1,0.1,0.1,0.2
			C26.5,50.3,26.5,50.3,26.5,50.3z M26.2,50.1C26.2,50.1,26.1,50.1,26.2,50.1L26.2,50.1C26,50,26,50,26.1,49.9c0-0.1,0.1-0.1,0.2,0
			l0,0C26.3,49.9,26.3,50,26.2,50.1C26.3,50.1,26.2,50.1,26.2,50.1z M25.9,49.9C25.9,49.9,25.9,49.9,25.9,49.9
			c-0.1-0.1-0.1-0.2-0.1-0.2c0,0,0.1-0.1,0.2,0l0,0C26.1,49.7,26.1,49.8,25.9,49.9C26,49.9,26,49.9,25.9,49.9z M25.7,49.7
			C25.7,49.7,25.6,49.6,25.7,49.7c-0.1-0.1-0.1-0.2-0.1-0.2c0.1,0,0.1,0,0.2,0l0,0C25.8,49.5,25.8,49.6,25.7,49.7
			C25.8,49.6,25.7,49.7,25.7,49.7z M25.5,49.4C25.5,49.4,25.4,49.4,25.5,49.4c-0.1-0.1-0.1-0.2-0.1-0.2c0.1,0,0.1,0,0.2,0
			c0,0,0,0,0,0C25.7,49.3,25.6,49.3,25.5,49.4C25.6,49.4,25.5,49.4,25.5,49.4z M25.3,49.1c0,0-0.1,0-0.1-0.1c0-0.1,0-0.1,0-0.2
			c0.1,0,0.1,0,0.2,0c0,0,0,0,0,0C25.5,49,25.4,49.1,25.3,49.1C25.4,49.1,25.3,49.1,25.3,49.1z M25.1,48.8c0,0-0.1,0-0.1-0.1
			c0-0.1,0-0.1,0-0.2c0.1,0,0.1,0,0.2,0l0,0C25.3,48.7,25.3,48.8,25.1,48.8C25.2,48.8,25.2,48.8,25.1,48.8z M25,48.6
			c0,0-0.1,0-0.1-0.1c0-0.1,0-0.1,0-0.2c0.1,0,0.1,0,0.2,0l0,0C25.1,48.4,25.1,48.5,25,48.6C25,48.6,25,48.6,25,48.6z M24.8,48.3
			c0,0-0.1,0-0.1-0.1c0,0,0,0,0,0c0-0.1,0-0.1,0-0.2c0.1,0,0.1,0,0.2,0l-0.1,0.1l0.1,0C24.9,48.2,24.9,48.2,24.8,48.3
			C24.8,48.3,24.8,48.3,24.8,48.3z M24.6,48c0,0-0.1,0-0.1-0.1l0,0c0-0.1,0-0.1,0-0.2c0.1,0,0.1,0,0.2,0l0,0
			C24.8,47.9,24.8,48,24.6,48C24.7,48,24.7,48,24.6,48z M24.5,47.7c0,0-0.1,0-0.1-0.1l0,0c0-0.1,0-0.1,0.1-0.2c0.1,0,0.1,0,0.2,0.1
			l0,0C24.6,47.6,24.6,47.7,24.5,47.7C24.5,47.7,24.5,47.7,24.5,47.7z M24.4,47.4c0,0-0.1,0-0.1-0.1c0-0.1,0-0.1,0.1-0.2
			c0.1,0,0.1,0,0.2,0.1c0,0,0,0,0,0C24.5,47.3,24.5,47.4,24.4,47.4C24.4,47.4,24.4,47.4,24.4,47.4z M24.2,47.1c-0.1,0-0.1,0-0.1-0.1
			c0-0.1,0-0.1,0.1-0.2c0.1,0,0.1,0,0.1,0.1c0,0,0,0,0,0C24.4,47,24.3,47.1,24.2,47.1C24.3,47.1,24.2,47.1,24.2,47.1z M24.1,46.8
			c-0.1,0-0.1,0-0.1-0.1c0-0.1,0-0.1,0.1-0.2c0.1,0,0.1,0,0.1,0.1l0,0C24.3,46.7,24.2,46.8,24.1,46.8C24.2,46.8,24.2,46.8,24.1,46.8
			z M24.1,46.5c-0.1,0-0.1,0-0.1-0.1c0,0,0,0,0,0c0-0.1,0-0.1,0.1-0.1c0.1,0,0.1,0,0.1,0.1l-0.1,0l0.1,0
			C24.2,46.4,24.2,46.5,24.1,46.5C24.1,46.5,24.1,46.5,24.1,46.5z M24,46.2c-0.1,0-0.1,0-0.1-0.1l0,0c0-0.1,0.1-0.1,0.1-0.1
			c0.1,0,0.1,0.1,0.1,0.1l0,0C24.2,46.1,24.1,46.2,24,46.2C24,46.2,24,46.2,24,46.2z M24,45.7l-0.1,0c0-0.1,0.1-0.1,0.1-0.1
			c0.1,0,0.1,0.1,0.1,0.1L24,45.7l0.1,0L24,45.7z"/>
	</g>
	<g>
		<path d="M52.1,71c-3.2,0-5.9-1.8-6.8-4.4c-0.1-0.2-0.2-0.5-0.3-0.8c-0.3-1.3-0.3-2.8,0.1-4.4c0.2-1.1,0.6-2.2,1.2-3.6
			c0.2-3.6,2.8-6.4,6-6.4c2.9,0,5.7,2.8,6.1,6.3c0.3,0.8,0.4,1.4,0.5,2.2c0,0.3,0.1,0.6,0.2,1c0,0.2,0.1,0.4,0.1,0.6
			c0.1,0.5,0.2,1,0.3,1.5c0.1,0.8,0,1.5-0.1,2.3c0,0.1,0,0.1,0,0.2C58.8,68.6,55.7,71,52.1,71z M52.2,51.8c-3,0-5.4,2.6-5.6,6
			c0,0,0,0.1,0,0.1c-0.5,1.4-0.9,2.5-1.1,3.6c-0.4,1.6-0.4,3-0.1,4.2c0.1,0.3,0.2,0.5,0.3,0.7c0,0,0,0,0,0c0.9,2.4,3.4,4.1,6.4,4.1
			c3.4,0,6.3-2.2,6.6-5.2c0,0,0,0,0,0c0,0,0-0.1,0-0.1c0.2-0.7,0.2-1.4,0.1-2.1c0-0.5-0.2-1-0.3-1.5c0-0.2-0.1-0.4-0.1-0.6
			c-0.1-0.4-0.1-0.7-0.2-1c-0.1-0.7-0.2-1.3-0.5-2.1c0,0,0,0,0-0.1C57.4,54.5,54.9,51.8,52.2,51.8z"/>
	</g>
	<g>
		<path d="M56.4,53.6c-0.3-0.3-0.7-0.5-1.1-0.8c-0.5-0.3-0.9-0.5-1.4-0.8c-0.3-0.2-0.5-0.3-0.8-0.4c-0.5-0.1-1.1,0-1.7,0.1
			c-0.7,0.2-1.4,0.4-2.1,0.7c-0.4,0.2-0.8,0.3-1.1,0.6c-0.2,0.2-0.4,0.5-0.6,0.8c-0.3,0.5-0.5,1-0.8,1.5c-0.1,0.2-0.2,0.4-0.1,0.6
			c0.2-0.3,0.6-0.5,0.9-0.5c0.6-0.1,1.2,0.3,1.5,0.7s0.6,1,0.8,1.5c0.5,1.1,1,2.3,1.6,3.3c0.1,0.1,0.2,0.3,0.3,0.3
			c0.1,0,0.2-0.1,0.3-0.2c0.2-0.3,0.4-0.6,0.5-0.9c0.6-1.1,1.2-2.2,2-3.2c0.3-0.4,0.6-0.7,0.9-1c0.6-0.3,1.3-0.4,1.8-0.1
			c-0.1-0.5-0.4-1-0.6-1.5C56.9,54.2,56.7,53.9,56.4,53.6z"/>
	</g>
	<g>
		<path d="M47.8,58.7c-0.4,0-0.7-0.3-0.7-0.7c0-0.4,0.3-0.7,0.7-0.7c0.4,0,0.7,0.3,0.7,0.7C48.5,58.3,48.2,58.7,47.8,58.7z
			 M47.8,57.7c-0.1,0-0.3,0.1-0.3,0.3c0,0.1,0.1,0.3,0.3,0.3c0.1,0,0.3-0.1,0.3-0.3C48,57.8,47.9,57.7,47.8,57.7z"/>
	</g>
	<g>
		<path d="M56.7,58.7c-0.4,0-0.7-0.3-0.7-0.7c0-0.4,0.3-0.7,0.7-0.7c0.4,0,0.7,0.3,0.7,0.7C57.5,58.3,57.2,58.7,56.7,58.7z
			 M56.7,57.7c-0.1,0-0.3,0.1-0.3,0.3c0,0.1,0.1,0.3,0.3,0.3s0.3-0.1,0.3-0.3C57,57.8,56.9,57.7,56.7,57.7z"/>
	</g>
	<g>
		<path d="M56.9,61.4c-0.2,0-0.3,0-0.5,0c-1.3-0.3-2.3-1.5-2.3-2.9c0-1.6,1.3-2.9,2.8-2.9c1.5,0,2.8,1.3,2.8,2.9
			C59.7,60,58.5,61.4,56.9,61.4z M56.9,56c-1.3,0-2.3,1.1-2.3,2.5c0,1.2,0.8,2.2,1.9,2.4c0.1,0,0.3,0,0.4,0c1.3,0,2.3-1.1,2.3-2.5
			S58.2,56,56.9,56z"/>
	</g>
	<g>
		<path d="M56.9,60.7c-0.1,0-0.3,0-0.4,0c-1-0.2-1.7-1.1-1.7-2.1c0-1.2,0.9-2.2,2.1-2.2c1.1,0,2.1,1,2.1,2.2S58,60.7,56.9,60.7z
			 M56.9,56.5c-1,0-1.9,0.9-1.9,2c0,1,0.7,1.8,1.5,2c0.1,0,0.2,0,0.3,0c1,0,1.9-0.9,1.9-2C58.8,57.4,57.9,56.5,56.9,56.5z"/>
	</g>
	<g>
		<path d="M58.6,65.8C58.6,65.8,58.6,65.8,58.6,65.8c-0.1,0-0.1-0.1-0.1-0.2c0-0.1,0.1-0.1,0.2-0.1l0,0c0.1,0,0.1,0.1,0.1,0.2
			C58.7,65.8,58.7,65.8,58.6,65.8z M58.3,65.7C58.3,65.7,58.3,65.7,58.3,65.7L58.3,65.7c-0.1-0.1-0.2-0.2-0.1-0.2
			c0-0.1,0.1-0.1,0.2,0l0,0C58.5,65.5,58.5,65.6,58.3,65.7C58.4,65.7,58.4,65.7,58.3,65.7z M58.1,65.5C58.1,65.5,58,65.4,58.1,65.5
			c-0.1-0.1-0.1-0.2-0.1-0.2c0,0,0.1-0.1,0.2,0l0,0C58.2,65.3,58.2,65.4,58.1,65.5C58.2,65.4,58.1,65.5,58.1,65.5z M57.9,65.2
			C57.8,65.2,57.8,65.2,57.9,65.2c-0.1-0.1-0.1-0.2-0.1-0.2c0.1,0,0.1,0,0.2,0l0,0C58,65.1,58,65.1,57.9,65.2
			C57.9,65.2,57.9,65.2,57.9,65.2z M57.7,65C57.6,65,57.6,64.9,57.7,65c-0.1-0.1-0.1-0.2-0.1-0.2c0.1,0,0.1,0,0.2,0c0,0,0,0,0,0
			C57.8,64.8,57.8,64.9,57.7,65C57.7,64.9,57.7,65,57.7,65z M57.5,64.7c0,0-0.1,0-0.1-0.1c0-0.1,0-0.1,0-0.2c0.1,0,0.1,0,0.2,0
			c0,0,0,0,0,0C57.6,64.6,57.6,64.6,57.5,64.7C57.5,64.7,57.5,64.7,57.5,64.7z M57.3,64.4c0,0-0.1,0-0.1-0.1c0-0.1,0-0.1,0-0.2
			c0.1,0,0.1,0,0.2,0l0,0C57.4,64.3,57.4,64.4,57.3,64.4C57.4,64.4,57.3,64.4,57.3,64.4z M57.1,64.1c0,0-0.1,0-0.1-0.1
			c0-0.1,0-0.1,0-0.2c0.1,0,0.1,0,0.2,0l0,0C57.3,64,57.3,64.1,57.1,64.1C57.2,64.1,57.2,64.1,57.1,64.1z M57,63.9
			c0,0-0.1,0-0.1-0.1c0,0,0,0,0,0c0-0.1,0-0.1,0-0.2c0.1,0,0.1,0,0.2,0l-0.1,0.1l0.1,0C57.1,63.7,57.1,63.8,57,63.9
			C57,63.8,57,63.9,57,63.9z M56.8,63.6c0,0-0.1,0-0.1-0.1l0,0c0-0.1,0-0.1,0-0.2c0.1,0,0.1,0,0.2,0l0,0
			C56.9,63.4,56.9,63.5,56.8,63.6C56.8,63.6,56.8,63.6,56.8,63.6z M56.6,63.3c0,0-0.1,0-0.1-0.1l0,0c0-0.1,0-0.1,0.1-0.2
			c0.1,0,0.1,0,0.2,0.1l0,0C56.8,63.2,56.8,63.2,56.6,63.3C56.7,63.3,56.7,63.3,56.6,63.3z M56.5,63c0,0-0.1,0-0.1-0.1
			c0-0.1,0-0.1,0.1-0.2c0.1,0,0.1,0,0.2,0.1c0,0,0,0,0,0C56.7,62.9,56.6,62.9,56.5,63C56.5,63,56.5,63,56.5,63z M56.4,62.7
			c-0.1,0-0.1,0-0.1-0.1c0-0.1,0-0.1,0.1-0.2c0.1,0,0.1,0,0.1,0.1c0,0,0,0,0,0C56.5,62.6,56.5,62.7,56.4,62.7
			C56.4,62.7,56.4,62.7,56.4,62.7z M56.3,62.4c-0.1,0-0.1,0-0.1-0.1c0-0.1,0-0.1,0.1-0.2c0.1,0,0.1,0,0.1,0.1l0,0
			C56.4,62.3,56.4,62.3,56.3,62.4C56.3,62.4,56.3,62.4,56.3,62.4z M56.2,62c-0.1,0-0.1,0-0.1-0.1c0,0,0,0,0,0c0-0.1,0-0.1,0.1-0.1
			c0.1,0,0.1,0,0.1,0.1l-0.1,0l0.1,0C56.4,62,56.3,62,56.2,62C56.3,62,56.2,62,56.2,62z M56.2,61.7c-0.1,0-0.1,0-0.1-0.1l0,0
			c0-0.1,0.1-0.1,0.1-0.1c0.1,0,0.1,0.1,0.1,0.1l0,0C56.3,61.7,56.3,61.7,56.2,61.7C56.2,61.7,56.2,61.7,56.2,61.7z M56.2,61.3
			l-0.1,0c0-0.1,0.1-0.1,0.1-0.1c0.1,0,0.1,0.1,0.1,0.1L56.2,61.3l0.1,0L56.2,61.3z"/>
	</g>
	<g>
		<path d="M15.5,54c-0.3-0.1-0.5-0.1-0.8-0.1c-0.3,0.1-0.5,0.3-0.5,0.5c0,0.1,0,0.2,0.1,0.2c0,0,0.1,0.1,0.2,0.1
			c0.3,0.1,0.6,0.1,0.9,0c0.3-0.1,0.7-0.3,1-0.2C16.2,54.3,15.8,54,15.5,54"/>
	</g>
	<g>
		<path d="M24.1,54c0.3-0.1,0.5-0.1,0.8-0.1c0.3,0.1,0.5,0.3,0.5,0.5c0,0.1,0,0.2-0.1,0.2c0,0-0.1,0.1-0.2,0.1
			c-0.3,0.1-0.6,0.1-0.9,0c-0.3-0.1-0.7-0.3-1-0.2C23.4,54.3,23.8,54,24.1,54"/>
	</g>
	<g>
		<g>
			<path d="M83.2,22.4c-3.2,0-5.9-1.8-6.8-4.6c-0.1-0.2-0.2-0.5-0.3-0.8c-0.3-1.4-0.3-2.9,0.1-4.6c0.2-1.1,0.6-2.3,1.2-3.8
				c0.2-3.7,2.8-6.7,6-6.7c2.9,0,5.7,3,6.1,6.6c0.3,0.8,0.4,1.5,0.5,2.3c0,0.3,0.1,0.7,0.2,1c0,0.2,0.1,0.4,0.1,0.7
				c0.1,0.5,0.2,1,0.3,1.6c0.1,0.8,0,1.6-0.1,2.4c0,0.1,0,0.1,0,0.2C89.9,19.9,86.8,22.4,83.2,22.4z M83.3,2.5c-3,0-5.4,2.7-5.6,6.2
				c0,0,0,0.1,0,0.1c-0.5,1.5-0.9,2.6-1.1,3.8c-0.4,1.6-0.4,3.1-0.1,4.4c0.1,0.3,0.2,0.5,0.3,0.7c0,0,0,0,0,0.1
				c0.9,2.5,3.4,4.3,6.4,4.3c3.4,0,6.3-2.3,6.6-5.4c0,0,0,0,0,0c0,0,0-0.1,0-0.1c0.2-0.7,0.2-1.5,0.1-2.2c0-0.5-0.2-1-0.3-1.5
				c0-0.2-0.1-0.4-0.1-0.7c-0.1-0.4-0.1-0.7-0.2-1.1c-0.1-0.7-0.2-1.4-0.5-2.2c0,0,0,0,0-0.1C88.6,5.2,86,2.5,83.3,2.5z"/>
		</g>
		<g>
			<path d="M87.6,4.3c-0.3-0.3-0.7-0.6-1.1-0.8C86,3.3,85.5,3,85.1,2.7c-0.3-0.2-0.5-0.3-0.8-0.4c-0.5-0.1-1.1,0-1.7,0.1
				c-0.7,0.2-1.4,0.4-2.1,0.7c-0.4,0.2-0.8,0.4-1.1,0.7c-0.2,0.2-0.4,0.5-0.6,0.8c-0.3,0.5-0.5,1-0.8,1.6C78,6.4,78,6.6,78,6.8
				c0.2-0.3,0.6-0.5,0.9-0.6c0.6-0.1,1.2,0.3,1.5,0.7s0.6,1,0.8,1.6c0.5,1.2,1,2.3,1.6,3.5c0.1,0.1,0.2,0.3,0.3,0.3
				c0.1,0,0.2-0.1,0.3-0.2c0.2-0.3,0.4-0.6,0.5-1c0.6-1.2,1.2-2.3,2-3.4c0.3-0.4,0.6-0.8,0.9-1c0.6-0.3,1.3-0.4,1.8-0.1
				c-0.1-0.5-0.4-1-0.6-1.5C88,4.9,87.8,4.6,87.6,4.3z"/>
		</g>
		<g>
			<path d="M78.9,9.6c-0.4,0-0.7-0.3-0.7-0.8S78.5,8,78.9,8c0.4,0,0.7,0.3,0.7,0.8S79.3,9.6,78.9,9.6z M78.9,8.5
				c-0.1,0-0.3,0.1-0.3,0.3c0,0.2,0.1,0.3,0.3,0.3c0.1,0,0.3-0.1,0.3-0.3C79.2,8.6,79,8.5,78.9,8.5z"/>
		</g>
		<g>
			<path d="M87.9,9.6c-0.4,0-0.7-0.3-0.7-0.8S87.5,8,87.9,8s0.7,0.3,0.7,0.8S88.3,9.6,87.9,9.6z M87.9,8.5c-0.1,0-0.3,0.1-0.3,0.3
				c0,0.2,0.1,0.3,0.3,0.3s0.3-0.1,0.3-0.3C88.1,8.6,88,8.5,87.9,8.5z"/>
		</g>
		<g>
			<path d="M88,12.4c-0.2,0-0.3,0-0.5,0c-1.3-0.3-2.3-1.5-2.3-3c0-1.7,1.3-3.1,2.8-3.1c1.5,0,2.8,1.4,2.8,3.1
				C90.8,11,89.6,12.4,88,12.4z M88,6.8c-1.3,0-2.3,1.2-2.3,2.6c0,1.2,0.8,2.3,1.9,2.5c0.1,0,0.3,0,0.4,0c1.3,0,2.3-1.2,2.3-2.6
				S89.3,6.8,88,6.8z"/>
		</g>
		<g>
			<path d="M88,11.7c-0.1,0-0.3,0-0.4,0c-1-0.2-1.7-1.1-1.7-2.2c0-1.3,0.9-2.3,2.1-2.3c1.1,0,2.1,1,2.1,2.3S89.1,11.7,88,11.7z
				 M88,7.3c-1,0-1.9,0.9-1.9,2.1c0,1,0.7,1.9,1.5,2c0.1,0,0.2,0,0.3,0c1,0,1.9-0.9,1.9-2.1S89,7.3,88,7.3z"/>
		</g>
		<g>
			<path d="M89.7,17.1C89.7,17.1,89.7,17.1,89.7,17.1c-0.1,0-0.1-0.1-0.1-0.2c0-0.1,0.1-0.1,0.2-0.1l0,0c0.1,0,0.1,0.1,0.1,0.2
				C89.8,17,89.8,17.1,89.7,17.1z M89.5,16.9C89.4,16.9,89.4,16.9,89.5,16.9L89.5,16.9c-0.1-0.1-0.2-0.2-0.1-0.2
				c0-0.1,0.1-0.1,0.2,0l0,0C89.6,16.7,89.6,16.8,89.5,16.9C89.5,16.9,89.5,16.9,89.5,16.9z M89.2,16.7
				C89.2,16.7,89.2,16.6,89.2,16.7c-0.1-0.1-0.1-0.2-0.1-0.2c0,0,0.1-0.1,0.2,0l0,0C89.3,16.5,89.3,16.6,89.2,16.7
				C89.3,16.6,89.2,16.7,89.2,16.7z M89,16.4C89,16.4,88.9,16.4,89,16.4c-0.1-0.1-0.1-0.2-0.1-0.2c0.1,0,0.1,0,0.2,0l0,0
				C89.1,16.3,89.1,16.3,89,16.4C89,16.4,89,16.4,89,16.4z M88.8,16.1C88.8,16.1,88.7,16.1,88.8,16.1c-0.1-0.1-0.1-0.2-0.1-0.2
				c0.1,0,0.1,0,0.2,0c0,0,0,0,0,0C88.9,16,88.9,16.1,88.8,16.1C88.8,16.1,88.8,16.1,88.8,16.1z M88.6,15.9c0,0-0.1,0-0.1-0.1
				c0-0.1,0-0.1,0-0.2c0.1,0,0.1,0,0.2,0c0,0,0,0,0,0C88.7,15.7,88.7,15.8,88.6,15.9C88.7,15.8,88.6,15.9,88.6,15.9z M88.4,15.6
				c0,0-0.1,0-0.1-0.1c0-0.1,0-0.1,0-0.2c0.1,0,0.1,0,0.2,0l0,0C88.6,15.4,88.6,15.5,88.4,15.6C88.5,15.6,88.5,15.6,88.4,15.6z
				 M88.3,15.3c0,0-0.1,0-0.1-0.1c0-0.1,0-0.1,0-0.2c0.1,0,0.1,0,0.2,0l0,0C88.4,15.1,88.4,15.2,88.3,15.3
				C88.3,15.3,88.3,15.3,88.3,15.3z M88.1,15c0,0-0.1,0-0.1-0.1c0,0,0,0,0,0c0-0.1,0-0.1,0-0.2c0.1,0,0.1,0,0.2,0l-0.1,0.1l0.1,0
				C88.2,14.9,88.2,14.9,88.1,15C88.1,15,88.1,15,88.1,15z M87.9,14.7c0,0-0.1,0-0.1-0.1l0,0c0-0.1,0-0.1,0-0.2c0.1,0,0.1,0,0.2,0.1
				l0,0C88.1,14.6,88,14.6,87.9,14.7C88,14.7,87.9,14.7,87.9,14.7z M87.8,14.4c0,0-0.1,0-0.1-0.1l0,0c0-0.1,0-0.1,0.1-0.2
				c0.1,0,0.1,0,0.2,0.1l0,0C87.9,14.3,87.9,14.3,87.8,14.4C87.8,14.4,87.8,14.4,87.8,14.4z M87.6,14.1c0,0-0.1,0-0.1-0.1
				c0-0.1,0-0.1,0.1-0.2c0.1,0,0.1,0,0.2,0.1c0,0,0,0,0,0C87.8,14,87.7,14,87.6,14.1C87.7,14.1,87.7,14.1,87.6,14.1z M87.5,13.8
				c-0.1,0-0.1,0-0.1-0.1c0-0.1,0-0.1,0.1-0.2c0.1,0,0.1,0,0.1,0.1c0,0,0,0,0,0C87.7,13.7,87.6,13.7,87.5,13.8
				C87.5,13.8,87.5,13.8,87.5,13.8z M87.4,13.4c-0.1,0-0.1,0-0.1-0.1c0-0.1,0-0.1,0.1-0.2c0.1,0,0.1,0,0.1,0.1l0,0
				C87.6,13.3,87.5,13.4,87.4,13.4C87.4,13.4,87.4,13.4,87.4,13.4z M87.4,13.1c-0.1,0-0.1,0-0.1-0.1c0,0,0,0,0,0
				c0-0.1,0-0.1,0.1-0.1c0.1,0,0.1,0,0.1,0.1l-0.1,0l0.1,0C87.5,13,87.4,13.1,87.4,13.1C87.4,13.1,87.4,13.1,87.4,13.1z M87.3,12.8
				c-0.1,0-0.1-0.1-0.1-0.1l0,0c0-0.1,0.1-0.1,0.1-0.1c0.1,0,0.1,0.1,0.1,0.1l0,0C87.5,12.7,87.4,12.8,87.3,12.8
				C87.3,12.8,87.3,12.8,87.3,12.8z M87.3,12.3l-0.1,0c0-0.1,0.1-0.1,0.1-0.1c0.1,0,0.1,0.1,0.1,0.1L87.3,12.3l0.1,0L87.3,12.3z"/>
		</g>
		<g>
			<path d="M78.8,20.9c-0.3-0.1-0.5-0.1-0.8-0.1c-0.3,0.1-0.5,0.3-0.5,0.6c0,0.1,0,0.2,0.1,0.2c0,0,0.1,0.1,0.2,0.1
				c0.3,0.1,0.6,0.1,0.9,0c0.3-0.1,0.7-0.4,1-0.2C79.5,21.2,79.1,21,78.8,20.9"/>
		</g>
		<g>
			<path d="M87.3,20.9c0.3-0.1,0.5-0.1,0.8-0.1c0.3,0.1,0.5,0.3,0.5,0.6c0,0.1,0,0.2-0.1,0.2c0,0-0.1,0.1-0.2,0.1
				c-0.3,0.1-0.6,0.1-0.9,0c-0.3-0.1-0.7-0.4-1-0.2C86.7,21.2,87.1,21,87.3,20.9"/>
		</g>
		<g>
			<path d="M76.3,12.7C76.3,12.7,76.2,12.6,76.3,12.7c-0.2,0-0.2-0.1-0.2-0.2c-0.2-2.1-1.2-4-2.3-5.6c-0.1-0.1-0.2-0.4-0.2-0.7
				c0-0.1,0.1-0.2,0.2-0.3c0.1-0.1,0.2-0.1,0.3,0c0.8,0.1,1.5,0.5,2,1.2c0.3,0.3,0.5,0.7,0.6,1.1c0.2,0.4,0.4,0.7,0.4,1.1
				c0.1,0.6,0,1.2-0.1,1.7c-0.1,0.6-0.3,1.2-0.7,1.7C76.4,12.6,76.3,12.7,76.3,12.7z M74.1,6.3c0,0,0,0.1,0.1,0.2
				c0.9,1.5,1.9,3.2,2.3,5.1c0.1-0.3,0.2-0.6,0.2-0.9c0.1-0.5,0.2-1,0.1-1.5c-0.1-0.3-0.2-0.6-0.4-1c-0.2-0.4-0.4-0.7-0.6-1
				C75.4,6.7,74.8,6.4,74.1,6.3C74.1,6.3,74.1,6.3,74.1,6.3z"/>
		</g>
		<g>
			<path d="M90.1,12.8c-0.1,0-0.1,0-0.2-0.1c-0.4-0.5-0.5-1.2-0.6-1.8c-0.1-0.5-0.1-1.1,0-1.7c0.1-0.4,0.3-0.7,0.5-1.1
				c0.2-0.4,0.4-0.7,0.7-1c0.5-0.6,1.3-1,2.1-1c0.1,0,0.3,0,0.3,0.1c0.1,0.1,0.2,0.2,0.2,0.3c0.1,0.3-0.1,0.6-0.2,0.7
				c-1.1,1.5-2.3,3.4-2.7,5.4C90.4,12.7,90.3,12.8,90.1,12.8C90.2,12.8,90.2,12.8,90.1,12.8z M92.8,6.7C92.8,6.7,92.7,6.7,92.8,6.7
				c-0.7,0-1.4,0.4-1.8,0.9c-0.3,0.3-0.4,0.6-0.6,0.9c-0.2,0.3-0.4,0.6-0.4,1c-0.1,0.5-0.1,1,0,1.5c0,0.3,0.1,0.6,0.2,0.9
				c0.5-1.9,1.6-3.6,2.6-5C92.7,6.8,92.8,6.7,92.8,6.7z"/>
		</g>
	</g>
	<g>
	</g>
	<g>
	</g>
	<g>
	</g>
	<g>
	</g>
	<g>
	</g>
	<g>
	</g>
	<g>
	</g>
	<g>
	</g>
	<g>
	</g>
	<g>
	</g>
	<g>
	</g>
	<g>
	</g>
	<g>
	</g>
	<g>
	</g>
	<g>
	</g>
</g>
</svg>
