<?xml version="1.0" encoding="utf-8"?>
<!-- Generator: Adobe Illustrator 18.1.0, SVG Export Plug-In . SVG Version: 6.00 Build 0)  -->
<!DOCTYPE svg PUBLIC "-//W3C//DTD SVG 1.1//EN" "http://www.w3.org/Graphics/SVG/1.1/DTD/svg11.dtd">
<svg version="1.1" id="Layer_1" xmlns="http://www.w3.org/2000/svg" xmlns:xlink="http://www.w3.org/1999/xlink" x="0px" y="0px"
	 viewBox="0 0 244 327.2" enable-background="new 0 0 244 327.2" xml:space="preserve">
<path fill="#736357" d="M110,20.6c0,0.1,0,0.3,0,0.4v22.4c0,2.6-1.7,4.7-4,4.7c-2.3,0-4-2.1-4-4.7V21c-1-1.1-1.8-2.7-1.8-4.5
	c0-3.5,2.4-6.3,5.6-6.3c3.1,0,5.6,2.8,5.6,6.3C111.3,18.1,110.8,19.5,110,20.6z"/>
<path fill="#736357" d="M124,34.6c0,0.1,0,0.3,0,0.4v22.4c0,2.6-1.7,4.7-4,4.7c-2.3,0-4-2.1-4-4.7V35c-1-1.1-1.8-2.7-1.8-4.5
	c0-3.5,2.4-6.3,5.6-6.3c3.1,0,5.6,2.8,5.6,6.3C125.3,32.1,124.8,33.5,124,34.6z"/>
<polygon fill="#603813" points="92.3,40.3 67.8,37 51.7,14.7 77.4,19.6 "/>
<polygon fill="#603813" points="101.3,25.2 10,89.2 36.7,123.8 154,97.8 "/>
<polygon fill="#C7B299" points="83.7,82.7 102.6,74 115.3,89 100.3,82 "/>
<polygon fill="#603813" points="244.5,224.5 245,326.6 126.5,96.5 153.5,97.4 "/>
<path fill="#ED1C24" d="M184.1,0L184.1,0L184.1,0C184,0,184,0,184.1,0z"/>
<path fill="#ED1C24" d="M184.1,0L184.1,0L184.1,0C184,0,184,0,184.1,0z"/>
<polygon fill="#603813" points="123.5,72.5 140.5,54.5 168,54.5 149,72.5 "/>
<g>
	<defs>
		<polygon id="SVGID_1_" points="244.5,225.2 245,327.2 126.5,97.2 153.5,98.1 		"/>
	</defs>
	<clipPath id="SVGID_2_">
		<use xlink:href="#SVGID_1_"  overflow="visible"/>
	</clipPath>
	<polygon clip-path="url(#SVGID_2_)" fill="#F15A24" points="159,141.2 181.6,125.2 197,150.2 180.4,160.8 	"/>
	<polygon clip-path="url(#SVGID_2_)" fill="#F15A24" points="152.3,187.5 160.3,167.5 185.7,192.2 172.3,203.5 	"/>
	<polygon clip-path="url(#SVGID_2_)" fill="#F15A24" points="195,176.8 209.7,177.5 208.3,192.8 193,194.8 	"/>
	<polygon clip-path="url(#SVGID_2_)" fill="#F15A24" points="141,130.8 155.7,131.5 154.3,146.8 139,148.8 	"/>
	<polygon clip-path="url(#SVGID_2_)" fill="#F15A24" points="155.1,152.9 144.2,162.6 134.4,150.7 144,138.6 	"/>
	<polygon clip-path="url(#SVGID_2_)" fill="#F15A24" points="197.7,157.5 193,167.5 225.7,172.2 222.3,150.8 	"/>
	<polygon clip-path="url(#SVGID_2_)" fill="#F15A24" points="183,202.8 199.7,200.2 207.7,229.5 181,230.2 	"/>
	<polygon clip-path="url(#SVGID_2_)" fill="#F15A24" points="209.7,203.5 220.3,186.2 244.3,209.5 227,226.8 	"/>
	<polygon clip-path="url(#SVGID_2_)" fill="#F15A24" points="209,240.2 215.7,226.2 237.7,246.8 223,259.5 	"/>
	<polygon clip-path="url(#SVGID_2_)" fill="#F15A24" points="211,270.5 225.7,273.2 211.7,295.8 195,277.8 	"/>
	<polygon clip-path="url(#SVGID_2_)" fill="#F15A24" points="170.3,93.2 174.3,113.8 147.7,123.8 143,94.5 	"/>
	<polygon clip-path="url(#SVGID_2_)" fill="#F15A24" points="237.6,285 254,292.2 254,308.5 225,305.5 	"/>
</g>
<ellipse fill="#8C6239" cx="41" cy="106.5" rx="5" ry="2.3"/>
<g>
</g>
<g>
</g>
<g>
</g>
<g>
</g>
<g>
</g>
<g>
</g>
<g>
</g>
<g>
</g>
<g>
</g>
<g>
</g>
<g>
</g>
<g>
</g>
<g>
</g>
<g>
</g>
<g>
</g>
</svg>
