<?xml version="1.0" encoding="utf-8"?>
<!-- Generator: Adobe Illustrator 18.1.0, SVG Export Plug-In . SVG Version: 6.00 Build 0)  -->
<!DOCTYPE svg PUBLIC "-//W3C//DTD SVG 1.1//EN" "http://www.w3.org/Graphics/SVG/1.1/DTD/svg11.dtd">
<svg version="1.1" id="Layer_1" xmlns="http://www.w3.org/2000/svg" xmlns:xlink="http://www.w3.org/1999/xlink" x="0px" y="0px"
	 viewBox="0 0 246.5 329.2" enable-background="new 0 0 246.5 329.2" xml:space="preserve">
<path fill="#ED1C24" d="M185.6,0L185.6,0L185.6,0C185.5,0,185.6,0,185.6,0z"/>
<path fill="#ED1C24" d="M185.6,0L185.6,0L185.6,0C185.5,0,185.6,0,185.6,0z"/>
<path fill="none" stroke="#FFFFFF" stroke-width="3" stroke-linecap="round" stroke-linejoin="round" stroke-miterlimit="10" d="
	M246,224.5L155.4,97.9l0.2,0.7L137.2,74h13.4l19-18H142l-10.9,10l-7.1-9.5V35.1c0-0.2,0.8-0.3,0.7-0.5c0.8-1.1,1.7-2.5,1.7-4
	c0-3.5-2.3-6.3-5.4-6.3s-6.2,2.8-6.2,6.3c0,1.7,0.2,3.3,1.2,4.5v10.4l-7-9.7V18.1c0-0.2,0.8-0.3,0.7-0.5c0.8-1.1,1.7-2.5,1.7-4
	c0-3.5-2.3-6.3-5.4-6.3s-6.2,2.8-6.2,6.3c0,1.7,0.2,3.3,1.2,4.5v7.4l-12.2,9.1L78.6,19.6L53,14.7L69.2,37l14,1.9L11.5,89.2
	l26.7,34.7l93.3-20.7l115.1,223.4L246,224.5z M44.5,105.8c-2.8,0-5-1-5-2.3c0-1.3,2.2-2.3,5-2.3s5,1,5,2.3
	C49.5,104.8,47.3,105.8,44.5,105.8z M103.8,79l-16.6,0.7l18.9-8.7l12.7,15L103.8,79z"/>
<polygon fill="none" points="247,226.5 247.5,328.6 129,98.5 156.1,99.4 "/>
<g>
	<defs>
		<polygon id="SVGID_1_" points="247,227.2 247.5,329.2 129,99.2 156.1,100.1 		"/>
	</defs>
	<clipPath id="SVGID_2_">
		<use xlink:href="#SVGID_1_"  overflow="visible"/>
	</clipPath>
	<polygon clip-path="url(#SVGID_2_)" fill="none" stroke="#FFFFFF" stroke-width="2" stroke-miterlimit="10" points="161.5,143.2 
		184.1,127.2 199.5,152.2 182.9,162.8 	"/>
	<polygon clip-path="url(#SVGID_2_)" fill="none" stroke="#FFFFFF" stroke-width="2" stroke-miterlimit="10" points="154.9,189.5 
		162.9,169.5 188.2,194.2 174.9,205.5 	"/>
	<polygon clip-path="url(#SVGID_2_)" fill="none" stroke="#FFFFFF" stroke-width="2" stroke-miterlimit="10" points="197.5,178.8 
		212.2,179.5 210.9,194.8 195.5,196.8 	"/>
	<polygon clip-path="url(#SVGID_2_)" fill="none" stroke="#FFFFFF" stroke-width="2" stroke-miterlimit="10" points="143.5,132.8 
		158.2,133.5 156.9,148.8 141.5,150.8 	"/>
	<polygon clip-path="url(#SVGID_2_)" fill="#F15A24" points="157.7,154.9 146.7,164.6 137,152.7 146.6,140.6 	"/>
	<polygon clip-path="url(#SVGID_2_)" fill="none" stroke="#FFFFFF" stroke-width="2" stroke-miterlimit="10" points="200.2,159.5 
		195.5,169.5 228.2,174.2 224.9,152.8 	"/>
	<polygon clip-path="url(#SVGID_2_)" fill="none" stroke="#FFFFFF" stroke-width="2" stroke-miterlimit="10" points="185.5,204.8 
		202.2,202.2 210.2,231.5 183.5,232.2 	"/>
	<polygon clip-path="url(#SVGID_2_)" fill="none" stroke="#FFFFFF" stroke-width="2" stroke-miterlimit="10" points="212.2,205.5 
		222.9,188.2 246.9,211.5 229.5,228.8 	"/>
	<polygon clip-path="url(#SVGID_2_)" fill="none" stroke="#FFFFFF" stroke-width="2" stroke-miterlimit="10" points="211.5,242.2 
		218.2,228.2 240.2,248.8 225.5,261.5 	"/>
	<polygon clip-path="url(#SVGID_2_)" fill="none" stroke="#FFFFFF" stroke-width="2" stroke-miterlimit="10" points="213.5,272.5 
		228.2,275.2 214.2,297.8 197.5,279.8 	"/>
	<polygon clip-path="url(#SVGID_2_)" fill="none" stroke="#FFFFFF" stroke-width="2" stroke-miterlimit="10" points="172.9,95.2 
		176.9,115.8 150.2,125.8 145.5,96.5 	"/>
	<polygon clip-path="url(#SVGID_2_)" fill="none" stroke="#FFFFFF" stroke-width="2" stroke-miterlimit="10" points="239.6,287 
		255.5,294.2 255.5,310.5 226.7,307.5 	"/>
</g>
</svg>
