<?xml version="1.0" encoding="utf-8"?>
<!-- Generator: Adobe Illustrator 18.1.0, SVG Export Plug-In . SVG Version: 6.00 Build 0)  -->
<!DOCTYPE svg PUBLIC "-//W3C//DTD SVG 1.1//EN" "http://www.w3.org/Graphics/SVG/1.1/DTD/svg11.dtd">
<svg version="1.1" id="Layer_1" xmlns="http://www.w3.org/2000/svg" xmlns:xlink="http://www.w3.org/1999/xlink" x="0px" y="0px"
	 viewBox="0 0 267 329.2" enable-background="new 0 0 267 329.2" xml:space="preserve">
<path fill="none" d="M204.6,0L204.6,0L204.6,0C204.5,0,204.6,0,204.6,0z"/>
<path fill="none" d="M204.6,0L204.6,0L204.6,0C204.5,0,204.6,0,204.6,0z"/>
<path fill="none" stroke="#FFFFFF" stroke-width="3" stroke-linecap="round" stroke-linejoin="round" stroke-miterlimit="10" d="
	M265,224.5L174.4,97.9l0.2,0.5l-18.4-24.8h13.4l19-18H161l-11.1,10.2l-7.4-9.3V35.1c0-0.2,1-0.3,1-0.5c0.8-1.1,1.8-2.5,1.8-4
	c0-3.5-2.2-6.3-5.3-6.3s-6.4,2.8-6.4,6.3c0,1.7-0.1,3.3,0.9,4.5v10.4l-7-9.7V18.1c0-0.2,1-0.3,1-0.5c0.8-1.1,1.8-2.5,1.8-4
	c0-3.5-2.2-6.3-5.3-6.3c-3.1,0-6.4,2.8-6.4,6.3c0,1.7-0.1,3.3,0.9,4.5v7.4l-11.9,9.1L97.4,19.6L72,14.7L88.2,37l14,1.9L30.5,89.2
	l26.7,34.7l93.3-20.7l115.1,223.4L265,224.5z M63.5,105.8c-2.8,0-5-1-5-2.3c0-1.3,2.2-2.3,5-2.3c2.8,0,5,1,5,2.3
	C68.5,104.8,66.3,105.8,63.5,105.8z M122.8,79l-16.6,0.7l18.9-8.7l12.7,15L122.8,79z"/>
<polygon fill="none" points="266,226.5 266.5,328.6 148,98.5 175.1,99.4 "/>
<g>
	<defs>
		<polygon id="SVGID_1_" points="266,227.2 266.5,329.2 148,99.2 175.1,100.1 		"/>
	</defs>
	<clipPath id="SVGID_2_">
		<use xlink:href="#SVGID_1_"  overflow="visible"/>
	</clipPath>
	<polygon clip-path="url(#SVGID_2_)" fill="none" stroke="#FFFFFF" stroke-width="3" stroke-miterlimit="10" points="180.5,143.2 
		203.1,127.2 218.5,152.2 201.9,162.8 	"/>
	<polygon clip-path="url(#SVGID_2_)" fill="none" stroke="#FFFFFF" stroke-width="3" stroke-miterlimit="10" points="173.9,189.5 
		181.9,169.5 207.2,194.2 193.9,205.5 	"/>
	<polygon clip-path="url(#SVGID_2_)" fill="none" stroke="#FFFFFF" stroke-width="3" stroke-miterlimit="10" points="216.5,178.8 
		231.2,179.5 229.9,194.8 214.5,196.8 	"/>
	<polygon clip-path="url(#SVGID_2_)" fill="none" stroke="#FFFFFF" stroke-width="3" stroke-miterlimit="10" points="162.5,132.8 
		177.2,133.5 175.9,148.8 160.5,150.8 	"/>
	<polygon clip-path="url(#SVGID_2_)" fill="none" points="176.7,154.9 165.7,164.6 156,152.7 165.6,140.6 	"/>
	<polygon clip-path="url(#SVGID_2_)" fill="none" stroke="#FFFFFF" stroke-width="3" stroke-miterlimit="10" points="219.2,159.5 
		214.5,169.5 247.2,174.2 243.9,152.8 	"/>
	<polygon clip-path="url(#SVGID_2_)" fill="none" stroke="#FFFFFF" stroke-width="3" stroke-miterlimit="10" points="204.5,204.8 
		221.2,202.2 229.2,231.5 202.5,232.2 	"/>
	<polygon clip-path="url(#SVGID_2_)" fill="none" stroke="#FFFFFF" stroke-width="3" stroke-miterlimit="10" points="231.2,205.5 
		241.9,188.2 265.9,211.5 248.5,228.8 	"/>
	<polygon clip-path="url(#SVGID_2_)" fill="none" stroke="#FFFFFF" stroke-width="3" stroke-miterlimit="10" points="230.5,242.2 
		237.2,228.2 259.2,248.8 244.5,261.5 	"/>
	<polygon clip-path="url(#SVGID_2_)" fill="none" stroke="#FFFFFF" stroke-width="3" stroke-miterlimit="10" points="232.5,272.5 
		247.2,275.2 233.2,297.8 216.5,279.8 	"/>
	<polygon clip-path="url(#SVGID_2_)" fill="none" stroke="#FFFFFF" stroke-width="3" stroke-miterlimit="10" points="191.9,95.2 
		195.9,115.8 169.2,125.8 164.5,96.5 	"/>
	<polygon clip-path="url(#SVGID_2_)" fill="none" stroke="#FFFFFF" stroke-width="3" stroke-miterlimit="10" points="258.1,287 
		273.5,294.2 273.5,310.5 245,307.5 	"/>
</g>
<g>
	<path fill="#FFFFFF" d="M5.1,76.9c-0.2,2.9-0.5,5.9,0.5,8.7c1,2.7,3.6,5.1,6.5,4.9c4-0.3,6.1-5,9.7-6.9c3.4-1.7,7.6-0.5,10.5,1.9
		s4.8,5.8,6.5,9.2c4-4.2,9.8-8.8,15-6.2c4.8,2.4,6.8,10.1,12.1,9.6c1.3-0.1,2.6-0.8,3.7-1.6c3.9-2.7,6.9-6.5,8.7-10.8
		c-1.1,7.2-2.9,16.7-7.9,22s-14.4,7-19.5,1.8c-1.3-1.3-3.9-3-5.2-4.3c-4.4-4.4-9.9-5.7-15.9-4.1s-12.3,4.1-18.3,2.3
		C2.8,100.8-1.2,89.9,0.3,80.8c0.3-1.6,0.9-3.4,2.4-3.8s3.2,1.9,1.8,2.7"/>
</g>
<circle fill="none" stroke="#FFFFFF" stroke-width="2" stroke-miterlimit="10" cx="122" cy="76" r="22.5"/>
<g>
	<g>
		<path fill="none" stroke="#FFFFFF" stroke-width="3" stroke-linecap="round" stroke-linejoin="round" d="M117.5,98.5
			c0,0,0,0.5,0,1.5"/>
		
			<path fill="none" stroke="#FFFFFF" stroke-width="3" stroke-linecap="round" stroke-linejoin="round" stroke-dasharray="3.0118,3.0118" d="
			M117.5,103c0,24.1,3.8,135.5,76.5,94"/>
		<path fill="none" stroke="#FFFFFF" stroke-width="3" stroke-linecap="round" stroke-linejoin="round" d="M195.2,196.3
			c0.4-0.3,0.9-0.5,1.3-0.8"/>
	</g>
</g>
<g>
</g>
<g>
</g>
<g>
</g>
<g>
</g>
<g>
</g>
<g>
</g>
<g>
</g>
<g>
</g>
<g>
</g>
<g>
</g>
<g>
</g>
<g>
</g>
<g>
</g>
<g>
</g>
<g>
</g>
</svg>
