<?xml version="1.0" encoding="utf-8"?>
<!-- Generator: Adobe Illustrator 18.1.0, SVG Export Plug-In . SVG Version: 6.00 Build 0)  -->
<!DOCTYPE svg PUBLIC "-//W3C//DTD SVG 1.1//EN" "http://www.w3.org/Graphics/SVG/1.1/DTD/svg11.dtd">
<svg version="1.1" id="Layer_1" xmlns="http://www.w3.org/2000/svg" xmlns:xlink="http://www.w3.org/1999/xlink" x="0px" y="0px"
	 viewBox="0 0 372.7 438.7" enable-background="new 0 0 372.7 438.7" xml:space="preserve">
<path fill="#736357" d="M185.7,16.6c0,0.2,0,0.4,0,0.6V48c0,3.6-2.3,6.5-5.5,6.5c-3.2,0-5.5-2.9-5.5-6.5V17.1
	c-1-1.6-2.4-3.7-2.4-6.1c0-4.8,3.4-8.7,7.7-8.7c4.3,0,7.7,3.9,7.7,8.7C187.6,13.1,186.8,15,185.7,16.6z"/>
<path fill="#736357" d="M204.8,35.8c0,0.2-0.2,0.4-0.2,0.6v30.9c0,3.6-2.3,6.5-5.5,6.5c-3.2,0-5.5-2.9-5.5-6.5V36.4
	c-1-1.6-2.3-3.7-2.3-6.1c0-4.8,3.5-8.7,7.7-8.7c4.3,0,7.7,3.9,7.7,8.7C206.8,32.4,206,34.3,204.8,35.8z"/>
<polygon fill="#603813" points="161.4,43.7 127.6,39.1 105.5,8.4 140.9,15.2 "/>
<polygon fill="#603813" points="173.9,22.8 48.1,110.9 84.8,158.7 246.4,122.9 "/>
<polygon fill="#C7B299" points="149.6,102.1 175.6,90.1 193.1,110.8 172.5,101.1 "/>
<polygon fill="#603813" points="371,297.3 371.7,437.8 208.5,121 245.7,122.3 "/>
<polygon fill="#603813" points="360.6,304.8 364.9,351.1 123.1,275.5 150.9,256.7 "/>
<polygon fill="#603813" points="204.4,88 227.8,63 265.6,63 239.5,88 "/>
<g>
	<defs>
		<polygon id="SVGID_1_" points="371,298.2 371.7,438.7 208.5,122 245.7,123.2 		"/>
	</defs>
	<clipPath id="SVGID_2_">
		<use xlink:href="#SVGID_1_"  overflow="visible"/>
	</clipPath>
	<polygon clip-path="url(#SVGID_2_)" fill="#F15A24" points="253.3,182.6 284.3,160.6 305.6,194.9 282.7,209.6 	"/>
	<polygon clip-path="url(#SVGID_2_)" fill="#F15A24" points="244.1,246.3 255.1,218.8 290,252.8 271.6,268.4 	"/>
	<polygon clip-path="url(#SVGID_2_)" fill="#F15A24" points="302.8,231.7 323,232.6 321.2,253.7 300.1,256.4 	"/>
	<polygon clip-path="url(#SVGID_2_)" fill="#F15A24" points="228.5,168.3 248.7,169.2 246.8,190.3 225.7,193.1 	"/>
	<polygon clip-path="url(#SVGID_2_)" fill="#F15A24" points="247.9,198.7 232.8,212.1 219.4,195.7 232.7,179 	"/>
	<polygon clip-path="url(#SVGID_2_)" fill="#F15A24" points="306.5,205 300.1,218.8 345,225.2 340.5,195.9 	"/>
	<polygon clip-path="url(#SVGID_2_)" fill="#F15A24" points="286.3,267.5 309.2,263.8 320.3,304.2 283.5,305.1 	"/>
	<polygon clip-path="url(#SVGID_2_)" fill="#F15A24" points="323,268.4 337.7,244.5 370.7,276.6 346.9,300.5 	"/>
	<polygon clip-path="url(#SVGID_2_)" fill="#F15A24" points="322.1,318.9 331.3,299.6 361.6,328 341.4,345.5 	"/>
	<polygon clip-path="url(#SVGID_2_)" fill="#F15A24" points="324.9,360.6 345,364.3 325.8,395.5 302.8,370.7 	"/>
	<polygon clip-path="url(#SVGID_2_)" fill="#F15A24" points="268.9,116.5 274.4,144.9 237.6,158.7 231.2,118.3 	"/>
	<polygon clip-path="url(#SVGID_2_)" fill="#F15A24" points="361.3,380.6 383.7,390.5 383.7,412.9 343.8,408.8 	"/>
</g>
<ellipse fill="#8C6239" cx="90.8" cy="134.8" rx="6.9" ry="3.2"/>
<g>
	<path fill="#29ABE2" d="M130.9,298.4l-27.9,12.8c-4.1,1.9-9,0.1-10.9-4l-27.1-58.9c-1.9-4.1-0.1-9,4-10.9L97,224.5
		c4.1-1.9,9-0.1,10.9,4l27.1,58.9C136.9,291.6,135.1,296.5,130.9,298.4z"/>
	
		<rect x="79.9" y="236.3" transform="matrix(0.9087 -0.4176 0.4176 0.9087 -102.3846 66.1764)" fill="#E6E6E6" width="40.4" height="61.5"/>
	<circle fill="#FBB03B" cx="114.7" cy="300.4" r="4"/>
	<polygon fill="#FBB03B" points="68.5,247.7 105.6,230.7 131.5,287.1 	"/>
</g>
<polygon fill="#42210B" points="150.9,256.7 123.1,275.5 107,271.4 115.7,249.4 "/>
</svg>
