<?xml version="1.0" encoding="utf-8"?>
<!-- Generator: Adobe Illustrator 18.1.0, SVG Export Plug-In . SVG Version: 6.00 Build 0)  -->
<!DOCTYPE svg PUBLIC "-//W3C//DTD SVG 1.1//EN" "http://www.w3.org/Graphics/SVG/1.1/DTD/svg11.dtd">
<svg version="1.1" xmlns="http://www.w3.org/2000/svg" xmlns:xlink="http://www.w3.org/1999/xlink" x="0px" y="0px"
	 viewBox="0 0 116.4 42.8" enable-background="new 0 0 116.4 42.8" xml:space="preserve">
<g id="Layer_1">
</g>
<g id="Layer_3">
	<path fill="none" stroke="#FFFFFF" stroke-width="2" stroke-linecap="round" stroke-linejoin="round" stroke-miterlimit="10" d="
		M24.2,32.1c-1.5,6.5-11.9,16.2-21.1,3.6c0,0,6.1-7.5,4-12.4c-0.2-0.4-1.7-3.7-1.7-5.1c0-3.8,3.8-6.5,8.5-6.9c7.2-0.6,8.8,7,9,7.2
		C22.8,18.6,25.7,25.6,24.2,32.1z"/>
	<path fill="#FFFFFF" stroke="#FFFFFF" stroke-linecap="round" stroke-linejoin="round" stroke-miterlimit="10" d="M0.5,23
		c1.3,0.4,2.6,1,4,1.3c1.4,0.3,2.9,0.2,4-0.7c-1.4-0.9-2.4-2.3-3-3.9c-0.4,0.2-0.7,0.5-1,0.8C3.4,21.7,2.1,22.8,0.5,23z"/>
	<path fill="#FFFFFF" stroke="#FFFFFF" stroke-linecap="round" stroke-linejoin="round" stroke-miterlimit="10" d="M10,12.6
		c0,0,4.9-2.3,6.8-0.7s6.9,7.7,6.5,12.6c0,0-6.5,2.3-11.2,1.4c-4.7-0.9-5-1.8-5-1.8S6,22.4,7.5,23c1.5,0.6,10.4,2.8,11.8-1.6
		C20.8,16.9,17.1,11.6,10,12.6z"/>
	<path fill="#FFFFFF" stroke="#FFFFFF" stroke-miterlimit="10" d="M7.5,40.3c-0.3-0.7-0.9-1.2-1.5-1.2c-0.1,0-0.3-0.1-0.3-0.2
		c-1.3,0-2.6,0-3.7,0.8c-0.2,0.1-0.4,0.3-0.3,0.5c0.1,0.1,0.2,0.2,0.3,0.2C3.9,40.3,5.7,39.7,7.5,40.3z"/>
	<path fill="none" stroke="#FFFFFF" stroke-width="2" stroke-linecap="round" stroke-linejoin="round" stroke-miterlimit="10" d="
		M26.6,32.1c1.5,6.5,11.9,16.2,21.1,3.6c0,0-6.1-7.5-4-12.4c0.2-0.4,1.7-3.7,1.7-5.1c0-3.8-3.8-6.5-8.5-6.9c-7.2-0.6-8.8,7-9,7.2
		C28,18.6,25.1,25.6,26.6,32.1z"/>
	<path fill="#FFFFFF" stroke="#FFFFFF" stroke-linecap="round" stroke-linejoin="round" stroke-miterlimit="10" d="M50.3,23
		c-1.3,0.4-2.6,1-4,1.3c-1.4,0.3-2.9,0.2-4-0.7c1.4-0.9,2.4-2.3,3-3.9c0.4,0.2,0.7,0.5,1,0.8C47.5,21.7,48.8,22.8,50.3,23z"/>
	<path fill="#FFFFFF" stroke="#FFFFFF" stroke-linecap="round" stroke-linejoin="round" stroke-miterlimit="10" d="M40.8,12.6
		c0,0-4.9-2.3-6.8-0.7c-1.9,1.7-6.9,7.7-6.5,12.6c0,0,6.5,2.3,11.2,1.4c4.7-0.9,5-1.8,5-1.8s1.2-1.8-0.2-1.2
		c-1.5,0.6-10.4,2.8-11.8-1.6C30,16.9,33.7,11.6,40.8,12.6z"/>
	<path fill="#FFFFFF" stroke="#FFFFFF" stroke-miterlimit="10" d="M43.4,40.3c0.3-0.7,0.8-1.2,1.4-1.2c0.1,0,0.3-0.1,0.3-0.2
		c1.2,0,2.5,0,3.6,0.8c0.2,0.1,0.3,0.3,0.2,0.5c-0.1,0.1-0.2,0.2-0.3,0.2C46.8,40.3,45,39.7,43.4,40.3z"/>
	<path fill="none" stroke="#FFFFFF" stroke-width="2" stroke-miterlimit="10" d="M35,10.8c0,5-19.8,5-19.8,0S19.6,1,25.1,1
		S35,5.8,35,10.8z"/>
	<path fill="#FFFFFF" stroke="#FFFFFF" stroke-linecap="round" stroke-linejoin="round" stroke-miterlimit="10" d="M17.5,5
		c0,0,7.1-3.9,7.7,6.2c0,0,0.9-9,7.6-6.1C32.8,5.1,26.9-4.2,17.5,5z"/>
	<g>
		<path fill="#FFFFFF" d="M16.3,26.2c-1.2,0.7,1.4,2.5,1.3,3.9c-0.1,1.4-0.8,2.8-1.9,3.7c1.9,0.2,3.9-0.4,5.5-1.6
			c1.6-1.1,2.8-2.8,3.5-4.6C24.7,27.6,25,20.9,16.3,26.2z"/>
		<g>
			<path fill="#FFFFFF" d="M15.8,25.6c-0.8,0.7-0.5,1.5-0.1,2.3c0.3,0.5,0.8,1,1,1.6c0.5,1.3-0.6,2.8-1.5,3.7
				c-0.5,0.5-0.1,1.2,0.5,1.3c3.4,0.2,6.5-1.4,8.4-4.2c0.9-1.3,1.6-2.5,1.2-4c-1.2-4.7-6.6-2.4-9.3-0.7c-0.8,0.5-0.1,1.8,0.8,1.3
				c1.8-1.1,6.3-3.7,7.1-0.2c0.2,0.9-0.1,1.4-0.6,2.2c-1.6,2.7-4.4,4.3-7.5,4.1c0.2,0.4,0.4,0.9,0.5,1.3c1.1-1.1,2.2-2.7,2.1-4.3
				c0-0.6-1.6-3.1-1.5-3.2C17.6,26.1,16.5,25,15.8,25.6z"/>
		</g>
	</g>
	<g>
		<path fill="#FFFFFF" d="M34.1,26.2c1.2,0.7-1.4,2.5-1.3,3.9c0.1,1.4,0.8,2.8,1.9,3.7c-1.9,0.2-3.9-0.4-5.5-1.6
			c-1.6-1.1-2.8-2.8-3.5-4.6C25.7,27.6,25.5,20.9,34.1,26.2z"/>
		<g>
			<path fill="#FFFFFF" d="M33.6,26.7c0.1,0.1-1.5,2.7-1.5,3.2c-0.1,1.6,0.9,3.3,2.1,4.3c0.2-0.4,0.4-0.9,0.5-1.3
				c-3,0.2-5.7-1.3-7.4-3.9c-0.6-0.9-1-1.4-0.7-2.4c0.8-3.5,5.3-0.9,7.1,0.2c0.8,0.5,1.6-0.8,0.8-1.3c-2.8-1.7-8.2-4-9.3,0.7
				c-0.4,1.5,0.2,2.5,1,3.8c1.9,2.9,5,4.6,8.5,4.4c0.6,0,1-0.8,0.5-1.3c-0.9-0.8-1.9-2.2-1.6-3.4c0.2-0.7,0.7-1.2,1.1-1.8
				c0.5-0.8,0.7-1.6-0.1-2.3C33.9,25,32.8,26.1,33.6,26.7z"/>
		</g>
	</g>
	<g>
		<path fill="#FFFFFF" d="M56.8,19.4H59v3.3h2.9v-3.3h2.3v8.9h-2.3v-3.5H59v3.5h-2.3V19.4z"/>
		<path fill="#FFFFFF" d="M68,19.4v5.4c0,0.6,0,1.7,1.2,1.7c1.1,0,1.1-1,1.1-1.7v-5.4h2.3v5.4c0,1.5-0.3,2.1-0.9,2.7
			c-0.6,0.6-1.4,1-2.5,1c-0.6,0-1.8-0.2-2.6-0.9c-0.7-0.8-0.9-1.4-0.9-2.7v-5.4H68z"/>
		<path fill="#FFFFFF" d="M74.2,19.4h2.7c1.5,0,2.2,0.1,2.8,0.9c0.4,0.4,0.5,0.9,0.5,1.5c0,0.7-0.3,1.4-1,1.8
			c1.4,0.5,1.5,1.7,1.5,2.1c0,0.7-0.3,1.5-0.8,1.9c-0.8,0.7-1.4,0.8-2.9,0.8h-2.8V19.4z M76.4,22.8h0.8c0.3,0,1,0,1-0.7
			c0-0.7-0.6-0.7-1-0.7h-0.8V22.8z M76.4,26.3h1.1c0.3,0,1.1,0,1.1-0.9c0-0.8-0.8-0.8-1.1-0.8h-1.1V26.3z"/>
		<path fill="#FFFFFF" d="M84,27l-0.5,1.3h-2.4l3.6-8.9h1.8l3.5,8.9h-2.5L87.1,27H84z M84.7,25.2h1.9l-0.9-3h0h0L84.7,25.2z"/>
		<path fill="#FFFFFF" d="M91,19.4h2.3v6.9h2.6v2H91V19.4z"/>
		<path fill="#FFFFFF" d="M101.1,19.3c2.7,0,4.7,2.1,4.7,4.6s-1.9,4.6-4.7,4.6c-2.8,0-4.7-2.2-4.7-4.5c0-0.6,0.1-1.2,0.3-1.9
			C97.2,20.9,98.6,19.3,101.1,19.3z M101.1,26.5c1.6,0,2.4-1.5,2.4-2.6c0-1.2-0.8-2.6-2.4-2.6c-1.6,0-2.4,1.3-2.4,2.6
			C98.7,25.2,99.6,26.5,101.1,26.5z"/>
		<path fill="#FFFFFF" d="M111.3,19.3c2.7,0,4.7,2.1,4.7,4.6s-1.9,4.6-4.7,4.6c-2.8,0-4.7-2.2-4.7-4.5c0-0.6,0.1-1.2,0.3-1.9
			C107.4,20.9,108.8,19.3,111.3,19.3z M111.3,26.5c1.6,0,2.4-1.5,2.4-2.6c0-1.2-0.8-2.6-2.4-2.6c-1.6,0-2.4,1.3-2.4,2.6
			C108.9,25.2,109.8,26.5,111.3,26.5z"/>
	</g>
</g>
</svg>
