<?xml version="1.0" encoding="utf-8"?>
<!-- Generator: Adobe Illustrator 18.1.0, SVG Export Plug-In . SVG Version: 6.00 Build 0)  -->
<!DOCTYPE svg PUBLIC "-//W3C//DTD SVG 1.1//EN" "http://www.w3.org/Graphics/SVG/1.1/DTD/svg11.dtd">
<svg version="1.1" xmlns="http://www.w3.org/2000/svg" xmlns:xlink="http://www.w3.org/1999/xlink" x="0px" y="0px"
	 viewBox="0 0 982.5 270" enable-background="new 0 0 982.5 270" xml:space="preserve">
<g id="Layer_1">
	<g>
		<path fill="#F47B20" d="M303.7,115c0,0,21.4,3.5,24.1,20.6c0.3,2,2,3.6,4.1,3.6h3.9c2.4,0,4.4-2.1,4.1-4.5
			c-0.8-8.8-6.4-27.7-38.6-32.9C259,95,303.7,115,303.7,115z"/>
		
			<ellipse transform="matrix(0.964 0.266 -0.266 0.964 23.7666 -33.8063)" fill="#F47B20" stroke="#FFFFFF" stroke-width="6" stroke-miterlimit="10" cx="136.7" cy="70.8" rx="35.7" ry="38"/>
		<path fill="#F47B20" d="M113.7,125.1c0,0-40.9-7.1-46-42.4c-0.6-4.2-3.9-7.3-7.8-7.3h-7.4c-4.7,0-8.3,4.3-7.9,9.3
			c1.6,18,12.3,56.8,73.6,67.5C199,166.3,113.7,125.1,113.7,125.1z"/>
		<path fill="#F47B20" stroke="#FFFFFF" stroke-width="8" stroke-miterlimit="10" d="M238.8,62.8L238.8,62.8
			c-45.1,0-81.6,39.4-81.6,88l0,43.5c0,4.3,0.3,8.6,0.9,12.8c0.7,5.5,5.4,9.6,10.9,9.6h24.2c5.1,0,9.5-3.5,10.7-8.5
			c4-16.8,18.1-29.1,34.9-29.1h0c16.8,0,31,12.4,35,29.2c1.2,4.9,5.5,8.4,10.5,8.4h24.5c5.4,0,10-4,10.7-9.4
			c0.6-4.2,0.9-8.5,0.9-12.9l0-43.5C320.4,102.2,283.9,62.8,238.8,62.8z"/>
		<circle fill="#F47B20" stroke="#FFFFFF" stroke-width="8" stroke-miterlimit="10" cx="157.8" cy="108.6" r="58"/>
		
			<ellipse transform="matrix(0.964 0.266 -0.266 0.964 39.3836 -51.1274)" fill="#F47B20" stroke="#FFFFFF" stroke-width="8" stroke-miterlimit="10" cx="208.4" cy="119.8" rx="35.7" ry="38"/>
		<circle fill="#FFFFFF" cx="145.8" cy="139.3" r="12"/>
	</g>
</g>
<g id="_x3C_Layer_x3E_">
	<g>
		<path fill="#6D6E71" d="M375.1,101.2H398v30.4h22.7v-30.4h22.9v80.2h-22.9v-31.9H398v31.9h-22.9V101.2z"/>
		<path fill="#6D6E71" d="M525.4,152.6c0,14.4-7.2,30.2-34.2,30.2c-26.5,0-32.9-16.2-32.9-29.2v-52.5h22.9v50.5c0,11,7.2,14,12.7,14
			c8.9,0,13.8-4.1,13.8-16.4v-48.1h17.6V152.6z"/>
		<path fill="#6D6E71" d="M540.2,101.2h39.1c18.1,0,30,7.6,30,21c0,9.5-7.6,15.3-16,17.7v0.2c10.1,2.1,18,8.8,18,19.7
			c0,10.3-5.8,21.5-29.2,21.5h-42V101.2z M563.1,133h11.7c5.8,0,11.7-1.8,11.7-8.6c0-6.6-6.2-8.6-11.7-8.6h-11.7V133z M563.1,166.7
			H576c5.6,0,11.1-2.5,11.1-8.9c0-7.2-4.7-8.9-11.1-8.9h-12.9V166.7z"/>
		<path fill="#6D6E71" d="M644.4,101.2h24.7l27.5,80.2h-23.9l-4.8-15.3h-27.4l-5.2,15.3h-18.1L644.4,101.2z M645.7,149.5h17.1
			l-8.1-26.2h-0.2L645.7,149.5z"/>
		<path fill="#6D6E71" d="M704.6,101.2h22.9v63H761v17.2h-56.4V101.2z"/>
		<path fill="#6D6E71" d="M804.4,182.9c-23.9,0-38.3-16-38.3-41.6c0-25.6,14.4-41.6,38.3-41.6s38.3,16,38.3,41.6
			C842.7,166.8,828.3,182.9,804.4,182.9z M790.3,141.3c0,21.5,6.3,25.7,14.1,25.7c7.7,0,14.1-4.1,14.1-25.7
			c0-20.4-5.2-25.7-14.1-25.7C795.2,115.6,790.3,121.9,790.3,141.3z"/>
		<path fill="#6D6E71" d="M886.9,182.9c-23.9,0-38.3-16-38.3-41.6c0-25.6,14.4-41.6,38.3-41.6c23.9,0,38.3,16,38.3,41.6
			C925.2,166.8,910.8,182.9,886.9,182.9z M872.8,141.3c0,21.5,6.3,25.7,14.1,25.7c7.7,0,14.1-4.1,14.1-25.7
			c0-20.4-5.2-25.7-14.1-25.7C877.7,115.6,872.8,121.9,872.8,141.3z"/>
	</g>
</g>
</svg>
