<?xml version="1.0" encoding="utf-8"?>
<!-- Generator: Adobe Illustrator 18.1.0, SVG Export Plug-In . SVG Version: 6.00 Build 0)  -->
<!DOCTYPE svg PUBLIC "-//W3C//DTD SVG 1.1//EN" "http://www.w3.org/Graphics/SVG/1.1/DTD/svg11.dtd">
<svg version="1.1" xmlns="http://www.w3.org/2000/svg" xmlns:xlink="http://www.w3.org/1999/xlink" x="0px" y="0px"
	 viewBox="0 0 50 50" enable-background="new 0 0 50 50" xml:space="preserve">
<g id="Layer_1">
</g>
<g id="Layer_3">
	<g>
		<path fill="none" stroke="#FFFFFF" stroke-width="2" stroke-linecap="round" stroke-linejoin="round" stroke-miterlimit="10" d="
			M23.6,27.7c-1.1,5-9.1,12.4-16.1,2.8c0,0,4.7-5.7,3.1-9.5c-0.1-0.3-1.3-2.8-1.3-3.9c0-2.9,2.9-4.9,6.5-5.3
			c5.5-0.5,6.8,5.3,6.9,5.5C22.6,17.4,24.8,22.7,23.6,27.7z"/>
		<path fill="#FFFFFF" stroke="#FFFFFF" stroke-linecap="round" stroke-linejoin="round" stroke-miterlimit="10" d="M5.5,20.8
			c1,0.3,2,0.7,3.1,1s2.2,0.1,3-0.6c-1.1-0.7-1.9-1.7-2.3-2.9c-0.3,0.1-0.6,0.4-0.8,0.6C7.7,19.8,6.7,20.6,5.5,20.8z"/>
		<path fill="#FFFFFF" stroke="#FFFFFF" stroke-linecap="round" stroke-linejoin="round" stroke-miterlimit="10" d="M12.8,12.8
			c0,0,3.8-1.8,5.2-0.5s5.3,5.9,5,9.6c0,0-5,1.8-8.5,1.1s-3.8-1.3-3.8-1.3s-1-1.3,0.2-0.9c1.1,0.4,7.9,2.2,9-1.2
			C21,16.1,18.2,12,12.8,12.8z"/>
		<path fill="#FFFFFF" stroke="#FFFFFF" stroke-miterlimit="10" d="M10.8,34c-0.2-0.5-0.7-0.9-1.1-0.9c-0.1,0-0.2-0.1-0.2-0.2
			c-1,0-2,0-2.8,0.6c-0.1,0.1-0.3,0.3-0.2,0.4C6.5,34,6.6,34,6.7,34C8.1,34,9.5,33.6,10.8,34z"/>
		<path fill="none" stroke="#FFFFFF" stroke-width="2" stroke-linecap="round" stroke-linejoin="round" stroke-miterlimit="10" d="
			M25.5,27.7c1.1,5,9.1,12.4,16.1,2.8c0,0-4.7-5.7-3.1-9.5c0.1-0.3,1.3-2.8,1.3-3.9c0-2.9-2.9-4.9-6.5-5.3c-5.5-0.5-6.8,5.3-6.9,5.5
			C26.5,17.4,24.3,22.7,25.5,27.7z"/>
		<path fill="#FFFFFF" stroke="#FFFFFF" stroke-linecap="round" stroke-linejoin="round" stroke-miterlimit="10" d="M43.6,20.8
			c-1,0.3-2,0.7-3.1,1c-1,0.2-2.2,0.1-3-0.6c1.1-0.7,1.9-1.7,2.3-2.9c0.3,0.1,0.6,0.4,0.8,0.6C41.4,19.8,42.4,20.6,43.6,20.8z"/>
		<path fill="#FFFFFF" stroke="#FFFFFF" stroke-linecap="round" stroke-linejoin="round" stroke-miterlimit="10" d="M36.3,12.8
			c0,0-3.8-1.8-5.2-0.5s-5.3,5.9-5,9.6c0,0,5,1.8,8.5,1.1c3.6-0.7,3.8-1.3,3.8-1.3s1-1.3-0.2-0.9c-1.1,0.4-7.9,2.2-9-1.2
			C28.1,16.1,30.9,12,36.3,12.8z"/>
		<path fill="#FFFFFF" stroke="#FFFFFF" stroke-miterlimit="10" d="M38.2,34c0.2-0.5,0.6-0.9,1.1-0.9c0.1,0,0.2-0.1,0.2-0.2
			c0.9,0,1.9,0,2.7,0.6c0.1,0.1,0.3,0.3,0.2,0.4c0,0.1-0.2,0.1-0.2,0.1C40.9,34,39.5,33.6,38.2,34z"/>
		<path fill="none" stroke="#FFFFFF" stroke-width="2" stroke-miterlimit="10" d="M31.8,12c0,3-15.1,3-15.1,0c0-4,3.4-7.5,7.5-7.5
			S31.8,8,31.8,12z"/>
		<path fill="#FFFFFF" stroke="#FFFFFF" stroke-linecap="round" stroke-linejoin="round" stroke-miterlimit="10" d="M18.5,7
			c0,0,5.4-3,5.9,4.7c0,0,0.7-6.9,5.8-4.6C30.2,7.1,25.7,0,18.5,7z"/>
		<g>
			<path fill="#FFFFFF" d="M17.6,23.2c-0.9,0.6,1.1,1.9,1,3c-0.1,1.1-0.6,2.1-1.4,2.8c1.5,0.1,3-0.3,4.2-1.2
				c1.2-0.9,2.1-2.1,2.6-3.5C24,24.3,24.2,19.1,17.6,23.2z"/>
			<g>
				<path fill="#FFFFFF" d="M17.1,22.7c-0.7,0.6-0.5,1.3-0.1,2c0.2,0.4,0.6,0.8,0.8,1.2c0.3,0.9-0.5,2-1.1,2.6
					c-0.5,0.5-0.1,1.2,0.5,1.3c2.6,0.1,5.1-1.1,6.5-3.3c0.7-1,1.2-2,0.9-3.2c-0.9-3.7-5.2-2-7.4-0.7c-0.8,0.5-0.1,1.8,0.8,1.3
					c1.3-0.8,4.6-2.7,5.2-0.2c0.2,0.6-0.1,0.9-0.4,1.6c-1.2,2-3.2,3.2-5.6,3.1c0.2,0.4,0.4,0.9,0.5,1.3c0.9-0.8,1.7-2.1,1.7-3.4
					c0-0.4-1-2.5-1.2-2.3C18.9,23.1,17.8,22.1,17.1,22.7z"/>
			</g>
		</g>
		<g>
			<path fill="#FFFFFF" d="M31.2,23.2c0.9,0.6-1.1,1.9-1,3c0.1,1.1,0.6,2.1,1.4,2.8c-1.5,0.1-3-0.3-4.2-1.2
				c-1.2-0.9-2.1-2.1-2.6-3.5C24.8,24.3,24.6,19.1,31.2,23.2z"/>
			<g>
				<path fill="#FFFFFF" d="M30.6,23.7c-0.2-0.1-1.2,1.9-1.2,2.3c-0.1,1.3,0.7,2.6,1.7,3.4c0.2-0.4,0.4-0.9,0.5-1.3
					c-2.3,0.1-4.3-1-5.5-2.9c-0.4-0.7-0.7-1-0.5-1.7c0.6-2.5,3.9-0.5,5.2,0.2c0.8,0.5,1.6-0.8,0.8-1.3c-2.2-1.3-6.5-3.1-7.4,0.7
					c-0.3,1.2,0.1,2,0.8,3.1c1.5,2.2,3.9,3.6,6.7,3.5c0.6,0,1-0.8,0.5-1.3c-0.6-0.6-1.4-1.5-1.2-2.4c0.1-0.5,0.6-0.9,0.8-1.4
					c0.4-0.7,0.6-1.4-0.1-2C31,22.1,29.9,23.1,30.6,23.7z"/>
			</g>
		</g>
	</g>
	<g>
		<path fill="#FFFFFF" d="M4.1,39.5h1.6v2.4h2.1v-2.4h1.6v6.3H7.7v-2.5H5.7v2.5H4.1V39.5z"/>
		<path fill="#FFFFFF" d="M12.1,39.5v3.8c0,0.4,0,1.2,0.8,1.2c0.8,0,0.8-0.7,0.8-1.2v-3.8h1.6v3.8c0,1.1-0.2,1.5-0.6,1.9
			c-0.4,0.4-1,0.7-1.8,0.7c-0.5,0-1.3-0.1-1.8-0.7c-0.5-0.6-0.6-1-0.6-2v-3.8H12.1z"/>
		<path fill="#FFFFFF" d="M16.5,39.5h2c1.1,0,1.6,0.1,2,0.6c0.3,0.3,0.4,0.7,0.4,1c0,0.5-0.2,1-0.7,1.3c1,0.4,1,1.2,1,1.5
			c0,0.5-0.2,1.1-0.6,1.4c-0.6,0.5-1,0.5-2.1,0.5h-2V39.5z M18,41.9h0.6c0.2,0,0.7,0,0.7-0.5c0-0.5-0.4-0.5-0.7-0.5H18V41.9z
			 M18,44.4h0.8c0.2,0,0.8,0,0.8-0.6c0-0.5-0.5-0.5-0.8-0.5H18V44.4z"/>
		<path fill="#FFFFFF" d="M23.5,44.9l-0.3,0.9h-1.7l2.5-6.3h1.3l2.5,6.3H26l-0.3-0.9H23.5z M24,43.6h1.3l-0.7-2.2h0h0L24,43.6z"/>
		<path fill="#FFFFFF" d="M28.5,39.5h1.6v4.9H32v1.4h-3.5V39.5z"/>
		<path fill="#FFFFFF" d="M35.7,39.4c2,0,3.3,1.5,3.3,3.3c0,1.8-1.4,3.3-3.4,3.3c-2,0-3.3-1.6-3.3-3.2c0-0.4,0.1-0.9,0.2-1.4
			C32.9,40.5,33.9,39.4,35.7,39.4z M35.7,44.5c1.1,0,1.7-1,1.7-1.9c0-0.8-0.6-1.9-1.7-1.9c-1.1,0-1.7,1-1.7,1.8
			C33.9,43.6,34.6,44.5,35.7,44.5z"/>
		<path fill="#FFFFFF" d="M42.9,39.4c2,0,3.3,1.5,3.3,3.3c0,1.8-1.4,3.3-3.4,3.3c-2,0-3.3-1.6-3.3-3.2c0-0.4,0.1-0.9,0.2-1.4
			C40.2,40.5,41.2,39.4,42.9,39.4z M43,44.5c1.1,0,1.7-1,1.7-1.9c0-0.8-0.6-1.9-1.7-1.9c-1.1,0-1.7,1-1.7,1.8
			C41.2,43.6,41.9,44.5,43,44.5z"/>
	</g>
	<g>
	</g>
	<g>
	</g>
	<g>
	</g>
	<g>
	</g>
	<g>
	</g>
	<g>
	</g>
	<g>
	</g>
	<g>
	</g>
	<g>
	</g>
	<g>
	</g>
	<g>
	</g>
	<g>
	</g>
	<g>
	</g>
	<g>
	</g>
	<g>
	</g>
</g>
</svg>
