<?xml version="1.0" encoding="utf-8"?>
<!-- Generator: Adobe Illustrator 18.1.0, SVG Export Plug-In . SVG Version: 6.00 Build 0)  -->
<!DOCTYPE svg PUBLIC "-//W3C//DTD SVG 1.1//EN" "http://www.w3.org/Graphics/SVG/1.1/DTD/svg11.dtd">
<svg version="1.1" xmlns="http://www.w3.org/2000/svg" xmlns:xlink="http://www.w3.org/1999/xlink" x="0px" y="0px"
	 viewBox="0 0 71.4 127.7" enable-background="new 0 0 71.4 127.7" xml:space="preserve">
<g id="Layer_1">
</g>
<g id="Layer_3">
	<path fill="none" stroke="#FFFFFF" stroke-width="3" stroke-miterlimit="10" d="M25.7,32.7c3.8,6.5,1.9,14.6-4.2,18.2
		c-0.7,0.4-1.4,0.7-2.1,1c-5.8,2-12.5-0.4-15.9-6.2c-3.8-6.5-1.9-14.6,4.2-18.2S21.9,26.2,25.7,32.7z"/>
	<path fill="none" stroke="#FFFFFF" stroke-miterlimit="10" d="M23.3,34.6c2.9,5,1.5,11.3-3.3,14.1c-0.5,0.3-1.1,0.6-1.6,0.8
		c-4.4,1.6-9.6-0.3-12.2-4.8c-2.9-5-1.5-11.3,3.3-14.1S20.3,29.6,23.3,34.6z"/>
	<circle fill="none" stroke="#FFFFFF" stroke-width="2" stroke-miterlimit="10" cx="16.9" cy="37.1" r="2.1"/>
	<circle fill="none" stroke="#FFFFFF" stroke-width="2" stroke-miterlimit="10" cx="37.8" cy="13.7" r="2.1"/>
	<path fill="none" stroke="#FFFFFF" stroke-width="3" stroke-linecap="round" stroke-linejoin="round" stroke-miterlimit="10" d="
		M102.3,66.7c11.7,20,6.9,44.5-10.8,54.9c-17.7,10.4-41.3,2.5-53-17.5c-3.7-6.4-6.1-20-6.1-20c-2.1-8.1-13.8-25.3-18.6-32
		c0,0-0.1,0-0.1,0c-1.4-1.7-2.7-3.5-3.8-5.5C0.1,30.2,2.1,11.2,14.1,4.1c10.7-6.3,25.7-1,35.7,11.8l0,0c0,0,15.5,18.7,36.8,34.7
		c1.9,1.4,3.8,2.8,5.7,4.1C96.1,58,99.5,62,102.3,66.7z"/>
	
		<path fill="#FFFFFF" stroke="#FFFFFF" stroke-width="0.75" stroke-linecap="round" stroke-linejoin="round" stroke-miterlimit="10" d="
		M5.5,39c0,0,1.6-23.1,28.9-13.6c0,0,2.4,0.3-0.5-2.8c-2.7-2.8-5.8-13.8-2.1-20.7c0,0-14.4-4.4-24.6,7.3S5.5,39,5.5,39z"/>
	
		<path fill="none" stroke="#FFFFFF" stroke-width="2" stroke-linecap="round" stroke-linejoin="round" stroke-miterlimit="10" stroke-dasharray="0.1,2.5" d="
		M27.7,47.2c0,0,26.1,27.6,2.2,33.2"/>
</g>
</svg>
