<?xml version="1.0" encoding="utf-8"?>
<!-- Generator: Adobe Illustrator 18.1.0, SVG Export Plug-In . SVG Version: 6.00 Build 0)  -->
<!DOCTYPE svg PUBLIC "-//W3C//DTD SVG 1.1//EN" "http://www.w3.org/Graphics/SVG/1.1/DTD/svg11.dtd">
<svg version="1.1" xmlns="http://www.w3.org/2000/svg" xmlns:xlink="http://www.w3.org/1999/xlink" x="0px" y="0px"
	 viewBox="0 0 100 100" enable-background="new 0 0 100 100" xml:space="preserve">
<g id="Layer_1">
</g>
<g id="Layer_3">
	<g>
		<g>
			<path d="M50.2,100c-8.8,0-16.4-4.9-19-12.2c-0.4-0.6-0.6-1.3-0.9-2.2c-0.9-3.6-0.8-7.8,0.2-12.3c0.7-3,1.7-6.2,3.2-10.1
				c0.6-10,7.9-17.8,16.9-17.8c8.2,0,15.8,7.9,17,17.7c0.8,2.2,1.1,4.1,1.4,6c0.1,0.9,0.3,1.8,0.5,2.8c0.1,0.6,0.2,1.2,0.4,1.7
				c0.3,1.4,0.6,2.7,0.7,4.2c0.2,2.1,0.1,4.3-0.4,6.3c0,0.1-0.1,0.3-0.1,0.4C68.9,93.4,60.4,100,50.2,100z M50.6,47
				c-8.1,0-14.8,7.2-15.3,16.4c0,0.1,0,0.2-0.1,0.3c-1.5,3.8-2.5,7-3.2,10c-1,4.3-1.1,8.2-0.2,11.6c0.2,0.8,0.4,1.4,0.7,1.8
				c0,0.1,0.1,0.1,0.1,0.2c2.3,6.6,9.5,11.2,17.6,11.2c9.4,0,17.3-6.1,18.3-14.2c0-0.1,0-0.1,0-0.1c0-0.1,0.1-0.3,0.1-0.4
				c0.4-1.9,0.6-3.9,0.4-5.8c-0.1-1.3-0.4-2.7-0.7-4c-0.1-0.6-0.3-1.2-0.4-1.8c-0.2-1-0.3-1.9-0.5-2.8c-0.3-2-0.6-3.7-1.4-5.8
				c0-0.1,0-0.1,0-0.2C64.9,54.4,58,47,50.6,47z"/>
		</g>
		<g>
			<path d="M62.3,51.9c-0.9-0.9-1.9-1.5-3-2.1c-1.3-0.7-2.6-1.5-3.9-2.2c-0.7-0.4-1.5-0.8-2.3-1.1c-1.5-0.4-3.1-0.1-4.6,0.3
				c-1.9,0.5-3.8,1.2-5.7,2c-1.1,0.5-2.1,1-2.9,1.8c-0.6,0.6-1.1,1.4-1.5,2.2c-0.7,1.4-1.4,2.7-2.1,4.1c-0.2,0.5-0.5,1.1-0.3,1.6
				c0.6-0.8,1.5-1.4,2.5-1.5c1.6-0.2,3.2,0.7,4.3,2c1.1,1.2,1.7,2.8,2.3,4.3c1.4,3.2,2.9,6.2,4.6,9.2c0.2,0.3,0.4,0.7,0.8,0.7
				c0.3,0,0.6-0.2,0.8-0.5c0.6-0.8,1.1-1.7,1.5-2.6c1.6-3.1,3.4-6.1,5.4-9c0.7-1,1.5-2,2.6-2.7c1.5-0.9,3.5-1,5.1-0.2
				c-0.2-1.5-1-2.8-1.8-4C63.6,53.5,63,52.6,62.3,51.9z"/>
		</g>
		<g>
			<path d="M38.3,65.9c-1.2,0-2.2-1-2.2-2.2c0-1.2,1-2.2,2.2-2.2s2.2,1,2.2,2.2C40.5,64.9,39.6,65.9,38.3,65.9z M38.3,63.1
				c-0.3,0-0.6,0.3-0.6,0.6c0,0.3,0.3,0.6,0.6,0.6c0.3,0,0.6-0.3,0.6-0.6C38.9,63.4,38.7,63.1,38.3,63.1z"/>
		</g>
		<g>
			<path d="M63.2,65.9c-1.2,0-2.2-1-2.2-2.2c0-1.2,1-2.2,2.2-2.2c1.2,0,2.2,1,2.2,2.2C65.4,64.9,64.4,65.9,63.2,65.9z M63.2,63.1
				c-0.3,0-0.6,0.3-0.6,0.6c0,0.3,0.3,0.6,0.6,0.6c0.3,0,0.6-0.3,0.6-0.6C63.7,63.4,63.5,63.1,63.2,63.1z"/>
		</g>
		<g>
			<path d="M50.2,100c-13.3,0-24.9-8.9-28.8-22.3c-0.5-1-0.9-2.3-1.3-4c-1.3-6.6-1.2-14.2,0.4-22.4c1-5.6,2.6-11.5,4.9-18.7
				C26.1,14.5,37.3,0.3,50.8,0.3c13.3,0,23.1,17.4,24.7,33.5l0.4,1.3c1.5,4.9,2.4,7.9,3.3,13.6c0.2,1.1,0.4,2.2,0.6,3.2
				c0.4,2.5,0.9,5,1.1,7.6c0.3,3.9,0.1,7.7-0.6,11.5c-0.1,0.3-0.1,0.5-0.2,0.8C78.5,87.9,65.6,100,50.2,100z M50.8,1.9
				c-12.6,0-23.1,13.6-23.8,31c0,0.1,0,0.1,0,0.2c-2.3,7.2-3.8,13.1-4.9,18.6c-1.5,8.1-1.6,15.4-0.4,21.8c0.3,1.5,0.7,2.7,1.1,3.6
				c0,0,0,0.1,0.1,0.1c3.7,12.7,14.7,21.2,27.3,21.2c14.7,0,26.9-11.5,28.4-26.8c0,0,0-0.1,0-0.1c0.1-0.3,0.1-0.5,0.2-0.8
				c0.7-3.6,0.9-7.3,0.6-11c-0.2-2.5-0.7-5-1.1-7.5c-0.2-1.1-0.4-2.2-0.6-3.3c-0.9-5.6-1.8-8.5-3.3-13.4l-0.4-1.4c0-0.1,0-0.1,0-0.2
				C72.4,18.5,63.1,1.9,50.8,1.9z"/>
		</g>
		<g>
			<path d="M64.1,6.9c-2-1.2-4-2.4-6-3.7c-1.1-0.7-2.3-1.4-3.6-1.7c-2.3-0.6-4.7-0.1-7,0.5c-3,0.9-5.9,1.9-8.7,3.2
				c-1.6,0.7-3.3,1.6-4.5,2.9c-1,1-1.7,2.3-2.3,3.6c-1.1,2.2-2.2,4.5-3.2,6.8c-0.4,0.8-0.7,1.8-0.5,2.7c0.9-1.3,2.4-2.2,3.9-2.4
				c2.5-0.3,4.9,1.2,6.5,3.2s2.6,4.6,3.6,7c2.1,5.2,4.4,10.2,7,15.1c0.3,0.5,0.7,1.1,1.2,1.2c0.5,0,0.9-0.4,1.2-0.8
				c1-1.3,1.6-2.8,2.3-4.2c2.4-5.2,5.2-10.1,8.3-14.7c1.1-1.7,2.4-3.3,4-4.4c2.3-1.5,2.5-2.8,4.9-1.5C70.9,17.4,65.8,7.9,64.1,6.9z"
				/>
		</g>
		<g>
			<path d="M31.9,36.4c-1.4,0-2.5-1.1-2.5-2.5c0-1.4,1.1-2.5,2.5-2.5c1.4,0,2.5,1.1,2.5,2.5C34.4,35.3,33.2,36.4,31.9,36.4z
				 M31.9,33c-0.5,0-0.9,0.4-0.9,0.9c0,0.5,0.4,0.9,0.9,0.9c0.5,0,0.9-0.4,0.9-0.9C32.7,33.4,32.3,33,31.9,33z"/>
		</g>
		<g>
			<path d="M69,38c-1.4,0-2.5-1.1-2.5-2.5c0-1.4,1.1-2.5,2.5-2.5s2.5,1.1,2.5,2.5C71.5,36.9,70.4,38,69,38z M69,34.7
				c-0.5,0-0.9,0.4-0.9,0.9c0,0.5,0.4,0.9,0.9,0.9s0.9-0.4,0.9-0.9C69.9,35.1,69.5,34.7,69,34.7z"/>
		</g>
		<g>
			<path d="M29.3,91.7c-1.7-0.4-3.4-0.8-5.1-0.5c-1.7,0.4-3.3,1.7-3.3,3.5c0,0.5,0.1,1.1,0.5,1.5c0.3,0.3,0.7,0.4,1.1,0.6
				c2,0.6,4.1,0.6,6-0.1c2.1-0.7,4.4-2.2,6.4-1.4c-1.5-1.9-3.7-3.4-6-4"/>
		</g>
		<g>
			<path d="M69.3,92.5c1.7-0.4,3.4-0.8,5.1-0.5c1.7,0.4,3.3,1.7,3.3,3.5c0,0.5-0.1,1.1-0.5,1.5c-0.3,0.3-0.7,0.4-1.1,0.6
				c-2,0.6-4.1,0.6-6-0.1c-2.1-0.7-4.4-2.2-6.4-1.4c1.5-1.9,3.7-3.4,6-4"/>
		</g>
		<g>
			<path d="M24,39.9c0,0,5.1,32.8,14.3,41.5c0,0,5.5,7.9-2.5,5c-8-2.8-14.6-11.3-14.6-11.3S17,60.7,24,39.9z"/>
		</g>
		<g>
			<path d="M75.7,39.1c0,0-5.1,32.8-14.3,41.5c0,0-5.5,7.9,2.5,5c8-2.8,14.6-11.3,14.6-11.3S82.6,59.9,75.7,39.1z"/>
		</g>
	</g>
</g>
</svg>
