<?xml version="1.0" encoding="utf-8"?>
<!-- Generator: Adobe Illustrator 18.1.0, SVG Export Plug-In . SVG Version: 6.00 Build 0)  -->
<!DOCTYPE svg PUBLIC "-//W3C//DTD SVG 1.1//EN" "http://www.w3.org/Graphics/SVG/1.1/DTD/svg11.dtd">
<svg version="1.1" xmlns="http://www.w3.org/2000/svg" xmlns:xlink="http://www.w3.org/1999/xlink" x="0px" y="0px"
	 viewBox="0 0 100 100" enable-background="new 0 0 100 100" xml:space="preserve">
<g id="Layer_1">
</g>
<g id="Layer_3">
	<g>
		<path d="M31.2,99c-8.6,0-16-4.8-18.6-11.9c-0.4-0.6-0.6-1.3-0.8-2.2c-0.9-3.6-0.8-7.6,0.2-12c0.7-2.9,1.7-6.1,3.1-9.8
			c0.5-9.8,7.8-17.4,16.5-17.4c8,0,15.4,7.7,16.6,17.3c0.8,2.2,1.1,4,1.4,5.9c0.1,0.8,0.3,1.7,0.5,2.7c0.1,0.6,0.2,1.1,0.4,1.7
			c0.3,1.3,0.6,2.7,0.7,4.1c0.2,2.1,0.1,4.2-0.4,6.2c0,0.1-0.1,0.3-0.1,0.4C49.5,92.5,41.2,99,31.2,99z M31.6,47.3
			c-7.9,0-14.5,7-14.9,16c0,0.1,0,0.2-0.1,0.2c-1.5,3.8-2.4,6.9-3.1,9.7c-1,4.2-1,8-0.2,11.3c0.2,0.8,0.4,1.3,0.7,1.8
			c0,0.1,0.1,0.1,0.1,0.2c2.3,6.4,9.3,11,17.1,11c9.2,0,16.9-5.9,17.8-13.8c0-0.1,0-0.1,0-0.1c0-0.1,0.1-0.2,0.1-0.4
			c0.4-1.9,0.6-3.8,0.4-5.7c-0.1-1.3-0.4-2.6-0.7-3.9c-0.1-0.6-0.2-1.2-0.4-1.7c-0.2-1-0.3-1.9-0.5-2.8c-0.3-1.9-0.6-3.6-1.3-5.6
			c0-0.1,0-0.1,0-0.2C45.6,54.4,38.9,47.3,31.6,47.3z"/>
	</g>
	<g>
		<path d="M43.1,52c-0.8-0.9-1.9-1.5-2.9-2c-1.3-0.7-2.6-1.5-3.8-2.2c-0.7-0.4-1.5-0.8-2.3-1c-1.5-0.4-3-0.1-4.5,0.3
			c-1.9,0.5-3.8,1.2-5.6,1.9c-1,0.4-2.1,0.9-2.9,1.7c-0.6,0.6-1.1,1.4-1.5,2.2c-0.7,1.3-1.4,2.7-2,4c-0.2,0.5-0.5,1-0.3,1.6
			c0.6-0.8,1.5-1.3,2.5-1.4c1.6-0.2,3.1,0.7,4.2,1.9c1,1.2,1.6,2.7,2.3,4.2c1.3,3.1,2.8,6.1,4.5,9c0.2,0.3,0.4,0.7,0.8,0.7
			c0.3,0,0.6-0.2,0.8-0.5c0.6-0.7,1-1.6,1.5-2.5c1.5-3.1,3.3-6,5.3-8.8c0.7-1,1.5-2,2.6-2.6c1.5-0.9,3.4-1,5-0.2
			c-0.2-1.4-1-2.7-1.7-3.9C44.3,53.6,43.8,52.7,43.1,52z"/>
	</g>
	<g>
		<path d="M19.6,65.7c-1.2,0-2.2-1-2.2-2.2c0-1.2,1-2.2,2.2-2.2c1.2,0,2.2,1,2.2,2.2C21.8,64.8,20.8,65.7,19.6,65.7z M19.6,63
			c-0.3,0-0.6,0.3-0.6,0.6s0.3,0.6,0.6,0.6c0.3,0,0.6-0.3,0.6-0.6S20,63,19.6,63z"/>
	</g>
	<g>
		<path d="M43.9,65.7c-1.2,0-2.2-1-2.2-2.2c0-1.2,1-2.2,2.2-2.2s2.2,1,2.2,2.2C46,64.8,45.1,65.7,43.9,65.7z M43.9,63
			c-0.3,0-0.6,0.3-0.6,0.6s0.3,0.6,0.6,0.6s0.6-0.3,0.6-0.6S44.2,63,43.9,63z"/>
	</g>
	<g>
		<path stroke="#000000" stroke-miterlimit="10" d="M31.2,99c-13,0-24.3-8.7-28.1-21.8c-0.5-1-0.9-2.3-1.2-3.9
			c-1.3-6.5-1.2-13.9,0.4-21.9c1-5.4,2.5-11.2,4.8-18.2C7.7,15.5,18.6,1.6,31.8,1.6c12.9,0,22.6,17,24.2,32.7l0.4,1.3
			c1.5,4.8,2.4,7.7,3.3,13.3c0.2,1.1,0.4,2.1,0.5,3.2c0.4,2.4,0.9,4.9,1.1,7.5c0.3,3.8,0.1,7.5-0.6,11.2c-0.1,0.3-0.1,0.5-0.2,0.8
			C58.9,87.2,46.3,99,31.2,99z M31.8,3.1C19.4,3.1,9.2,16.4,8.5,33.4c0,0.1,0,0.1,0,0.2c-2.2,7-3.8,12.8-4.8,18.2
			c-1.5,7.9-1.6,15-0.4,21.3c0.3,1.5,0.7,2.6,1.1,3.5c0,0,0,0.1,0.1,0.1c3.6,12.4,14.3,20.7,26.6,20.7c14.3,0,26.2-11.3,27.7-26.2
			c0,0,0-0.1,0-0.1c0.1-0.3,0.1-0.5,0.2-0.7c0.7-3.5,0.9-7.1,0.6-10.8c-0.2-2.5-0.6-4.9-1.1-7.3c-0.2-1.1-0.4-2.1-0.5-3.2
			c-0.9-5.5-1.8-8.3-3.2-13l-0.4-1.4c0-0.1,0-0.1,0-0.2C52.9,19.4,43.9,3.1,31.8,3.1z"/>
	</g>
	<g>
		<path d="M44.8,8.1c-2-1.2-3.9-2.4-5.9-3.6c-1.1-0.7-2.2-1.4-3.5-1.7c-2.2-0.6-4.6-0.1-6.8,0.5c-2.9,0.8-5.7,1.9-8.5,3.2
			c-1.6,0.7-3.2,1.5-4.4,2.9c-1,1-1.6,2.3-2.3,3.6c-1.1,2.2-2.2,4.4-3.1,6.6c-0.4,0.8-0.7,1.7-0.5,2.6c0.9-1.3,2.3-2.2,3.8-2.4
			c2.4-0.3,4.8,1.2,6.4,3.1s2.5,4.4,3.5,6.8c2,5,4.3,10,6.8,14.8c0.3,0.5,0.6,1.1,1.2,1.1c0.5,0,0.9-0.4,1.2-0.8
			c0.9-1.2,1.6-2.7,2.2-4.1c2.3-5,5.1-9.9,8.2-14.4c1.1-1.6,2.3-3.2,3.9-4.3c2.3-1.5,2.4-2.8,4.8-1.4C51.5,18.3,46.4,9,44.8,8.1z"/>
	</g>
	<g>
		<path d="M13.3,36.9c-1.3,0-2.4-1.1-2.4-2.4c0-1.3,1.1-2.4,2.4-2.4s2.4,1.1,2.4,2.4C15.7,35.8,14.7,36.9,13.3,36.9z M13.3,33.6
			c-0.5,0-0.9,0.4-0.9,0.9c0,0.5,0.4,0.9,0.9,0.9c0.5,0,0.9-0.4,0.9-0.9C14.2,34,13.8,33.6,13.3,33.6z"/>
	</g>
	<g>
		<path d="M49.6,38.5c-1.3,0-2.4-1.1-2.4-2.4s1.1-2.4,2.4-2.4S52,34.7,52,36S50.9,38.5,49.6,38.5z M49.6,35.2
			c-0.5,0-0.9,0.4-0.9,0.9c0,0.5,0.4,0.9,0.9,0.9s0.9-0.4,0.9-0.9C50.4,35.6,50.1,35.2,49.6,35.2z"/>
	</g>
	<g>
		<path d="M10.8,90.9c-1.6-0.4-3.4-0.8-5-0.5c-1.7,0.4-3.2,1.7-3.3,3.4c0,0.5,0.1,1.1,0.5,1.4c0.3,0.3,0.7,0.4,1,0.5
			c1.9,0.6,4,0.6,5.9-0.1c2.1-0.7,4.3-2.2,6.3-1.3c-1.5-1.9-3.6-3.3-5.9-3.9"/>
	</g>
	<g>
		<path d="M49.9,91.6c1.6-0.4,3.4-0.8,5-0.5c1.7,0.4,3.2,1.7,3.3,3.4c0,0.5-0.1,1.1-0.5,1.4c-0.3,0.3-0.7,0.4-1,0.5
			c-1.9,0.6-4,0.6-5.9-0.1c-2.1-0.7-4.3-2.2-6.3-1.3c1.5-1.9,3.6-3.3,5.9-3.9"/>
	</g>
	<g>
		<path d="M5.7,40.3c0,0,5,32.1,14,40.5c0,0,5.3,7.7-2.4,4.9C9.4,83,2.9,74.7,2.9,74.7S-1.2,60.6,5.7,40.3z"/>
	</g>
	<g>
		<path d="M61,68.3c0,0,7.1-31.6,16.7-39.5c0,0,5.8-7.3-2.1-5.1S58.5,40.3,58.5,40.3S55.6,47.6,61,68.3z"/>
	</g>
	<path d="M98.1,42.2l-17.8,6.5c-1.1,0.4-2.3-0.2-2.7-1.3L64.2,10.3c-0.4-1.1,0.2-2.3,1.3-2.7l17.8-6.5c1.1-0.4,2.3,0.2,2.7,1.3
		l13.5,37.1C99.8,40.6,99.2,41.8,98.1,42.2z"/>
	<path fill="#FFFFFF" d="M91.7,32.6l-12.5,4.5c-1.3,0.5-2.6-0.2-3.1-1.5l-7.8-21.7c-0.5-1.3,0.2-2.6,1.5-3.1l12.5-4.5
		c1.3-0.5,2.6,0.2,3.1,1.5l7.8,21.7C93.6,30.7,92.9,32.1,91.7,32.6z"/>
	<path fill="#FFFFFF" d="M88.2,42.8H87c-0.8,0-1.5-0.7-1.5-1.5v-1.2c0-0.8,0.7-1.5,1.5-1.5h1.2c0.8,0,1.5,0.7,1.5,1.5v1.2
		C89.7,42.1,89,42.8,88.2,42.8z"/>
	<g>
		<defs>
			
				<rect id="SVGID_1_" x="73.7" y="13.7" transform="matrix(0.943 -0.3328 0.3328 0.943 -3.8788 28.8536)" width="17.1" height="24.1"/>
		</defs>
		<clipPath id="SVGID_2_">
			<use xlink:href="#SVGID_1_"  overflow="visible"/>
		</clipPath>
		<g clip-path="url(#SVGID_2_)">
			<g>
				<path d="M85.7,23.7c-0.4,0.1-0.9-0.1-1-0.5c-0.1-0.4,0.1-0.9,0.5-1c0.4-0.1,0.9,0.1,1,0.5C86.3,23.1,86.1,23.6,85.7,23.7z
					 M85.3,22.7c-0.2,0.1-0.2,0.2-0.2,0.4c0.1,0.2,0.2,0.2,0.4,0.2c0.2-0.1,0.2-0.2,0.2-0.4C85.6,22.7,85.5,22.6,85.3,22.7z"/>
			</g>
			<g>
				<path d="M77.4,26.6c-0.4,0.1-0.9-0.1-1-0.5c-0.1-0.4,0.1-0.9,0.5-1c0.4-0.1,0.9,0.1,1,0.5C78,26,77.8,26.5,77.4,26.6z M77,25.6
					c-0.2,0.1-0.2,0.2-0.2,0.4c0.1,0.2,0.2,0.2,0.4,0.2c0.2-0.1,0.2-0.2,0.2-0.4C77.3,25.6,77.2,25.6,77,25.6z"/>
			</g>
			<g>
				<path d="M85.8,39.3c-2.6,0.9-5.2,0.7-7-0.5c-2-1.3-3.2-3.7-3.5-7c-0.4-4.3-0.1-8-0.1-8.6c-0.5-1.7-0.3-5.2,3.6-6.8
					c3.1-1.3,6.6,0.2,7.8,3.3c0.1,0.2,0.4,0.8,0.8,1.8l0,0.1l0,0c0.1,0.5,0.8,1.3,1.5,2.2c1.1,1.4,2.5,3.1,3.1,4.9
					c1.3,3.7-1.5,8.6-5.9,10.4C86.1,39.2,85.9,39.2,85.8,39.3z M79.3,17c-0.1,0-0.2,0.1-0.2,0.1c-4.4,1.8-3.3,5.8-3.2,6l0,0.1l0,0.1
					c0,0-0.3,4,0.1,8.5c0.3,3.1,1.3,5.3,3.2,6.5c1.7,1.1,4,1.2,6.4,0.4c0.2-0.1,0.3-0.1,0.5-0.2c4.1-1.7,6.6-6.1,5.5-9.5
					c-0.6-1.7-1.9-3.3-3-4.7c-0.8-1-1.5-1.8-1.7-2.5l0,0c-0.2-0.6-0.7-1.5-0.8-1.8C84.9,17.4,82,16.1,79.3,17z"/>
			</g>
			<g>
				<path d="M80.9,39.6c-0.3,0-0.6,0.1-0.9,0.2c-0.3,0.2-0.5,0.5-0.4,0.8c0,0.1,0.1,0.2,0.2,0.2c0.1,0,0.1,0,0.2,0
					c0.4,0,0.7-0.1,1-0.4c0.3-0.3,0.6-0.6,1-0.6C81.7,39.7,81.3,39.6,80.9,39.6"/>
			</g>
			<g>
				<path d="M90.2,35.8c0.2-0.1,0.5-0.3,0.7-0.3s0.6,0.1,0.7,0.3c0,0.1,0,0.2,0,0.2c0,0.1-0.1,0.1-0.1,0.1c-0.3,0.2-0.6,0.3-0.9,0.3
					c-0.4,0-0.8-0.1-1,0.1C89.7,36.3,89.9,36,90.2,35.8"/>
			</g>
			<g>
				<path d="M78.2,33.1c-1.8,0.6-2.4-0.1-2.6-0.6c0,0,0,0,0-0.1L75.3,29c0-0.1,0.1-0.2,0.1-0.2c0.1,0,0.2,0,0.3,0.1
					c1.4,1.6,3.2,3.3,3.6,3.2c0.1,0,0.2,0,0.3,0.1c0,0.1,0,0.2-0.1,0.3C79.5,32.5,78.9,32.9,78.2,33.1z M76.1,32.4
					c0.3,0.6,0.9,0.7,2,0.3c0.3-0.1,0.6-0.2,0.8-0.3c-0.9-0.5-2.1-1.8-2.9-2.6L76.1,32.4z"/>
			</g>
			<g>
				<path d="M90,25.4c-0.1,0-0.2,0-0.2,0c-0.1-0.1-1.8-1.6-2.2-2.6c0,0,0-0.1,0-0.2c0.2-0.7,0.6-2.5,0.2-3.2
					c-0.2-0.4-0.3-0.6-0.2-0.7c0-0.1,0.1-0.2,0.2-0.2c0.2-0.1,0.4,0,0.6,0.2c0,0,0,0,0.1,0.1C88.6,18.9,92,23.6,90,25.4
					C90.1,25.4,90.1,25.4,90,25.4z M88.1,22.7c0.3,0.7,1.3,1.7,1.8,2.1c0.9-1.2-0.6-4-1.6-5.4C88.7,20.4,88.2,22.2,88.1,22.7z"/>
			</g>
			<g>
				<path d="M75.5,23.2c0,0,3.3-3.1,6.1,3.3c0,0,0.4,0.7,0.3-0.5c-0.1-1.2-0.6-7.4,4.4-6.1c0,0-1.7-4-6.6-3.4c0,0-5.2,0.8-4.2,6.9"
					/>
				<path d="M81.9,26.8C81.9,26.8,81.9,26.8,81.9,26.8c-0.2,0.1-0.3-0.2-0.4-0.3c-1-2.3-2.2-3.7-3.6-3.9c-1.3-0.3-2.3,0.6-2.4,0.7
					l0,0c0,0.1,0,0.1,0,0.2l-0.2,0c-1-6.1,4.2-7.1,4.3-7.1c2.6-0.3,4.3,0.6,5.3,1.5c1,0.9,1.5,1.9,1.5,2l0.1,0.2L86.3,20
					c-1.3-0.3-2.3-0.2-3,0.4c-0.7,0.6-1.5,2.1-1.3,5.6C82.1,26.5,82.1,26.8,81.9,26.8z M76.5,22.5c0.4-0.1,0.9-0.2,1.5-0.1
					c1.4,0.3,2.7,1.7,3.7,4.1c0,0,0.1,0.1,0.1,0.1c0-0.1,0-0.2,0-0.6c-0.3-3.6,0.6-5.1,1.3-5.8c0.7-0.6,1.7-0.8,2.9-0.5
					c-0.4-0.8-2.3-3.6-6.4-3.1c-0.2,0-4.8,0.9-4.2,6.4C75.7,22.9,76,22.6,76.5,22.5z"/>
			</g>
			<g>
				<path d="M87,18.4C87,18.4,87,18.4,87,18.4c-0.1,0-0.2,0-0.3-0.1c0,0-0.2-0.7,0.1-1.3c0.1-0.1,0.2-0.2,0.3-0.1
					c0.1,0.1,0.2,0.2,0.1,0.3c-0.2,0.5-0.1,0.9-0.1,0.9C87.2,18.2,87.2,18.3,87,18.4z"/>
			</g>
			<g>
				<path d="M86.3,18.4C86.3,18.4,86.3,18.4,86.3,18.4c-0.1,0-0.3,0-0.3-0.1c0,0-0.3-1,0.2-2c0.1-0.1,0.2-0.2,0.3-0.1
					c0.1,0.1,0.2,0.2,0.1,0.3c-0.4,0.8-0.2,1.6-0.2,1.6C86.5,18.2,86.4,18.3,86.3,18.4z"/>
			</g>
			<g>
				<path d="M89.9,19.7c-0.1,0-0.1,0-0.2,0c-0.1-0.1-0.2-0.2-0.1-0.3c0,0,0.2-0.5-0.1-1c-0.1-0.1,0-0.3,0.1-0.3
					c0.1-0.1,0.3,0,0.3,0.1c0.4,0.8,0.2,1.4,0.1,1.4C90,19.6,89.9,19.7,89.9,19.7z"/>
			</g>
			<g>
				<path d="M85.2,38.1c-0.1,0-0.3-0.1-0.3-0.2c-0.1-0.1,0-0.3,0.1-0.3c2.7-1.1,4.4-2.6,5-4.5c0.8-2.3-0.4-4.5-0.4-4.5
					c-0.1-0.1,0-0.3,0.1-0.3c0.1-0.1,0.3,0,0.3,0.1c0.1,0.1,1.3,2.4,0.4,4.9C89.8,35.3,88,36.9,85.2,38.1
					C85.2,38.1,85.2,38.1,85.2,38.1z"/>
			</g>
		</g>
	</g>
	<g>
	</g>
	<g>
	</g>
	<g>
	</g>
	<g>
	</g>
	<g>
	</g>
	<g>
	</g>
	<g>
	</g>
	<g>
	</g>
	<g>
	</g>
	<g>
	</g>
	<g>
	</g>
	<g>
	</g>
	<g>
	</g>
	<g>
	</g>
	<g>
	</g>
</g>
</svg>
