<?xml version="1.0" encoding="utf-8"?>
<!-- Generator: Adobe Illustrator 18.1.0, SVG Export Plug-In . SVG Version: 6.00 Build 0)  -->
<!DOCTYPE svg PUBLIC "-//W3C//DTD SVG 1.1//EN" "http://www.w3.org/Graphics/SVG/1.1/DTD/svg11.dtd">
<svg version="1.1" xmlns="http://www.w3.org/2000/svg" xmlns:xlink="http://www.w3.org/1999/xlink" x="0px" y="0px"
	 viewBox="0 0 100 100" enable-background="new 0 0 100 100" xml:space="preserve">
<g id="Layer_1">
</g>
<g id="Layer_3">
	<path d="M45.4,71h9.3c0,0-3.6,13.7,8.4,12.9V88H38v-3.5C38,84.5,46.4,87,45.4,71z"/>
	<path d="M95.2,78.6H4.9c-2.5,0-4.5-2-4.5-4.5V14.8c0-2.5,2-4.5,4.5-4.5h90.3c2.5,0,4.5,2,4.5,4.5v59.3
		C99.7,76.5,97.7,78.6,95.2,78.6z"/>
	<rect x="5.7" y="15.6" fill="#FFFFFF" width="88.1" height="55.4"/>
	<g>
		<g>
			<defs>
				<path id="SVGID_1_" d="M43,57.2c-1,0-1.9-0.2-2.5-0.7c-0.1-0.1-0.2-0.2-0.2-0.4c0-0.2,0.1-0.3,0.2-0.4c0.4-0.2,0.8-0.4,1.2-0.5
					c-0.1-0.1-0.1-0.2-0.2-0.3c-3-5.7-0.8-9.1,1.4-11.4c0.3-0.3,0.5-0.7,0.6-1c0.2-0.7-0.5-1.5-1.2-1.9c-0.9-0.6-2.1-0.8-3.1-0.7
					c-0.1,0-0.3,0-0.4-0.1c-0.1-0.1-0.1-0.2-0.1-0.4c0.1-1.1,0.6-2,1-2.9c1-2,2.3-4.2,4.3-5.8c1.4-1.1,3.2-1.7,4.8-1.7
					c0.8,0,1.6,0.2,2.3,0.5c1.2,0.5,2.3,1.3,3.2,2.2c1.1,1.1,2,2.4,2.7,4.1c0.5,1.2,0.8,2.4,1,3.4c1.1,5.8,0.3,11.3-2.2,15.6
					c-0.1,0.2-0.1,0.3-0.1,0.3c0,0,0.2,0.2,0.3,0.2c0.3,0.2,0.7,0.5,0.9,1c0.1,0.1,0.1,0.3,0,0.4c-0.1,0.1-0.2,0.2-0.3,0.2
					C55,57,52.9,57,50.4,57c-2.2,0-4.6,0-7.1,0.2C43.2,57.2,43.1,57.2,43,57.2z M41.8,56.2c0.4,0.1,0.9,0.2,1.2,0.2
					c0.1,0,0.2,0,0.3,0c2.5-0.1,5-0.2,7.1-0.2c2,0,3.9,0,5.3-0.1c-0.1-0.1-0.1-0.1-0.2-0.2c-0.4-0.3-1-0.7-0.4-1.7
					c2.4-4.1,3.2-9.4,2.1-15c-0.2-0.9-0.4-2.1-0.9-3.2c-0.7-1.5-1.6-2.8-2.6-3.8c-0.8-0.8-1.8-1.5-2.9-2c-0.6-0.3-1.3-0.4-1.9-0.4
					c-1.4,0-3,0.6-4.3,1.5c-1.9,1.4-3.1,3.6-4.1,5.5c-0.3,0.7-0.7,1.4-0.8,2.1c1.1,0,2.2,0.3,3.1,0.9c0.9,0.6,1.8,1.6,1.6,2.9
					c-0.1,0.5-0.4,1-0.8,1.5c-3,3.1-3.4,6.2-1.3,10.4c0.2,0.3,0.2,0.3,0.6,0.3c0.3,0,0.8,0,1.4,0.2c0.2,0.1,0.3,0.3,0.3,0.5
					c-0.1,0.2-0.3,0.4-0.5,0.3C43.3,55.8,42.5,55.9,41.8,56.2z"/>
			</defs>
			<use xlink:href="#SVGID_1_"  overflow="visible"/>
			<clipPath id="SVGID_2_">
				<use xlink:href="#SVGID_1_"  overflow="visible"/>
			</clipPath>
		</g>
		<g>
			<path d="M48.9,43.9c-0.3,0-0.5,0-0.8-0.1c-2.1-0.4-3.6-2.3-3.6-4.6c0-2.6,2-4.6,4.4-4.6c2.4,0,4.4,2.1,4.4,4.6
				S51.4,43.9,48.9,43.9z M48.9,35.5c-2,0-3.5,1.7-3.5,3.8c0,1.8,1.2,3.4,2.9,3.7c0.2,0,0.4,0.1,0.6,0.1c2,0,3.5-1.7,3.5-3.8
				C52.5,37.2,50.9,35.5,48.9,35.5z"/>
		</g>
		<g>
			<path d="M48.9,42.8c-0.2,0-0.4,0-0.6-0.1c-1.5-0.3-2.6-1.7-2.6-3.3c0-1.9,1.4-3.4,3.2-3.4c1.8,0,3.2,1.5,3.2,3.4
				C52.1,41.3,50.7,42.8,48.9,42.8z M48.9,36.3c-1.6,0-2.9,1.4-2.9,3.1c0,1.5,1,2.8,2.4,3c0.2,0,0.3,0,0.5,0c1.6,0,2.9-1.4,2.9-3.1
				C51.8,37.7,50.5,36.3,48.9,36.3z"/>
		</g>
		<g>
			<path d="M48.7,40.6c-0.5,0-1-0.4-1-1c0-0.5,0.4-1,1-1s1,0.4,1,1C49.7,40.2,49.3,40.6,48.7,40.6z M48.7,39.2
				c-0.2,0-0.4,0.2-0.4,0.4c0,0.2,0.2,0.4,0.4,0.4c0.2,0,0.4-0.2,0.4-0.4C49.1,39.4,48.9,39.2,48.7,39.2z"/>
		</g>
		<g>
			<path d="M77.8,39.1c-0.5,0-1-0.4-1-1s0.4-1,1-1c0.5,0,1,0.4,1,1S78.3,39.1,77.8,39.1z M77.8,37.8c-0.2,0-0.4,0.2-0.4,0.4
				c0,0.2,0.2,0.4,0.4,0.4c0.2,0,0.4-0.2,0.4-0.4C78.2,37.9,78,37.8,77.8,37.8z"/>
		</g>
		<g>
			<path d="M67,39.1c-0.5,0-1-0.4-1-1s0.4-1,1-1c0.5,0,1,0.4,1,1S67.5,39.1,67,39.1z M67,37.8c-0.2,0-0.4,0.2-0.4,0.4
				c0,0.2,0.2,0.4,0.4,0.4c0.2,0,0.4-0.2,0.4-0.4C67.4,37.9,67.2,37.8,67,37.8z"/>
		</g>
		<g>
			<path d="M50.2,49.3C50.1,49.3,50.1,49.3,50.2,49.3l-3-0.8c-0.3-0.1-0.5-0.2-0.8-0.3c-0.3-0.2-0.5-0.5-0.6-0.8
				c0-0.4,0.2-0.9,0.6-1.1c0.3-0.2,0.7-0.2,1.1-0.3l3.7-0.5c0.2,0,0.3,0.1,0.3,0.3c0,0.2-0.1,0.3-0.3,0.3l-3.7,0.5
				c-0.3,0-0.6,0.1-0.9,0.2c-0.2,0.1-0.4,0.3-0.3,0.5c0,0.1,0.1,0.3,0.3,0.4c0.2,0.1,0.4,0.2,0.6,0.2l2.9,0.8c0.2,0,0.2,0.2,0.2,0.4
				C50.4,49.2,50.3,49.3,50.2,49.3z"/>
		</g>
		<g>
			<path d="M20.3,40.2c-0.5,0-0.9-0.4-0.9-0.9s0.4-0.9,0.9-0.9c0.5,0,0.9,0.4,0.9,0.9S20.8,40.2,20.3,40.2z M20.3,39
				c-0.2,0-0.3,0.1-0.3,0.3s0.1,0.3,0.3,0.3s0.3-0.1,0.3-0.3S20.5,39,20.3,39z"/>
		</g>
		<g>
			<path d="M29,35.4c-0.5,0-0.9-0.4-0.9-0.9c0-0.5,0.4-0.9,0.9-0.9c0.5,0,0.9,0.4,0.9,0.9C29.9,35,29.5,35.4,29,35.4z M29,34.2
				c-0.2,0-0.3,0.1-0.3,0.3s0.1,0.3,0.3,0.3c0.2,0,0.3-0.1,0.3-0.3S29.2,34.2,29,34.2z"/>
		</g>
		<g>
			<path d="M25.2,57.1c-5.6,0-10.2-4-10.2-8.9c0-1.5,1.2-4,1.3-4.2c0.5-1.4,0.3-4.9,0-7.1c0,0,0-0.1,0-0.1h0c-0.1-0.5-0.1-1-0.1-1.4
				c0-4.1,3.2-7.4,7.1-7.4c3.2,0,5.9,2.2,6.8,5.2l0,0l0.1,0.2c0,0.2,0.1,0.3,0.1,0.5l0,0.1c0,0,1.1,4.8,3.7,9.6
				c0.2,0.4,0.5,0.9,0.7,1.3l0,0c0.5,1,0.7,2.1,0.7,3.3C35.5,53.1,30.9,57.1,25.2,57.1z M17.2,36.7c0,0.1,0.7,5.6-0.1,7.7l0,0
				c0,0-1.2,2.5-1.2,3.9c0,4.4,4.2,8,9.3,8c5.2,0,9.4-3.6,9.4-8c0-1-0.2-2-0.6-2.9c-0.3-0.4-0.5-0.9-0.8-1.3
				c-2.1-3.8-3.2-7.5-3.6-9.1l0,0l-0.1-0.8c-0.5-3.1-3.1-5.3-6.1-5.3c-3.4,0-6.2,2.9-6.2,6.5c0,0.3,0,0.7,0.1,1.1
				C17.2,36.5,17.2,36.6,17.2,36.7L17.2,36.7z"/>
		</g>
		<g>
			<path d="M71.6,57.1c-3.4,0-6.2-1.2-7.9-3.4c-1.8-2.3-2.2-5.6-1.2-9.5c1.3-5.1,3.1-9.3,3.4-9.9c0.1-2.1,1.7-6.1,7-6.3
				c4.1-0.2,7.5,3,7.7,7c0,0.3,0.1,1.1,0.2,2.4l0,0.1l0,0c-0.1,0.6,0.4,1.8,0.9,3.2c0.7,2,1.6,4.6,1.6,6.9c0,4.8-5.2,9.3-11,9.6
				C72,57.1,71.8,57.1,71.6,57.1z M73.2,28.8c-0.1,0-0.2,0-0.3,0c-5.8,0.3-6.1,5.3-6.1,5.6l0,0.1l0,0.1c0,0-2,4.4-3.4,9.9
				c-0.9,3.7-0.6,6.7,1,8.8c1.5,1.9,4.1,3.1,7.2,3.1c0.2,0,0.4,0,0.6,0c5.4-0.3,10.1-4.3,10.2-8.7c0-2.2-0.9-4.6-1.6-6.6
				c-0.5-1.5-1-2.7-0.9-3.5l0,0c-0.1-0.7-0.2-2-0.2-2.4C79.5,31.5,76.6,28.8,73.2,28.8z"/>
		</g>
		<g>
			<path d="M32.7,42.6c-0.1,0-0.1,0-0.2,0c-0.1,0-0.2-0.1-0.2-0.2l-1.6-3.9c-0.1-0.2,0-0.5,0.2-0.6c0.1,0,1.9-1,2.1-4.4
				c0-0.2,0.1-0.3,0.3-0.4c0.2,0,0.4,0,0.5,0.2c0.1,0.2,2.4,3.7,1.5,6.6c-0.3,1.2-1.2,2.1-2.4,2.6C32.8,42.5,32.8,42.6,32.7,42.6z
				 M31.6,38.4l1.3,3.1c0.8-0.5,1.3-1.1,1.5-1.9c0.5-1.6-0.2-3.5-0.8-4.7C33.2,37,32.2,38,31.6,38.4z"/>
		</g>
		<g>
			<path d="M15.1,48.7C15.1,48.7,15.1,48.7,15.1,48.7c-2.1,0-2.8-3.1-2.8-3.2c0-0.2,0-0.3,0.2-0.4c0.1-0.1,0.3-0.1,0.5-0.1
				c0.1,0.1,0.3,0.1,0.5,0.1c0.7,0,1.7-0.4,2.9-1.1c0.1,0,0.1,0,0.1-0.1c0.2-0.1,0.4-0.1,0.5,0.1c0.1,0.1,0.2,0.3,0.1,0.5
				c-1.1,2.4-1.2,3.7-1.2,3.7c0,0.2-0.2,0.4-0.4,0.4C15.4,48.7,15.2,48.7,15.1,48.7z M13.4,46c0.3,1,0.8,1.8,1.7,1.8
				c0.1-0.5,0.2-1.3,0.7-2.5C14.8,45.8,14,46,13.4,46C13.4,46,13.4,46,13.4,46z"/>
		</g>
		<g>
			<path d="M19.1,55.2c-0.4-0.1-0.8-0.2-1.1-0.1c-0.4,0.1-0.7,0.4-0.7,0.8c0,0.1,0,0.2,0.1,0.3c0.1,0.1,0.1,0.1,0.2,0.1
				c0.4,0.1,0.9,0.1,1.3,0c0.5-0.2,1-0.5,1.4-0.3C20,55.6,19.6,55.3,19.1,55.2"/>
		</g>
		<g>
			<path d="M65.9,55.5c-0.4-0.1-0.8-0.2-1.1-0.1S64,55.8,64,56.2c0,0.1,0,0.2,0.1,0.3c0.1,0.1,0.1,0.1,0.2,0.1
				c0.4,0.1,0.9,0.1,1.3,0c0.5-0.2,1-0.5,1.4-0.3C66.8,55.9,66.3,55.6,65.9,55.5"/>
		</g>
		<g>
			<path d="M30.7,55.2c0.3-0.1,0.7-0.2,1-0.1c0.3,0.1,0.6,0.3,0.6,0.7c0,0.1,0,0.2-0.1,0.3c-0.1,0.1-0.1,0.1-0.2,0.1
				c-0.4,0.1-0.8,0.1-1.1,0c-0.4-0.1-0.8-0.4-1.2-0.3C30,55.5,30.4,55.2,30.7,55.2"/>
		</g>
		<g>
			<path d="M78.1,54.9c0.3-0.1,0.7-0.2,1-0.1c0.3,0.1,0.6,0.3,0.6,0.7c0,0.1,0,0.2-0.1,0.3c-0.1,0.1-0.1,0.1-0.2,0.1
				c-0.4,0.1-0.8,0.1-1.1,0c-0.4-0.1-0.8-0.4-1.2-0.3C77.3,55.2,77.7,54.9,78.1,54.9"/>
		</g>
		<g>
			<path d="M24.5,55.4C24.5,55.4,24.5,55.4,24.5,55.4c-3.4-0.6-5.1-2-6-3.2c-0.9-1.3-1-2.4-1-2.4c0-0.2,0.1-0.3,0.3-0.3
				c0.2,0,0.3,0.1,0.3,0.3c0,0.2,0.4,4.1,6.4,5.1c0.2,0,0.3,0.2,0.2,0.3C24.8,55.3,24.6,55.4,24.5,55.4z"/>
		</g>
		<g>
			<path d="M16.7,36.7c0,0,4.2-5.5,9.8,1.1c0,0,0.6,0.2,0-0.9c-0.6-1.1-0.5-5.2,1.5-6.5c0,0-2.7-3-7.1-1.6
				C16.5,30.3,16.7,36.7,16.7,36.7z"/>
			<path d="M26.6,37.9c-0.1,0-0.1,0-0.1,0c0,0,0,0,0,0c-1.8-2.1-3.7-3.2-5.5-3.2c-2.5,0-4.1,2.1-4.1,2.1c0,0-0.1,0.1-0.1,0
				s-0.1-0.1-0.1-0.1c0-0.1-0.2-6.5,4.3-7.9c0.8-0.3,1.6-0.4,2.4-0.4c3,0,4.8,2,4.8,2c0,0,0,0.1,0,0.1c0,0,0,0.1-0.1,0.1
				c-1.9,1.2-2,5.2-1.4,6.3c0.3,0.5,0.3,0.8,0.2,1C26.8,37.9,26.7,37.9,26.6,37.9z M26.6,37.7C26.6,37.7,26.6,37.7,26.6,37.7
				C26.7,37.7,26.7,37.7,26.6,37.7c0.1,0,0.2-0.2-0.2-0.7c-0.6-1.1-0.6-5.2,1.4-6.5c-0.4-0.4-2-1.8-4.5-1.8c-0.8,0-1.5,0.1-2.3,0.4
				c-3.8,1.2-4.1,6.2-4.1,7.4c0.5-0.6,2-1.9,4.1-1.9C22.8,34.5,24.7,35.6,26.6,37.7z"/>
		</g>
		<g>
			<path d="M47.1,45.8c-0.2,0-0.3-0.1-0.3-0.2c0-0.2,0.1-0.3,0.3-0.3c0.2,0,0.3,0.1,0.3,0.3l0,0C47.4,45.7,47.3,45.8,47.1,45.8
				C47.1,45.8,47.1,45.8,47.1,45.8z M47.1,45.2C47.1,45.2,47.1,45.2,47.1,45.2c-0.2,0-0.3-0.2-0.3-0.3c0-0.2,0.1-0.3,0.3-0.3
				c0.2,0,0.3,0.1,0.3,0.3c0,0,0,0.1,0,0.1C47.4,45.1,47.3,45.2,47.1,45.2z M47.1,44.4C47.1,44.4,47.1,44.4,47.1,44.4
				c-0.2,0-0.3-0.2-0.3-0.3c0-0.2,0.1-0.3,0.3-0.3c0.2,0,0.3,0.1,0.3,0.3l0,0C47.4,44.3,47.3,44.4,47.1,44.4z M47.2,43.6
				C47.2,43.6,47.2,43.6,47.2,43.6c-0.2,0-0.3-0.2-0.3-0.3l0,0c0-0.2,0.2-0.3,0.3-0.3c0.2,0,0.3,0.2,0.3,0.3l-0.3,0l0.3,0.1
				C47.5,43.5,47.3,43.6,47.2,43.6z"/>
		</g>
		<g>
			<path d="M55.4,55.2C55.4,55.2,55.4,55.2,55.4,55.2c-0.2,0-0.3-0.2-0.3-0.4c0-0.2,0.1-0.3,0.3-0.3l0,0c0.2,0,0.3,0.2,0.3,0.4
				C55.7,55.1,55.6,55.2,55.4,55.2z M54.7,55.1C54.7,55.1,54.6,55.1,54.7,55.1c-0.2,0-0.3-0.2-0.3-0.3s0.1-0.3,0.3-0.3l0,0
				c0.2,0,0.3,0.2,0.3,0.3C54.9,55,54.8,55.1,54.7,55.1z M53.9,55C53.9,55,53.9,55,53.9,55C53.9,55,53.8,55,53.9,55
				c-0.2,0-0.3-0.2-0.3-0.3c0-0.2,0.2-0.3,0.3-0.2l0,0.3l0.1-0.3c0.2,0,0.3,0.2,0.3,0.3C54.2,54.9,54,55,53.9,55z M53.1,54.9
				C53.1,54.9,53.1,54.9,53.1,54.9C53.1,54.8,53.1,54.8,53.1,54.9c-0.2,0-0.3-0.2-0.3-0.4c0-0.2,0.2-0.3,0.3-0.2l-0.1,0.3l0.1-0.3
				c0.2,0,0.3,0.2,0.2,0.3C53.4,54.8,53.3,54.9,53.1,54.9z M52.4,54.7C52.4,54.7,52.4,54.7,52.4,54.7c-0.2-0.1-0.3-0.2-0.3-0.4
				c0-0.2,0.2-0.2,0.3-0.2c0,0,0,0,0,0c0.2,0,0.2,0.2,0.2,0.4C52.6,54.6,52.5,54.7,52.4,54.7z M51.7,54.4c0,0-0.1,0-0.1,0
				c-0.1-0.1-0.2-0.2-0.2-0.4c0.1-0.1,0.2-0.2,0.4-0.2c0,0,0,0,0,0c0.1,0.1,0.2,0.2,0.2,0.4C51.9,54.4,51.8,54.4,51.7,54.4z
				 M51,54.1c0,0-0.1,0-0.1,0c-0.1-0.1-0.2-0.3-0.1-0.4c0.1-0.1,0.2-0.2,0.4-0.1L51,53.8l0.1-0.3c0,0,0,0,0,0
				c0.1,0.1,0.2,0.3,0.1,0.4C51.2,54.1,51.1,54.1,51,54.1z M50.3,53.8c-0.1,0-0.1,0-0.2,0l0,0c-0.1-0.1-0.2-0.3-0.1-0.4
				c0.1-0.1,0.3-0.2,0.4-0.1l0,0c0.1,0.1,0.2,0.3,0.1,0.4C50.5,53.7,50.4,53.8,50.3,53.8z M49.7,53.3c-0.1,0-0.1,0-0.2-0.1
				c-0.1-0.1-0.2-0.3,0-0.4c0.1-0.1,0.3-0.1,0.4,0l0,0c0.1,0.1,0.1,0.3,0,0.4C49.9,53.3,49.8,53.3,49.7,53.3z M49.2,52.8
				c-0.1,0-0.2,0-0.2-0.1l0,0c-0.1-0.1-0.1-0.3,0-0.4c0.1-0.1,0.3-0.1,0.4,0l0,0c0.1,0.1,0.1,0.3,0,0.4
				C49.3,52.8,49.2,52.8,49.2,52.8z M48.7,52.2c-0.1,0-0.2,0-0.2-0.1l0,0c-0.1-0.1-0.1-0.3,0.1-0.4c0.1-0.1,0.3-0.1,0.4,0.1l0,0
				c0.1,0.1,0.1,0.3-0.1,0.4C48.8,52.2,48.7,52.2,48.7,52.2z M48.3,51.5c-0.1,0-0.2-0.1-0.3-0.2c-0.1-0.1,0-0.3,0.1-0.4
				c0.1-0.1,0.3,0,0.4,0.1l0,0c0.1,0.1,0,0.3-0.1,0.4C48.4,51.5,48.3,51.5,48.3,51.5z M48,50.8c-0.1,0-0.2-0.1-0.3-0.2l0,0
				c-0.1-0.2,0-0.3,0.2-0.4c0.2-0.1,0.3,0,0.4,0.2l0,0c0.1,0.2,0,0.3-0.2,0.4C48,50.8,48,50.8,48,50.8z M47.7,50.1
				c-0.1,0-0.3-0.1-0.3-0.2c0,0,0,0,0,0c0-0.2,0.1-0.3,0.2-0.4c0.2,0,0.3,0.1,0.4,0.2l-0.3,0.1l0.3,0C48.1,49.9,48,50.1,47.7,50.1
				C47.8,50.1,47.8,50.1,47.7,50.1z M47.6,49.4c-0.1,0-0.3-0.1-0.3-0.3l0,0c0-0.2,0.1-0.3,0.3-0.3c0.2,0,0.3,0.1,0.3,0.3l0,0
				C47.9,49.2,47.8,49.3,47.6,49.4C47.6,49.4,47.6,49.4,47.6,49.4z M47.5,48.5C47.5,48.5,47.5,48.5,47.5,48.5
				c-0.2,0-0.3-0.1-0.3-0.2c0,0,0,0,0,0c0-0.2,0.2-0.3,0.3-0.3c0.2,0,0.3,0.1,0.3,0.3l0,0C47.8,48.4,47.7,48.5,47.5,48.5z"/>
		</g>
		<g>
			<path d="M45.1,47.4c-0.9,0-1.7-0.8-2.3-2c-0.1-0.1,0-0.3,0.1-0.4l2.8-1.3c0.1,0,0.2,0,0.2,0c0.1,0,0.1,0.1,0.2,0.2
				c0.7,1.6,0.6,3-0.4,3.5C45.5,47.4,45.3,47.4,45.1,47.4z M43.5,45.4c0.5,0.9,1.1,1.4,1.7,1.4c0.1,0,0.2,0,0.3-0.1
				c0.5-0.3,0.7-1.2,0.2-2.4L43.5,45.4z"/>
		</g>
		<g>
			<path d="M46.5,49.3c-0.1,0-0.2-0.1-0.3-0.2l-0.9-2c-0.1-0.1,0-0.3,0.1-0.4c0.1-0.1,0.3,0,0.4,0.1l0.9,2c0.1,0.1,0,0.3-0.1,0.4
				C46.6,49.3,46.5,49.3,46.5,49.3z"/>
		</g>
		<g>
			<path d="M45.6,49.8c-0.1,0-0.2-0.1-0.3-0.2c-0.1-0.2,0-0.3,0.2-0.4l1.8-0.7c0.2-0.1,0.3,0,0.4,0.2c0.1,0.2,0,0.3-0.2,0.4
				l-1.8,0.7C45.7,49.8,45.6,49.8,45.6,49.8z"/>
		</g>
		<g>
			<path d="M65.3,46.9c-2.3,0-2.7-1.1-2.7-1.7c0,0,0-0.1,0-0.1l1.1-4c0-0.1,0.1-0.2,0.3-0.2c0.1,0,0.2,0.1,0.3,0.2
				c1,2.4,2.3,5.1,2.8,5.1c0.1,0,0.3,0.1,0.3,0.3c0,0.1-0.1,0.3-0.2,0.3C67.1,46.7,66.3,46.9,65.3,46.9z M63.2,45.2
				c0.1,0.8,0.8,1.1,2.1,1.1c0.4,0,0.7,0,1-0.1c-0.8-0.9-1.8-2.9-2.3-4.2L63.2,45.2z"/>
		</g>
		<g>
			<path d="M82.1,42.8c-0.1,0-0.2-0.1-0.3-0.1c-0.1-0.1-1.4-2.6-1.4-3.8c0-0.1,0-0.1,0.1-0.2C81,37.9,82.3,36,82,35
				c-0.1-0.5-0.1-0.8,0-0.9c0.1-0.1,0.2-0.1,0.3-0.1c0.2,0,0.4,0.2,0.7,0.5c0,0,0,0.1,0,0.1c0.1,0.3,2.1,7-0.8,8.3
				C82.2,42.8,82.2,42.8,82.1,42.8z M81,38.9c0.1,0.9,0.8,2.4,1.2,3.2c1.6-1,0.9-4.9,0.4-6.9C82.7,36.5,81.4,38.4,81,38.9z"/>
		</g>
		<g>
			<path d="M66.3,34.3c0,0,5-2.2,5.7,6.3c0,0,0.2,1,0.6-0.5c0.4-1.4,2.3-8.8,7.5-5.2c0,0-0.3-5.3-6.3-6.6c0,0-6.3-1.1-7.7,6.3"/>
			<path d="M72.2,40C72.2,40,72.2,40,72.2,40c-0.2,0-0.3,0.2-0.3,0.1c-0.2-3.1-1.1-4.8-2.5-5.7c-1.4-0.9-3-0.1-3-0.1l0,0.1
				c0,0.1,0,0.2,0,0.2l-0.3,0c1.4-7.5,7.8-6.4,7.8-6.4c3.1,0.7,4.7,2.5,5.5,3.9c0.8,1.5,0.9,2.8,0.9,2.9l0,0.3L80,35
				c-1.3-0.9-2.5-1.1-3.6-0.7c-1.1,0.4-2.6,1.2-3.7,5.3C72.5,40.3,72.4,40,72.2,40z M67.7,33.9c0.5,0,1.2,0.1,1.8,0.5
				c1.5,0.9,2.4,3,2.6,6.2c0,0,0,0.1,0.1,0.2c0-0.1,0.1-0.2,0.2-0.6c1.1-4.2,2.7-5.6,3.9-6.1c1.1-0.4,2.3-0.2,3.6,0.6
				c-0.2-1.1-1.2-5.1-6.1-6.1c-0.2,0-5.9-1-7.4,5.6C66.7,34.1,67.1,33.9,67.7,33.9z"/>
		</g>
		<g>
			<path d="M81.5,33.4C81.5,33.4,81.5,33.4,81.5,33.4c-0.2,0-0.3,0-0.3-0.2c0,0,0-0.8,0.7-1.4c0.1-0.1,0.3-0.1,0.4,0
				c0.1,0.1,0.1,0.3,0,0.4c-0.5,0.4-0.5,1-0.5,1C81.8,33.4,81.7,33.4,81.5,33.4z"/>
		</g>
		<g>
			<path d="M80.7,33C80.7,33,80.7,33,80.7,33c-0.2,0-0.3,0-0.3-0.1c0-0.1,0-1.2,1-2.1c0.1-0.1,0.3-0.1,0.4,0.1
				c0.1,0.1,0.1,0.3,0,0.4C81,32,81,32.9,81,32.9C81,33,80.9,33,80.7,33z"/>
		</g>
		<g>
			<path d="M84.2,36.2c-0.1,0-0.1,0-0.2-0.1c-0.1-0.1-0.1-0.3,0-0.4c0,0,0.4-0.5,0.3-1.2c0-0.2,0.1-0.3,0.2-0.3
				c0.2,0,0.3,0.1,0.3,0.2c0.2,1-0.4,1.7-0.4,1.7C84.4,36.2,84.3,36.2,84.2,36.2z"/>
		</g>
		<g>
			<path d="M85.2,36.7c-0.1,0-0.1,0-0.2-0.1c-0.1-0.1-0.1-0.3,0-0.4c0,0,0.7-0.8,0.5-2c0-0.2,0.1-0.3,0.2-0.3c0.2,0,0.3,0.1,0.3,0.2
				c0.3,1.5-0.6,2.5-0.6,2.5C85.4,36.7,85.3,36.7,85.2,36.7z"/>
		</g>
		<g>
			<path d="M71.4,55c-0.2,0-0.3,0.1-0.3-0.1c0-0.2,0.1-0.2,0.3-0.2c3.6-0.2,6.1-1.2,7.6-3.1c1.9-2.4,1.4-5.3,1.4-5.3
				c0-0.2,0.1-0.3,0.2-0.3c0.2,0,0.3,0.1,0.3,0.2c0,0.1,0.5,3-1.5,5.6C77.9,53.9,75.2,55,71.4,55C71.4,55,71.4,55,71.4,55z"/>
		</g>
		<path d="M39.2,39.3c0,0,5.3-10.6,16.4-4.8C55.6,34.5,48,19.7,39.2,39.3z"/>
	</g>
	<g>
	</g>
	<g>
	</g>
	<g>
	</g>
	<g>
	</g>
	<g>
	</g>
	<g>
	</g>
	<g>
	</g>
	<g>
	</g>
	<g>
	</g>
	<g>
	</g>
	<g>
	</g>
	<g>
	</g>
	<g>
	</g>
	<g>
	</g>
	<g>
	</g>
</g>
</svg>
