<?xml version="1.0" encoding="utf-8"?>
<!-- Generator: Adobe Illustrator 18.1.0, SVG Export Plug-In . SVG Version: 6.00 Build 0)  -->
<!DOCTYPE svg PUBLIC "-//W3C//DTD SVG 1.1//EN" "http://www.w3.org/Graphics/SVG/1.1/DTD/svg11.dtd">
<svg version="1.1" xmlns="http://www.w3.org/2000/svg" xmlns:xlink="http://www.w3.org/1999/xlink" x="0px" y="0px"
	 viewBox="0 0 300 100" enable-background="new 0 0 300 100" xml:space="preserve">
<g id="Layer_1">
</g>
<g id="Layer_3">
	<g>
		<g>
			<defs>
				<path id="XMLID_4_" d="M131.8,50c0.8-3.3-1.8-6.4-4.6-8.2c-3.5-2.1-7.6-3-11.7-2.6c0.3-3.4,1.8-6.5,3.3-9.5
					c3.6-7.2,7.9-14.3,14.3-19.2c6.4-4.9,15.2-7.3,22.6-4.1c3.8,1.6,7.6,4.1,10.5,7.1c3.8,3.9,6.7,8.5,9.1,13.5
					c1.6,3.5,2.6,7.3,3.3,11.2c3.3,17.6,1.7,36.6-7.4,52c-2,3.5,1.9,3,3.6,6.7c-10.7,1.1-27.5,0.4-45.2,1.4
					c-3.1,0.2-6.4-0.4-8.9-2.1c3.6-1.9,7.8-2.7,11.8-2.1c-4.4-1.6-6.1,0.5-7.7-2.6c-6.3-12.2-7.8-24.3,4.6-37.1
					C130.4,53.1,131.4,51.6,131.8,50z"/>
			</defs>
			<clipPath id="XMLID_2_">
				<use xlink:href="#XMLID_4_"  overflow="visible"/>
			</clipPath>
			<path clip-path="url(#XMLID_2_)" d="M130.1,50.8c-1.8-3.9-2.9-8.3-2.7-12.7s1.6-8.8,4.3-12.1c2.1-2.6,4.8-4.5,7.6-6
				c6.6-3.5,14.6-4.8,21.3-1.5c6.8,3.4,10.9,11.3,12.4,19.1c0.5,2.5,0.6,5.5-1,7.4c-0.4,0.4-0.8,0.8-1,1.4c-0.4,1.3,0.8,2.6,2,3.2
				c2.1,1.2,4.8,2.1,6.9,0.9c2.5-1.4,3.2-4.9,3.4-7.9c0.4-6.2,0.1-12.7-2.4-18.3c-1.7-3.8-4.3-7-7-10c-2.3-2.5-4.7-4.9-7.6-6.5
				c-3.1-1.8-6.7-2.6-10.2-3.2c-8.4-1.3-17.6-1-24.8,3.8c-2.8,1.8-5.1,4.3-7.5,6.7c-2.3,2.3-4.6,4.7-5.9,7.7
				c-1.1,2.4-1.5,5.1-1.9,7.8c-0.5,3.2-0.9,6.6-0.1,9.7c0.8,2.8,2.5,5.1,4.3,7.3c1.2,1.5,2.5,2.9,4.1,3.8s3.7,1.2,5.3,0.4
				L130.1,50.8z"/>
			
				<use xlink:href="#XMLID_4_"  overflow="visible" fill="none" stroke="#000000" stroke-width="3" stroke-linecap="round" stroke-linejoin="round" stroke-miterlimit="10"/>
		</g>
		<path fill="none" stroke="#000000" stroke-width="3" stroke-miterlimit="10" d="M162.1,38.7c0,7.9-6.1,14.3-13.6,14.3
			c-0.8,0-1.6-0.1-2.4-0.2c-6.3-1.2-11.1-7.1-11.1-14.1c0-7.9,6.1-14.3,13.6-14.3S162.1,30.8,162.1,38.7z"/>
		<path fill="none" stroke="#000000" stroke-miterlimit="10" d="M158.9,39.2c0,6.1-4.7,11-10.5,11c-0.6,0-1.3-0.1-1.9-0.2
			c-4.9-0.9-8.6-5.4-8.6-10.9c0-6.1,4.7-11,10.5-11C154.2,28.1,158.9,33.1,158.9,39.2z"/>
		<circle fill="none" stroke="#000000" stroke-width="2" stroke-miterlimit="10" cx="147.9" cy="39.9" r="2.3"/>
		<circle fill="none" stroke="#000000" stroke-width="2" stroke-miterlimit="10" cx="246.9" cy="34.8" r="2.3"/>
		<circle fill="none" stroke="#000000" stroke-width="2" stroke-miterlimit="10" cx="210.2" cy="34.8" r="2.3"/>
		<path fill="none" stroke="#000000" stroke-width="2" stroke-linecap="round" stroke-linejoin="round" stroke-miterlimit="10" d="
			M156.7,60.6c-4.3,0.6-8.5,1.1-12.8,1.7c-1.1,0.2-2.3,0.3-3.3,0.9c-1,0.6-1.8,1.6-1.7,2.8c0.1,0.9,0.7,1.6,1.4,2.1
			c0.7,0.5,1.6,0.7,2.4,1c3.3,0.9,6.6,1.9,9.9,2.8"/>
		<circle fill="none" stroke="#000000" stroke-width="2" stroke-miterlimit="10" cx="51" cy="38.8" r="2.1"/>
		<circle fill="none" stroke="#000000" stroke-width="2" stroke-miterlimit="10" cx="80.6" cy="22.4" r="2.1"/>
		<path fill="none" stroke="#000000" stroke-width="3" stroke-miterlimit="10" d="M101.3,69.2c0,15.8-15,28.6-33.5,28.6
			c-18.5,0-33.3-12.8-33.3-28.6c0-5,4.4-13.9,4.4-13.9c2-5.5,0.8-19.7,0.1-25.3c0,0-0.1,0-0.1-0.1c-0.3-1.5-0.5-3-0.5-4.6
			c0-13,10.2-23.5,22.7-23.5c11.2,0,20.5,8.3,22.4,19.3l0,0c0,0,3.5,16.4,12.8,33.2c0.8,1.5,1.7,3,2.6,4.4
			C100.5,61.9,101.3,65.5,101.3,69.2z"/>
		<path fill="none" stroke="#000000" stroke-width="3" stroke-miterlimit="10" d="M227.7,97.8c19.1-0.9,35.9-15.3,36.1-31.1
			c0.1-13.2-9-28.7-8.5-34.4c0,0-0.6-6.8-0.6-8.3C254,10.9,243,0.9,230,1.5c-21.5,1-22.3,20.4-22.3,20.4s-6.9,15-11.7,33.8
			C188,87.3,208.6,98.7,227.7,97.8z"/>
		<path fill="none" stroke="#000000" stroke-width="3" stroke-linecap="round" stroke-linejoin="round" stroke-miterlimit="10" d="
			M87.8,35.2c0,0,7-3.6,7.9-16.1c0,0,14,21.8-2.4,29.3L87.8,35.2z"/>
		<path fill="none" stroke="#000000" stroke-width="3" stroke-linecap="round" stroke-linejoin="round" stroke-miterlimit="10" d="
			M38.6,55.9c-0.4,0.2-9,5.7-13.2,3.7c0,0,2.2,10.8,9.1,9.6C34.5,69.2,34.6,64.3,38.6,55.9z"/>
		<path d="M47.1,93c-1.3-0.3-2.6-0.6-3.9-0.4s-2.5,1.3-2.5,2.6c0,0.4,0.1,0.8,0.4,1.1c0.2,0.2,0.5,0.3,0.8,0.4
			c1.5,0.5,3.1,0.4,4.5-0.1c1.6-0.6,3.3-1.7,4.8-1c-1.1-1.5-2.7-2.5-4.5-3"/>
		<path d="M206.2,94c-1.3-0.3-2.6-0.6-3.9-0.4c-1.3,0.3-2.5,1.3-2.5,2.6c0,0.4,0.1,0.8,0.4,1.1c0.2,0.2,0.5,0.3,0.8,0.4
			c1.5,0.5,3.1,0.4,4.5-0.1c1.6-0.6,3.3-1.7,4.8-1c-1.1-1.5-2.7-2.5-4.5-3"/>
		<path d="M86.6,92.9c1.1-0.3,2.2-0.5,3.3-0.3s2.1,1.1,2.2,2.2c0,0.3-0.1,0.7-0.3,0.9c-0.2,0.2-0.4,0.3-0.7,0.4
			c-1.3,0.4-2.6,0.4-3.9-0.1c-1.4-0.5-2.8-1.4-4.2-0.9c1-1.3,2.4-2.2,3.9-2.6"/>
		<path d="M247.8,91.9c1.1-0.3,2.2-0.5,3.3-0.3c1.1,0.2,2.1,1.1,2.2,2.2c0,0.3-0.1,0.7-0.3,0.9c-0.2,0.2-0.4,0.3-0.7,0.4
			c-1.3,0.4-2.6,0.4-3.9-0.1c-1.4-0.5-2.8-1.4-4.2-0.9c1-1.3,2.4-2.2,3.9-2.6"/>
		<path fill="none" stroke="#000000" stroke-width="2" stroke-linecap="round" stroke-linejoin="round" stroke-miterlimit="10" d="
			M42.7,74.3c0,0,0.9,14.7,22.7,18.2"/>
		<path stroke="#000000" stroke-width="0.75" stroke-linecap="round" stroke-linejoin="round" stroke-miterlimit="10" d="M38.9,29.9
			c0,0,14.3-18.6,33.4,3.8c0,0,2,0.8,0-3.1s-1.8-17.8,5-22c0,0-9-10.3-24.1-5.4S38.9,29.9,38.9,29.9z"/>
		
			<path fill="none" stroke="#000000" stroke-width="2" stroke-linecap="round" stroke-linejoin="round" stroke-miterlimit="10" stroke-dasharray="0.1,2.5" d="
			M142.7,52.5c0,0-0.8,7,0,10.1"/>
		
			<path fill="none" stroke="#000000" stroke-width="2" stroke-linecap="round" stroke-linejoin="round" stroke-miterlimit="10" stroke-dasharray="0.1,2.5" d="
			M143.9,69.3c0,0-1.4,21.8,27.6,22.3"/>
		<path fill="none" stroke="#000000" stroke-width="2" stroke-linecap="round" stroke-linejoin="round" stroke-miterlimit="10" d="
			M137.2,65.1c-2.6,1.3-6.2-0.9-8.6-6l9.4-4.6C140.4,59.7,139.8,63.8,137.2,65.1z"/>
		
			<line fill="none" stroke="#000000" stroke-width="2" stroke-linecap="round" stroke-linejoin="round" stroke-miterlimit="10" x1="137.2" y1="65.1" x2="140.3" y2="71.9"/>
		
			<line fill="none" stroke="#000000" stroke-width="2" stroke-linecap="round" stroke-linejoin="round" stroke-miterlimit="10" x1="137.2" y1="73.4" x2="143.3" y2="70.9"/>
		<path fill="none" stroke="#000000" stroke-width="2" stroke-linecap="round" stroke-linejoin="round" stroke-miterlimit="10" d="
			M199.9,45c0,0,7,17.7,10.5,18c0,0-13.9,3-14.3-4.3L199.9,45z"/>
		<path fill="none" stroke="#000000" stroke-width="2" stroke-linecap="round" stroke-linejoin="round" stroke-miterlimit="10" d="
			M256.8,37c0,0,6.5-8.6,5.4-13.2c-1-4.6,1.5-1.2,1.5-1.2s7.1,23-2.2,27C261.6,49.6,256.8,41.2,256.8,37z"/>
		<path stroke="#000000" stroke-miterlimit="10" d="M207.7,21.9c0,0,17.1-7.5,19.3,21.4c0,0,0.7,3.3,2-1.6s7.8-29.8,25.6-17.8
			c0,0-1.1-18-21.3-22.4c0,0-21.4-3.8-26.1,21.4"/>
		<path fill="none" stroke="#000000" stroke-width="2" stroke-linecap="round" stroke-linejoin="round" stroke-miterlimit="10" d="
			M259.6,18.4c0,0,0.1-2.6,2-4.4"/>
		<path fill="none" stroke="#000000" stroke-width="2" stroke-linecap="round" stroke-linejoin="round" stroke-miterlimit="10" d="
			M256.7,17.4c0,0,0.1-3.9,3.1-6.8"/>
		<path fill="none" stroke="#000000" stroke-width="2" stroke-linecap="round" stroke-linejoin="round" stroke-miterlimit="10" d="
			M268.8,27.2c0,0,1.7-1.9,1.2-5"/>
		<path fill="none" stroke="#000000" stroke-width="2" stroke-linecap="round" stroke-linejoin="round" stroke-miterlimit="10" d="
			M272.1,29c0,0,2.7-2.9,1.8-7.7"/>
		<path fill="none" stroke="#000000" stroke-width="2" stroke-linecap="round" stroke-linejoin="round" stroke-miterlimit="10" d="
			M256.7,62.6c0,0,5.1,28-31.7,29.9"/>
	</g>
	<g>
	</g>
	<g>
	</g>
	<g>
	</g>
	<g>
	</g>
	<g>
	</g>
	<g>
	</g>
	<g>
	</g>
	<g>
	</g>
	<g>
	</g>
	<g>
	</g>
	<g>
	</g>
	<g>
	</g>
	<g>
	</g>
	<g>
	</g>
	<g>
	</g>
</g>
</svg>
