<?xml version="1.0" encoding="utf-8"?>
<!-- Generator: Adobe Illustrator 18.1.0, SVG Export Plug-In . SVG Version: 6.00 Build 0)  -->
<!DOCTYPE svg PUBLIC "-//W3C//DTD SVG 1.1//EN" "http://www.w3.org/Graphics/SVG/1.1/DTD/svg11.dtd">
<svg version="1.1" xmlns="http://www.w3.org/2000/svg" xmlns:xlink="http://www.w3.org/1999/xlink" x="0px" y="0px"
	 viewBox="0 0 100 100" enable-background="new 0 0 100 100" xml:space="preserve">
<g id="Layer_1">
</g>
<g id="Layer_3">
	<g>
		<g>
			<path d="M63,43.2c-1.6,0-3.2-0.2-4.8-0.7c-6.7-1.9-11.4-7.2-11.8-13.3c-0.1-0.5-0.2-1.1-0.2-1.9c0.1-2.9,1-6.1,2.8-9.3
				c1.2-2.1,2.6-4.4,4.6-7C55.6,5,61,0.8,66.8,0.8c1.1,0,2.2,0.1,3.2,0.4c6.2,1.7,10.3,9.3,9.1,17c0.1,1.9,0,3.2-0.2,4.9
				c-0.1,0.7-0.2,1.4-0.2,2.2c0,0.5-0.1,0.9-0.1,1.4c-0.1,1.1-0.1,2.2-0.3,3.3c-0.3,1.7-0.8,3.2-1.6,4.7c-0.1,0.1-0.1,0.2-0.2,0.3
				C74.4,39.9,69.1,43.2,63,43.2z M66.8,1.8c-5.4,0-10.4,4-12.3,9.7c0,0.1,0,0.1-0.1,0.1c-2,2.6-3.4,4.8-4.5,6.9
				c-1.7,3.1-2.6,6-2.7,8.8c0,0.6,0,1.2,0.1,1.6c0,0,0,0.1,0,0.1c0.4,5.7,4.8,10.6,11.1,12.4c1.5,0.4,3,0.6,4.5,0.6
				c5.7,0,10.6-3,12.6-7.6c0,0,0-0.1,0-0.1c0.1-0.1,0.1-0.2,0.2-0.3c0.7-1.4,1.3-2.8,1.5-4.4c0.2-1.1,0.2-2.1,0.3-3.2
				c0-0.5,0.1-0.9,0.1-1.4c0.1-0.8,0.1-1.5,0.2-2.2c0.2-1.6,0.3-2.9,0.2-4.7c0,0,0-0.1,0-0.1c1.1-7.1-2.6-14.2-8.3-15.8
				C68.8,2,67.8,1.8,66.8,1.8z"/>
		</g>
		<g>
			<path d="M77.6,8.5c-0.5-0.8-1.2-1.5-1.8-2.2c-0.8-0.8-1.7-1.7-2.5-2.5c-0.5-0.5-1-1-1.5-1.3c-1.1-0.6-2.3-0.7-3.6-0.7
				c-1.6,0-3.2,0.1-4.8,0.3c-0.9,0.1-1.8,0.3-2.6,0.7c-0.6,0.4-1.1,0.9-1.6,1.4c-0.9,0.9-1.7,1.8-2.5,2.7c-0.3,0.3-0.6,0.7-0.6,1.2
				c0.6-0.5,1.5-0.7,2.2-0.6c1.3,0.2,2.3,1.2,2.8,2.4c0.5,1.2,0.7,2.5,0.9,3.7c0.4,2.7,0.9,5.4,1.5,8c0.1,0.3,0.2,0.6,0.5,0.7
				c0.2,0.1,0.5,0,0.7-0.2c0.6-0.4,1.2-1.1,1.7-1.6c1.8-2.1,3.9-4,6.1-5.7c0.8-0.6,1.6-1.2,2.6-1.5c1.4-0.4,2.9,0,3.9,1
				c0.1-1.2-0.2-2.3-0.5-3.4C78.2,10,78,9.2,77.6,8.5z"/>
		</g>
		<g>
			<path d="M56.8,14.1c-0.1,0-0.3,0-0.4-0.1c-0.9-0.2-1.4-1.1-1.1-2c0.2-0.7,0.8-1.2,1.6-1.2c0.1,0,0.3,0,0.4,0.1
				c0.9,0.2,1.4,1.1,1.1,2C58.2,13.6,57.6,14.1,56.8,14.1z M56.8,11.9c-0.3,0-0.5,0.2-0.6,0.4c-0.1,0.3,0.1,0.6,0.4,0.7
				c0.3,0.1,0.6-0.1,0.7-0.4c0.1-0.3-0.1-0.6-0.4-0.7C56.9,11.9,56.9,11.9,56.8,11.9z"/>
		</g>
		<g>
			<path d="M75.7,19.3c-0.1,0-0.3,0-0.4-0.1c-0.9-0.2-1.4-1.1-1.1-2c0.2-0.7,0.8-1.2,1.6-1.2c0.1,0,0.3,0,0.4,0.1
				c0.9,0.2,1.4,1.1,1.1,2C77.1,18.9,76.5,19.3,75.7,19.3z M75.7,17.1c-0.3,0-0.5,0.2-0.6,0.4c-0.1,0.3,0.1,0.6,0.4,0.7
				c0.3,0.1,0.6-0.1,0.7-0.4c0.1-0.3-0.1-0.6-0.4-0.7C75.8,17.1,75.8,17.1,75.7,17.1z"/>
		</g>
		<g>
			<path d="M75.6,25.3c-0.5,0-1.1-0.1-1.6-0.2c-0.4-0.1-0.7-0.2-1-0.4c-2.7-1.3-4-4.5-3.1-7.5c0.8-2.8,3.3-4.8,6.1-4.8
				c0.5,0,1.1,0.1,1.6,0.2c3.3,0.9,5.1,4.4,4.2,7.9C80.9,23.3,78.4,25.3,75.6,25.3z M75.9,13.5c-2.3,0-4.4,1.6-5.1,4
				c-0.7,2.5,0.4,5.1,2.6,6.2c0.3,0.1,0.6,0.2,0.9,0.3c0.4,0.1,0.9,0.2,1.3,0.2c2.3,0,4.4-1.6,5.1-4c0.8-2.9-0.8-5.8-3.5-6.6
				C76.8,13.6,76.4,13.5,75.9,13.5z"/>
		</g>
		<g>
			<path d="M75.6,23.8c-0.4,0-0.8-0.1-1.2-0.2c-0.3-0.1-0.5-0.2-0.8-0.3c-2-1-2.9-3.3-2.3-5.5c0.6-2.1,2.4-3.5,4.5-3.5
				c0.4,0,0.8,0.1,1.2,0.2c2.4,0.7,3.8,3.3,3.1,5.8C79.5,22.3,77.6,23.8,75.6,23.8z M75.8,14.7c-1.9,0-3.6,1.3-4.1,3.2
				c-0.6,2,0.3,4.2,2.1,5.1c0.2,0.1,0.5,0.2,0.7,0.3c0.3,0.1,0.7,0.1,1.1,0.1c1.9,0,3.6-1.3,4.1-3.2c0.6-2.3-0.6-4.7-2.8-5.3
				C76.5,14.7,76.1,14.7,75.8,14.7z"/>
		</g>
		<g>
			<path d="M75.1,35.5c-0.1,0-0.1,0-0.2-0.1l0,0c-0.1-0.1-0.1-0.3,0-0.4c0.1-0.1,0.3-0.1,0.4,0l0,0c0.1,0.1,0.1,0.3,0,0.4
				C75.2,35.5,75.2,35.5,75.1,35.5z M74.4,34.9c-0.1-0.1-0.1-0.3,0-0.4c0.1-0.1,0.3-0.1,0.4,0l-0.2,0.2l0.2-0.1l-0.2,0.2L74.4,34.9z
				 M74.2,34.4c-0.1,0-0.2,0-0.2-0.1c-0.1-0.1,0-0.3,0.1-0.4c0.1-0.1,0.3,0,0.3,0.1c0,0,0,0,0,0c0.1,0.1,0,0.3-0.1,0.4
				C74.3,34.4,74.3,34.4,74.2,34.4z M73.9,33.8c-0.1,0-0.2-0.1-0.2-0.2c-0.1-0.1,0-0.3,0.1-0.4c0.1-0.1,0.3,0,0.3,0.1l0,0.1
				c0.1,0.1,0,0.3-0.1,0.3C74,33.8,73.9,33.8,73.9,33.8z M73.6,33.1c-0.1,0-0.2-0.1-0.3-0.2c-0.1-0.1,0-0.3,0.1-0.4
				c0.1-0.1,0.3,0,0.3,0.1l0,0.1C73.9,32.9,73.9,33,73.6,33.1C73.7,33.1,73.7,33.1,73.6,33.1z M73.4,32.4c-0.1,0-0.2-0.1-0.3-0.2
				c0-0.1,0-0.3,0.2-0.4c0.1,0,0.3,0,0.3,0.1c0,0,0,0.1,0,0.1C73.7,32.2,73.6,32.4,73.4,32.4C73.5,32.4,73.4,32.4,73.4,32.4z
				 M73.2,31.7c-0.1,0-0.2-0.1-0.3-0.2l0-0.1c0-0.1,0-0.3,0.2-0.3c0.1,0,0.3,0,0.3,0.2l0,0C73.5,31.5,73.4,31.7,73.2,31.7
				C73.2,31.7,73.2,31.7,73.2,31.7z M73,31.1c-0.1,0-0.2-0.1-0.3-0.2c0-0.1,0-0.3,0.2-0.4c0.1,0,0.3,0,0.3,0.2l0,0.1
				C73.3,30.9,73.2,31,73,31.1C73,31.1,73,31.1,73,31.1z M72.8,30.4c-0.1,0-0.2-0.1-0.3-0.2c0-0.1,0-0.3,0.2-0.3
				c0.1,0,0.3,0,0.3,0.2c0,0,0,0.1,0,0.1C73.1,30.2,73,30.3,72.8,30.4C72.8,30.4,72.8,30.4,72.8,30.4z M72.6,29.7
				c-0.1,0-0.2-0.1-0.3-0.2c0-0.1,0.1-0.3,0.2-0.3c0.1,0,0.3,0,0.3,0.2l-0.3,0.1l0.3-0.1c0,0,0,0.1,0,0.1
				C72.9,29.5,72.8,29.6,72.6,29.7C72.6,29.7,72.6,29.7,72.6,29.7z M72.5,29c-0.1,0-0.2-0.1-0.3-0.2c0-0.1,0.1-0.3,0.2-0.3
				c0.1,0,0.3,0,0.3,0.2l0,0.1C72.7,28.8,72.6,28.9,72.5,29C72.5,29,72.5,29,72.5,29z M72.3,28.3c-0.1,0-0.2-0.1-0.3-0.2l0-0.1
				c0-0.1,0.1-0.3,0.2-0.3c0.1,0,0.3,0.1,0.3,0.2l-0.3,0l0.3,0C72.6,28.1,72.5,28.3,72.3,28.3C72.4,28.3,72.4,28.3,72.3,28.3z
				 M72.3,27.6c-0.1,0-0.3-0.1-0.3-0.3c0-0.1,0.1-0.3,0.3-0.3c0.2,0,0.3,0.1,0.3,0.2c0,0,0,0.1,0,0.1C72.5,27.4,72.4,27.6,72.3,27.6
				C72.3,27.6,72.3,27.6,72.3,27.6z M72.3,26.8C72.3,26.8,72.3,26.8,72.3,26.8c-0.2,0-0.3-0.1-0.3-0.3l0-0.1c0-0.1,0.1-0.3,0.3-0.3
				c0.1,0,0.3,0.1,0.3,0.3l0,0.1C72.5,26.7,72.4,26.8,72.3,26.8z M72.3,26.1C72.3,26.1,72.3,26.1,72.3,26.1c-0.2,0-0.3-0.2-0.3-0.3
				c0-0.1,0.2-0.3,0.3-0.3c0.1,0,0.2,0.1,0.2,0.3c0,0,0,0.1,0,0.1C72.6,26,72.4,26.1,72.3,26.1z M72.4,25.4
				C72.4,25.4,72.4,25.4,72.4,25.4c-0.2,0-0.3-0.2-0.3-0.3c0-0.1,0.2-0.3,0.3-0.2c0.1,0,0.2,0.2,0.2,0.3l0,0.1
				C72.7,25.3,72.6,25.4,72.4,25.4z M72.6,24.7C72.6,24.7,72.6,24.7,72.6,24.7c-0.2-0.1-0.3-0.2-0.3-0.4l0-0.1
				c0.1-0.1,0.2-0.2,0.3-0.2c0.1,0.1,0.2,0.2,0.2,0.3l0,0C72.8,24.7,72.7,24.7,72.6,24.7z"/>
		</g>
		<g>
			<path d="M51.5,40.3c-0.2,0.6-0.4,1.1-0.3,1.7c0.1,0.6,0.5,1.2,1.1,1.2c0.2,0,0.4,0,0.5-0.1c0.1-0.1,0.2-0.2,0.2-0.3
				c0.3-0.6,0.3-1.4,0.1-2c-0.2-0.7-0.6-1.5-0.3-2.2c-0.7,0.5-1.2,1.1-1.5,1.9"/>
		</g>
		<g>
			<path d="M63.1,44.7c-0.3,0.5-0.5,1.1-1,1.4c-0.5,0.4-1.2,0.5-1.6,0.1c-0.1-0.1-0.2-0.3-0.3-0.5c0-0.1,0-0.3,0.1-0.4
				c0.3-0.6,0.7-1.2,1.3-1.5c0.7-0.4,1.5-0.6,1.7-1.4c0.2,0.8,0.1,1.7-0.3,2.4"/>
		</g>
		<g>
			<path d="M49.3,18.7c-0.1,0-0.2,0-0.3-0.1c-0.2-0.1-0.3-0.3-0.2-0.5c0.8-4.3-0.4-8.9-1.6-12.7c-0.1-0.2-0.3-0.9,0-1.4
				c0.1-0.2,0.4-0.4,0.6-0.5c0.3-0.1,0.5,0,0.8,0.1c1.6,0.7,2.9,2,3.6,3.6c0.4,0.8,0.6,1.7,0.7,2.5c0.2,0.8,0.3,1.7,0.3,2.5
				c-0.1,1.2-0.7,2.3-1.2,3.3c-0.5,1.1-1.2,2.4-2.4,3.1C49.5,18.7,49.4,18.7,49.3,18.7z M48.1,4.5c0,0.1,0,0.3,0.1,0.5
				c1.2,3.6,2.3,7.7,1.9,11.7c0.4-0.5,0.7-1.2,1-1.7c0.5-0.9,1-1.9,1.1-2.9c0.1-0.7-0.1-1.4-0.2-2.2c-0.2-0.8-0.4-1.6-0.7-2.3
				C50.6,6.2,49.5,5.1,48.1,4.5C48.1,4.6,48.1,4.5,48.1,4.5z"/>
		</g>
		<g>
			<path d="M78.4,27C78.4,27,78.4,27,78.4,27c-0.2,0-0.4,0-0.5-0.2c-0.5-1.3-0.3-2.7-0.2-3.9c0.1-1.1,0.3-2.3,0.9-3.3
				c0.4-0.7,1-1.3,1.7-1.9c0.7-0.6,1.3-1.2,2.1-1.6c1.5-0.9,3.3-1.2,5-0.8c0.1,0,0.5,0.1,0.7,0.3c0.2,0.2,0.3,0.5,0.3,0.7
				c-0.1,0.6-0.6,1.1-0.8,1.2c-3.3,2.4-6.9,5.3-8.7,9.3C78.8,27,78.6,27,78.4,27z M86,16.1c-1.1,0-2.1,0.3-3,0.8
				c-0.7,0.4-1.3,0.9-1.9,1.5c-0.6,0.6-1.1,1.1-1.5,1.7c-0.5,0.9-0.7,1.9-0.8,3c-0.1,0.6-0.2,1.3-0.2,2c2-3.5,5.3-6.3,8.3-8.5
				c0.2-0.1,0.3-0.3,0.3-0.4c0,0-0.1,0-0.1,0C86.8,16.1,86.4,16.1,86,16.1z"/>
		</g>
		<g>
			<path d="M48.8,99.8C31.8,99.8,18,86,18,69c0-17,13.8-30.8,30.8-30.8S79.7,51.9,79.7,69C79.7,86,65.8,99.8,48.8,99.8z M48.8,40.8
				c-15.5,0-28.2,12.6-28.2,28.2c0,15.5,12.6,28.2,28.2,28.2S77,84.5,77,69C77,53.4,64.4,40.8,48.8,40.8z"/>
		</g>
		<g>
			<g>
				<path d="M19.4,69.5c-4.9,1.6-9.5,3.9-13.6,6.9c-2,1.5-7.3,4.6-4.9,7.7c2.2,2.8,8.2,1.3,11,0.9c5.8-0.8,11.6-1.9,17.3-3
					c11.5-2.1,23.1-4.4,34.4-7.4c10.9-2.9,22.3-6.2,32.3-11.5c3.5-1.8,4.6-5.6,0.1-6.8c-6.1-1.5-12.9-0.8-18.8,0.8
					c-1,0.3-0.6,1.8,0.4,1.5c4.5-1.3,9.2-1.8,13.8-1.4c1.2,0.1,3.1,0,4.2,0.6c1,0.6,0.5-0.6,1,1.4c0.4,1.4,0.3,1.4-0.8,2.1
					c-1.8,1.2-4,1.9-6,2.8c-8.3,3.5-16.9,6.4-25.6,8.7C47.2,77.4,29.7,81,12.4,83.4c-2.5,0.3-5.7,1-8.2,0.6c-1.3-0.2-1,0.1-1.3-1.6
					c-0.3-1.6-0.4-1.4,0.6-2.2c1.1-0.9,2.2-1.8,3.4-2.6c4-2.8,8.3-5,12.9-6.5C20.8,70.7,20.3,69.2,19.4,69.5L19.4,69.5z"/>
			</g>
		</g>
	</g>
</g>
</svg>
