<?xml version="1.0" encoding="utf-8"?>
<!-- Generator: Adobe Illustrator 18.1.0, SVG Export Plug-In . SVG Version: 6.00 Build 0)  -->
<!DOCTYPE svg PUBLIC "-//W3C//DTD SVG 1.1//EN" "http://www.w3.org/Graphics/SVG/1.1/DTD/svg11.dtd">
<svg version="1.1" xmlns="http://www.w3.org/2000/svg" xmlns:xlink="http://www.w3.org/1999/xlink" x="0px" y="0px"
	 viewBox="0 0 982.5 270" enable-background="new 0 0 982.5 270" xml:space="preserve">
<g id="Layer_1">
	<g>
		<path fill="#F47B20" d="M303.7,115c0,0,21.4,3.5,24.1,20.6c0.3,2,2,3.6,4.1,3.6h3.9c2.4,0,4.4-2.1,4.1-4.5
			c-0.8-8.8-6.4-27.7-38.6-32.9C259,95,303.7,115,303.7,115z"/>
		
			<ellipse transform="matrix(0.964 0.266 -0.266 0.964 23.7666 -33.8063)" fill="#F47B20" stroke="#FFFFFF" stroke-width="6" stroke-miterlimit="10" cx="136.7" cy="70.8" rx="35.7" ry="38"/>
		<path fill="#F47B20" d="M113.7,125.1c0,0-40.9-7.1-46-42.4c-0.6-4.2-3.9-7.3-7.8-7.3h-7.4c-4.7,0-8.3,4.3-7.9,9.3
			c1.6,18,12.3,56.8,73.6,67.5C199,166.3,113.7,125.1,113.7,125.1z"/>
		<path fill="#F47B20" stroke="#FFFFFF" stroke-width="8" stroke-miterlimit="10" d="M238.8,62.8L238.8,62.8
			c-45.1,0-81.6,39.4-81.6,88l0,43.5c0,4.3,0.3,8.6,0.9,12.8c0.7,5.5,5.4,9.6,10.9,9.6h24.2c5.1,0,9.5-3.5,10.7-8.5
			c4-16.8,18.1-29.1,34.9-29.1h0c16.8,0,31,12.4,35,29.2c1.2,4.9,5.5,8.4,10.5,8.4h24.5c5.4,0,10-4,10.7-9.4
			c0.6-4.2,0.9-8.5,0.9-12.9l0-43.5C320.4,102.2,283.9,62.8,238.8,62.8z"/>
		<circle fill="#F47B20" stroke="#FFFFFF" stroke-width="8" stroke-miterlimit="10" cx="157.8" cy="108.6" r="58"/>
		
			<ellipse transform="matrix(0.964 0.266 -0.266 0.964 39.3836 -51.1274)" fill="#F47B20" stroke="#FFFFFF" stroke-width="8" stroke-miterlimit="10" cx="208.4" cy="119.8" rx="35.7" ry="38"/>
		<circle fill="#FFFFFF" cx="145.8" cy="139.3" r="12"/>
	</g>
</g>
<g id="_x3C_Layer_x3E_">
	<text transform="matrix(1 0 0 1 368.093 181.3657)" fill="#6D6E71" font-family="'FranklinGothicStd-Roman'" font-size="106.0778">HUBALOO</text>
</g>
</svg>
