<?xml version="1.0" encoding="utf-8"?>
<!-- Generator: Adobe Illustrator 18.1.0, SVG Export Plug-In . SVG Version: 6.00 Build 0)  -->
<!DOCTYPE svg PUBLIC "-//W3C//DTD SVG 1.1//EN" "http://www.w3.org/Graphics/SVG/1.1/DTD/svg11.dtd">
<svg version="1.1" xmlns="http://www.w3.org/2000/svg" xmlns:xlink="http://www.w3.org/1999/xlink" x="0px" y="0px"
	 viewBox="0 0 295.3 190.7" enable-background="new 0 0 295.3 190.7" xml:space="preserve">
<g id="Layer_1">
	<g>
		<path fill="#F47B20" d="M259.1,85c0,0,21.4,3.5,24.1,20.6c0.3,2,2,3.6,4.1,3.6h3.9c2.4,0,4.4-2.1,4.1-4.5
			c-0.8-8.8-6.4-27.7-38.6-32.9C214.4,64.9,259.1,85,259.1,85z"/>
		
			<ellipse transform="matrix(0.964 0.266 -0.266 0.964 14.1753 -23.019)" fill="#F47B20" stroke="#FFFFFF" stroke-width="6" stroke-miterlimit="10" cx="92.1" cy="40.8" rx="35.7" ry="38"/>
		<path fill="#F47B20" d="M69.1,95.1c0,0-40.9-7.1-46-42.4c-0.6-4.2-3.9-7.3-7.8-7.3H7.9c-4.7,0-8.3,4.3-7.9,9.3
			c1.6,18,12.3,56.8,73.6,67.5C154.3,136.3,69.1,95.1,69.1,95.1z"/>
		<path fill="#F47B20" stroke="#FFFFFF" stroke-width="8" stroke-miterlimit="10" d="M194.2,32.8L194.2,32.8
			c-45.1,0-81.6,39.4-81.6,88l0,43.5c0,4.3,0.3,8.6,0.9,12.8c0.7,5.5,5.4,9.6,10.9,9.6h24.2c5.1,0,9.5-3.5,10.7-8.5
			c4-16.8,18.1-29.1,34.9-29.1h0c16.8,0,31,12.4,35,29.2c1.2,4.9,5.5,8.4,10.5,8.4h24.5c5.4,0,10-4,10.7-9.4
			c0.6-4.2,0.9-8.5,0.9-12.9l0-43.5C275.8,72.2,239.3,32.8,194.2,32.8z"/>
		<circle fill="#F47B20" stroke="#FFFFFF" stroke-width="8" stroke-miterlimit="10" cx="113.1" cy="78.6" r="58"/>
		
			<ellipse transform="matrix(0.964 0.266 -0.266 0.964 29.7922 -40.3401)" fill="#F47B20" stroke="#FFFFFF" stroke-width="8" stroke-miterlimit="10" cx="163.8" cy="89.8" rx="35.7" ry="38"/>
		<circle fill="#FFFFFF" cx="101.2" cy="109.3" r="12"/>
	</g>
</g>
<g id="_x3C_Layer_x3E_">
</g>
</svg>
