<?xml version="1.0" encoding="utf-8"?>
<!-- Generator: Adobe Illustrator 18.1.0, SVG Export Plug-In . SVG Version: 6.00 Build 0)  -->
<!DOCTYPE svg PUBLIC "-//W3C//DTD SVG 1.1//EN" "http://www.w3.org/Graphics/SVG/1.1/DTD/svg11.dtd">
<svg version="1.1" xmlns="http://www.w3.org/2000/svg" xmlns:xlink="http://www.w3.org/1999/xlink" x="0px" y="0px"
	 viewBox="0 0 100 100" enable-background="new 0 0 100 100" xml:space="preserve">
<g id="Layer_1">
</g>
<g id="Layer_3">
	<g>
		<g>
			<path d="M22.8,72.3c0,0-0.1,0-0.1,0c-0.7-0.1-1.5-0.1-2.4,0c-0.4,0-0.7,0-1.1,0c-0.7,0-1.4,0-1.9-0.1c-1.9-0.3-4.3-1.3-5.1-3.5
				c-0.4-1-0.3-2.1-0.3-2.9c0.3-7.8,1.5-16.5,3.3-23.3c0.1-0.5,0.7-0.9,1.2-0.7c0.5,0.1,0.9,0.7,0.8,1.2c-1.4,6.9-0.9,15.4,1.4,21.6
				c1.2,3.3,2.7,5.1,4.6,5.7c0.5,0.2,0.8,0.7,0.7,1.2C23.7,72,23.3,72.3,22.8,72.3z M14.6,57c-0.3,3-0.6,6-0.7,8.9
				c0,0.8,0,1.5,0.2,2.1c0.5,1.3,2.1,2,3.4,2.2c0.5,0.1,1.1,0.1,1.8,0.1c-1.1-1.2-2-2.8-2.8-4.9C15.6,62.8,15,60,14.6,57z"/>
		</g>
		<g>
			<path d="M42.2,92.2c-13.4,0-25-7.5-29-18.6c-0.5-0.9-1-2-1.3-3.4c-1.3-5.6-1.2-11.9,0.4-18.8c1-4.6,2.6-9.5,4.9-15.5
				C18,20.8,29.3,8.9,42.8,8.9c12.5,0,24.1,12.1,25.9,26.9c1.2,3.4,1.7,6.1,2.2,9.2c0.2,1.3,0.4,2.7,0.7,4.2
				c0.2,0.9,0.4,1.8,0.6,2.7c0.4,2.1,0.9,4.2,1.1,6.4c0.3,3.2,0.1,6.5-0.6,9.6c-0.1,0.2-0.1,0.4-0.2,0.7
				C70.8,82.1,57.8,92.2,42.2,92.2z M42.8,11c-12.5,0-22.9,11.1-23.6,25.3c0,0.1,0,0.2-0.1,0.3c-2.3,5.9-3.8,10.8-4.9,15.3
				c-1.5,6.6-1.6,12.6-0.4,17.8c0.3,1.2,0.6,2.1,1.1,2.8c0,0.1,0.1,0.1,0.1,0.2c3.7,10.4,14.6,17.3,27.1,17.3
				c14.6,0,26.7-9.4,28.2-21.9c0-0.1,0-0.1,0-0.2c0.1-0.2,0.1-0.4,0.2-0.6c0.7-2.9,0.9-5.9,0.6-9c-0.2-2.1-0.7-4.1-1.1-6.2
				c-0.2-0.9-0.4-1.8-0.6-2.7c-0.3-1.6-0.5-3-0.7-4.3c-0.5-3-0.9-5.6-2.1-8.9c0-0.1,0-0.2-0.1-0.2C65,22.3,54.4,11,42.8,11z"/>
		</g>
		<g>
			<path d="M60.8,18.6c-1.3-1.3-3-2.3-4.6-3.2c-2-1.1-4-2.3-6-3.4c-1.1-0.6-2.3-1.3-3.6-1.6c-2.3-0.6-4.7-0.1-7,0.5
				c-3,0.8-5.9,1.8-8.7,3c-1.6,0.7-3.3,1.5-4.5,2.7c-1,1-1.7,2.2-2.3,3.4c-1.1,2.1-2.2,4.2-3.2,6.3c-0.4,0.8-0.7,1.6-0.5,2.5
				c0.9-1.2,2.4-2.1,3.9-2.3c2.5-0.3,4.9,1.1,6.5,3s2.6,4.3,3.6,6.5c2.1,4.8,4.4,9.6,7,14.2c0.3,0.5,0.7,1.1,1.2,1.1
				c0.5,0,0.9-0.4,1.2-0.7c1-1.2,1.6-2.6,2.3-3.9c2.4-4.8,5.2-9.4,8.4-13.8c1.1-1.6,2.4-3.1,4-4.1c2.3-1.4,5.4-1.5,7.8-0.2
				c-0.3-2.2-1.5-4.2-2.7-6.2C62.8,21.1,61.9,19.7,60.8,18.6z"/>
		</g>
		<g>
			<path d="M24.1,40c-1.7,0-3.2-1.4-3.2-3.2c0-1.7,1.4-3.2,3.2-3.2s3.2,1.4,3.2,3.2C27.2,38.5,25.8,40,24.1,40z M24.1,35.7
				c-0.6,0-1.1,0.5-1.1,1.1c0,0.6,0.5,1.1,1.1,1.1c0.6,0,1.1-0.5,1.1-1.1C25.2,36.2,24.7,35.7,24.1,35.7z"/>
		</g>
		<g>
			<path d="M62.1,40c-1.7,0-3.2-1.4-3.2-3.2c0-1.7,1.4-3.2,3.2-3.2c1.7,0,3.2,1.4,3.2,3.2C65.3,38.5,63.9,40,62.1,40z M62.1,35.7
				c-0.6,0-1.1,0.5-1.1,1.1c0,0.6,0.5,1.1,1.1,1.1s1.1-0.5,1.1-1.1C63.2,36.2,62.7,35.7,62.1,35.7z"/>
		</g>
		<g>
			<path d="M62.8,51.4c-0.7,0-1.4-0.1-2.1-0.2c-5.7-1.1-9.8-6.3-9.8-12.3c0-6.9,5.3-12.5,11.9-12.5S74.7,32,74.7,38.9
				C74.7,45.8,69.4,51.4,62.8,51.4z M62.8,28.5c-5.4,0-9.9,4.7-9.9,10.5c0,5.1,3.4,9.4,8.1,10.3c0.6,0.1,1.2,0.2,1.8,0.2
				c5.4,0,9.9-4.7,9.9-10.5S68.2,28.5,62.8,28.5z"/>
		</g>
		<g>
			<path d="M62.7,48.5c-0.5,0-1.1-0.1-1.6-0.1c-4.2-0.8-7.2-4.6-7.2-9.1c0-5.1,3.9-9.2,8.8-9.2s8.8,4.1,8.8,9.2S67.6,48.5,62.7,48.5
				z M62.7,30.8c-4.4,0-8,3.8-8,8.5c0,4.1,2.8,7.6,6.6,8.3c0.5,0.1,1,0.1,1.4,0.1c4.4,0,8-3.8,8-8.5S67.1,30.8,62.7,30.8z"/>
		</g>
		<g>
			<path d="M70.1,70.4c-0.1,0-0.2,0-0.2-0.1c-0.3-0.1-0.4-0.5-0.3-0.7c0.1-0.3,0.4-0.4,0.6-0.3l0.1,0c0.3,0.1,0.4,0.4,0.2,0.7
				C70.4,70.3,70.3,70.4,70.1,70.4z M68.9,69.7c-0.1,0-0.2,0-0.3-0.1l-0.1-0.1c-0.2-0.2-0.3-0.5-0.1-0.7c0.2-0.2,0.5-0.3,0.7-0.1
				l0.1,0c0.2,0.2,0.3,0.5,0.1,0.7C69.2,69.6,69.1,69.7,68.9,69.7z M67.8,68.8c-0.1,0-0.3-0.1-0.4-0.2c-0.2-0.2-0.2-0.6,0-0.8
				c0.2-0.2,0.5-0.2,0.7,0l0.1,0.1c0.2,0.2,0.2,0.5,0,0.7C68.1,68.7,68,68.8,67.8,68.8z M66.9,67.8c-0.1,0-0.3-0.1-0.4-0.2
				c-0.2-0.2-0.2-0.6,0-0.8c0.2-0.2,0.5-0.2,0.7,0l0.1,0.1c0.2,0.2,0.1,0.5-0.1,0.7C67.1,67.7,67,67.8,66.9,67.8z M66.1,66.7
				c-0.2,0-0.3-0.1-0.4-0.2c-0.2-0.2-0.1-0.6,0.1-0.8c0.2-0.2,0.5-0.2,0.7,0.1c0,0,0.1,0.1,0.1,0.1c0.2,0.2,0.1,0.6-0.1,0.7
				C66.3,66.6,66.2,66.7,66.1,66.7z M65.3,65.5c-0.2,0-0.3-0.1-0.4-0.2c-0.1-0.2-0.1-0.6,0.1-0.7c0.2-0.2,0.5-0.1,0.7,0.1
				c0,0,0.1,0.1,0.1,0.1c0.1,0.2,0.1,0.6-0.2,0.7C65.5,65.5,65.4,65.5,65.3,65.5z M64.5,64.3c-0.2,0-0.3-0.1-0.4-0.2
				c-0.2-0.2-0.1-0.6,0.1-0.8c0.2-0.2,0.5-0.1,0.7,0.1l0.1,0.1c0.2,0.2,0.1,0.6-0.2,0.7C64.7,64.3,64.6,64.3,64.5,64.3z M63.8,63.2
				c-0.2,0-0.3-0.1-0.4-0.2c-0.1-0.2-0.1-0.6,0.1-0.8c0.2-0.1,0.5-0.1,0.7,0.1l0.1,0.1c0.1,0.2,0.1,0.6-0.2,0.7
				C64,63.2,63.9,63.2,63.8,63.2z M63.1,62c-0.2,0-0.3-0.1-0.4-0.3c0,0-0.1-0.1-0.1-0.1c-0.1-0.2-0.1-0.6,0.2-0.7
				c0.2-0.1,0.6-0.1,0.7,0.2L63,61.4l0.5-0.2c0.1,0.2,0.1,0.6-0.2,0.7C63.2,62,63.1,62,63.1,62z M62.4,60.8c-0.2,0-0.4-0.1-0.4-0.3
				l-0.1-0.1c-0.1-0.3,0-0.6,0.2-0.7c0.2-0.1,0.6,0,0.7,0.2l0,0.1c0.1,0.2,0.1,0.6-0.2,0.7C62.5,60.8,62.5,60.8,62.4,60.8z
				 M61.7,59.6c-0.2,0-0.4-0.1-0.5-0.3l0-0.1c-0.1-0.3,0-0.6,0.2-0.7s0.6,0,0.7,0.2l0,0.1c0.1,0.3,0,0.6-0.2,0.7
				C61.9,59.5,61.8,59.6,61.7,59.6z M61.2,58.3c-0.2,0-0.4-0.1-0.5-0.3c-0.1-0.3,0-0.6,0.3-0.7c0.3-0.1,0.5,0,0.7,0.2
				c0,0,0,0.1,0,0.1c0.1,0.3,0,0.6-0.3,0.7C61.3,58.3,61.2,58.3,61.2,58.3z M60.7,57c-0.2,0-0.4-0.1-0.5-0.4
				c-0.1-0.3,0.1-0.6,0.3-0.7c0.3-0.1,0.5,0,0.6,0.3c0,0,0,0.1,0,0.1c0.1,0.3-0.1,0.6-0.3,0.6C60.8,57,60.7,57,60.7,57z M60.3,55.7
				c-0.2,0-0.4-0.2-0.5-0.4c-0.1-0.3,0.1-0.6,0.4-0.7c0.3-0.1,0.5,0.1,0.6,0.3l0,0.1c0.1,0.3-0.1,0.6-0.4,0.6
				C60.3,55.7,60.3,55.7,60.3,55.7z M60,54.3c-0.3,0-0.5-0.2-0.5-0.4c0,0,0-0.1,0-0.1c0-0.3,0.2-0.5,0.4-0.6c0.3,0,0.5,0.2,0.6,0.4
				L60,53.7l0.5,0C60.5,54,60.3,54.3,60,54.3C60,54.3,60,54.3,60,54.3z M59.8,52.9c-0.3,0-0.5-0.2-0.5-0.5l0-0.1
				c0-0.3,0.2-0.5,0.5-0.5c0.3,0,0.5,0.2,0.5,0.5l0,0.1C60.4,52.7,60.2,52.9,59.8,52.9C59.9,52.9,59.9,52.9,59.8,52.9z M59.9,51
				l-0.5,0c0-0.3,0.3-0.5,0.6-0.5c0.3,0,0.5,0.2,0.5,0.5l-0.5,0l0.5,0.1L59.9,51z"/>
		</g>
		<g>
			<path d="M23.8,86.3c-1.1-0.3-2.2-0.5-3.4-0.3c-1.1,0.2-2.2,1.1-2.2,2.3c0,0.3,0.1,0.7,0.3,1c0.2,0.2,0.4,0.3,0.7,0.4
				c1.3,0.4,2.7,0.4,3.9-0.1c1.4-0.5,2.8-1.5,4.2-0.9c-1-1.3-2.4-2.2-3.9-2.6"/>
		</g>
		<g>
			<path d="M59.9,86.3c1.1-0.3,2.2-0.5,3.4-0.3c1.1,0.2,2.2,1.1,2.2,2.3c0,0.3-0.1,0.7-0.3,1c-0.2,0.2-0.4,0.3-0.7,0.4
				c-1.3,0.4-2.7,0.4-3.9-0.1c-1.4-0.5-2.8-1.5-4.2-0.9c1-1.3,2.4-2.2,3.9-2.6"/>
		</g>
		<g>
			<path d="M71.8,53.2c-0.3,0-0.6-0.1-0.8-0.4c-1.7-2.2-2.1-5-2.4-7.3c-0.3-2.1-0.6-4.5,0-6.8c0.4-1.6,1.2-3,2.1-4.4
				c0.9-1.5,1.8-2.9,3-4.2c2.3-2.4,5.6-3.9,8.9-4.1c0.5,0,1.1,0,1.5,0.3c0.5,0.3,0.8,0.7,0.9,1.2c0.2,1.2-0.6,2.3-0.9,2.7
				c-4.8,6.2-10,13.7-11.3,22.2c-0.1,0.4-0.4,0.7-0.8,0.8C72,53.2,71.9,53.2,71.8,53.2z M82.9,28.1c-0.1,0-0.1,0-0.2,0
				c-2.8,0.2-5.6,1.5-7.5,3.5c-1.1,1.1-1.9,2.4-2.8,3.8c-0.8,1.3-1.5,2.6-1.9,3.9c-0.5,1.9-0.2,4,0.1,6c0.2,1.3,0.4,2.6,0.7,3.9
				c2-7.7,6.6-14.5,11.1-20.2C82.7,28.6,82.9,28.3,82.9,28.1z"/>
		</g>
		<g>
			<rect x="0" y="76.3" width="84" height="24"/>
		</g>
		<g>
			<path d="M88.1,37.2c-0.3,0-0.6-0.1-0.8-0.4L72.7,19c-0.2-0.3-0.3-0.7-0.2-1c0.1-0.3,0.4-0.6,0.8-0.6c0.2,0,6.2-1.1,9.6-9
				c4-9,7.2-8.3,7.8-8.1c0.2,0.1,0.3,0.2,0.4,0.3l7.2,8.9c0.2,0.3,0.3,0.6,0.2,0.9c-0.1,0.3-0.4,0.6-0.7,0.7c0,0-5,1.6-6.2,6.3
				c-1.5,5.6-8.3,10.3-8.6,10.5c-0.1,0.1-0.3,0.2-0.5,0.2l6.1,7.5c0.4,0.4,0.3,1.1-0.1,1.4C88.5,37.2,88.3,37.2,88.1,37.2z
				 M75.3,18.9l6.4,7.8c0.1-0.2,0.2-0.4,0.4-0.6c0.1,0,6.5-4.4,7.7-9.3c1.1-4.1,4.3-6.3,6.2-7.2L90,2.2c-0.5,0.2-2.5,1.1-5.1,7
				C82.1,15.6,77.7,18.1,75.3,18.9z"/>
		</g>
	</g>
	<g>
		<path fill="#FFFFFF" d="M11.2,87.4h1.6l0.6-2.3h-1.6l0.4-1.3h1.6l0.9-3.2h1.6l-0.9,3.2h1.3l0.9-3.2h1.6l-0.9,3.2h1.6l-0.4,1.3
			h-1.6l-0.6,2.3h1.6l-0.4,1.3h-1.6l-0.9,3.2h-1.6l0.9-3.2H14l-0.9,3.2h-1.6l0.9-3.2h-1.6L11.2,87.4z M15.7,87.4l0.6-2.3H15
			l-0.6,2.3H15.7z"/>
		<path fill="#FFFFFF" d="M20.1,84.9v-1.6h1.2v-2.4h2.3v2.4H25v1.6h-1.4v4.6c0,0.4,0,0.6,0.1,0.7c0.1,0.1,0.4,0.1,0.8,0.1
			c0.1,0,0.1,0,0.2,0c0.1,0,0.2,0,0.2,0V92l-1.1,0c-1.1,0-1.8-0.1-2.2-0.6c-0.3-0.3-0.4-0.7-0.4-1.2v-5.4H20.1z"/>
		<path fill="#FFFFFF" d="M31.3,83c0,0,0.1,0,0.2,0v2.3c-0.1,0-0.3,0-0.4,0c-0.1,0-0.2,0-0.3,0c-0.9,0-1.5,0.3-1.8,0.9
			c-0.2,0.3-0.3,0.9-0.3,1.5v4.2h-2.3v-8.7h2.2v1.5c0.4-0.6,0.7-1,0.9-1.2c0.4-0.4,1-0.5,1.7-0.5C31.2,83,31.2,83,31.3,83z"/>
		<path fill="#FFFFFF" d="M38.5,83.4c0.6,0.3,1.1,0.7,1.5,1.3c0.4,0.5,0.6,1.1,0.7,1.8c0.1,0.4,0.1,1,0.1,1.7h-6.3
			c0,0.9,0.3,1.5,0.9,1.8c0.3,0.2,0.8,0.3,1.3,0.3c0.5,0,0.9-0.1,1.3-0.4c0.2-0.1,0.3-0.3,0.5-0.6h2.3c-0.1,0.5-0.3,1-0.8,1.6
			c-0.8,0.8-1.9,1.3-3.3,1.3c-1.2,0-2.2-0.4-3.1-1.1c-0.9-0.7-1.3-1.9-1.3-3.5c0-1.5,0.4-2.7,1.2-3.5c0.8-0.8,1.8-1.2,3.1-1.2
			C37.2,83,37.9,83.1,38.5,83.4z M35.1,85.4c-0.3,0.3-0.5,0.8-0.6,1.3h3.9c0-0.6-0.2-1.1-0.6-1.4s-0.8-0.5-1.3-0.5
			C35.8,84.9,35.4,85.1,35.1,85.4z"/>
		<path fill="#FFFFFF" d="M48.9,83.7c0.6,0.5,0.9,1.3,0.9,2.3v5.9h-2.3v-5.3c0-0.5-0.1-0.8-0.2-1.1c-0.2-0.4-0.6-0.7-1.3-0.7
			c-0.8,0-1.3,0.3-1.6,1c-0.1,0.3-0.2,0.8-0.2,1.3v4.7h-2.3v-8.7h2.2v1.3c0.3-0.4,0.6-0.8,0.8-1c0.5-0.4,1.1-0.5,1.8-0.5
			C47.6,83,48.3,83.3,48.9,83.7z"/>
		<path fill="#FFFFFF" d="M56.5,83.4c0.4,0.2,0.7,0.6,1,1v-4.2h2.3v11.8h-2.2v-1.2c-0.3,0.5-0.7,0.9-1.1,1.1
			c-0.4,0.2-0.9,0.4-1.5,0.4c-1,0-1.9-0.4-2.6-1.2c-0.7-0.8-1-1.9-1-3.2c0-1.5,0.3-2.7,1-3.5C53,83.5,54,83,55.1,83
			C55.6,83,56.1,83.2,56.5,83.4z M57.1,89.6c0.3-0.5,0.5-1.1,0.5-1.9c0-1.1-0.3-1.8-0.8-2.3C56.4,85.2,56,85,55.6,85
			c-0.7,0-1.2,0.3-1.5,0.8s-0.5,1.1-0.5,1.9c0,0.8,0.2,1.4,0.5,1.9c0.3,0.5,0.8,0.7,1.4,0.7S56.7,90.1,57.1,89.6z"/>
		<path fill="#FFFFFF" d="M62.2,93.6l0.3,0c0.2,0,0.4,0,0.6,0c0.2,0,0.4-0.1,0.5-0.2c0.1-0.1,0.3-0.3,0.4-0.6
			c0.1-0.3,0.2-0.5,0.1-0.5L61,83.2h2.5l1.9,6.4l1.8-6.4h2.4l-3,8.6c-0.6,1.7-1,2.7-1.4,3.1c-0.3,0.4-1,0.6-2,0.6
			c-0.2,0-0.4,0-0.5,0c-0.1,0-0.3,0-0.6,0V93.6z"/>
	</g>
	<g>
	</g>
	<g>
	</g>
	<g>
	</g>
	<g>
	</g>
	<g>
	</g>
	<g>
	</g>
	<g>
	</g>
	<g>
	</g>
	<g>
	</g>
	<g>
	</g>
	<g>
	</g>
	<g>
	</g>
	<g>
	</g>
	<g>
	</g>
	<g>
	</g>
</g>
</svg>
