<?xml version="1.0" encoding="utf-8"?>
<!-- Generator: Adobe Illustrator 18.1.0, SVG Export Plug-In . SVG Version: 6.00 Build 0)  -->
<!DOCTYPE svg PUBLIC "-//W3C//DTD SVG 1.1//EN" "http://www.w3.org/Graphics/SVG/1.1/DTD/svg11.dtd">
<svg version="1.1" xmlns="http://www.w3.org/2000/svg" xmlns:xlink="http://www.w3.org/1999/xlink" x="0px" y="0px"
	 viewBox="0 0 100 100" enable-background="new 0 0 100 100" xml:space="preserve">
<g id="Layer_1">
</g>
<g id="Layer_3">
	<g>
		<g>
			<path d="M33.8,57.9c-1,0-1.9-0.1-2.9-0.3c-7.6-1.5-13.2-8.4-13.2-16.6c0-9.3,7.2-16.9,16.1-16.9S49.9,31.7,49.9,41
				S42.6,57.9,33.8,57.9z M33.8,27.4C26.7,27.4,21,33.5,21,41c0,6.6,4.4,12.2,10.5,13.4c0.8,0.1,1.5,0.2,2.3,0.2
				c7.1,0,12.8-6.1,12.8-13.6C46.6,33.5,40.9,27.4,33.8,27.4z"/>
		</g>
		<g>
			<path d="M33.6,53.8c-0.7,0-1.4-0.1-2.1-0.2C26,52.5,22,47.4,22,41.5c0-6.8,5.2-12.3,11.7-12.3s11.7,5.5,11.7,12.3
				S40.1,53.8,33.6,53.8z M33.6,30.3c-5.8,0-10.6,5-10.6,11.2c0,5.4,3.7,10.1,8.7,11c0.6,0.1,1.3,0.2,1.9,0.2
				c5.8,0,10.6-5,10.6-11.2S39.5,30.3,33.6,30.3z"/>
		</g>
		<g>
			<path d="M33.1,44.4c-1.8,0-3.3-1.5-3.3-3.3s1.5-3.3,3.3-3.3c1.8,0,3.3,1.5,3.3,3.3S35,44.4,33.1,44.4z M33.1,39.9
				c-0.6,0-1.2,0.5-1.2,1.2c0,0.6,0.5,1.2,1.2,1.2c0.6,0,1.2-0.5,1.2-1.2C34.3,40.4,33.8,39.9,33.1,39.9z"/>
		</g>
		<g>
			<path d="M64.6,27c-1.8,0-3.3-1.5-3.3-3.3s1.5-3.3,3.3-3.3c1.8,0,3.3,1.5,3.3,3.3S66.5,27,64.6,27z M64.6,22.5
				c-0.6,0-1.2,0.5-1.2,1.2c0,0.6,0.5,1.2,1.2,1.2s1.2-0.5,1.2-1.2C65.8,23,65.3,22.5,64.6,22.5z"/>
		</g>
		<g>
			<path d="M51,99.9c-20.4,0-37-13.6-37-30.4c0-5.2,4.3-13.6,4.8-14.6c1.8-4.6,1-17,0.1-24.1c-0.1-0.1-0.1-0.3-0.2-0.4l0,0
				c-0.4-1.9-0.5-3.4-0.5-4.9c0-13.9,11.6-25.3,25.8-25.3c11.6,0,21.6,7.5,24.8,18.1l0,0l0.2,0.8c0.1,0.5,0.3,1,0.4,1.6l0.1,0.3
				c0,0.2,3.8,16.4,13.5,32.9c0.9,1.5,1.8,3,2.7,4.4l0.1,0.2c1.7,3.6,2.6,7.4,2.6,11.2C88.2,86.2,71.5,99.9,51,99.9z M22,29.8
				c0,0.2,2.6,19.2-0.2,26.3l-0.1,0.2c-1.2,2.4-4.5,9.4-4.5,13.2c0,15,15.2,27.2,33.8,27.2c18.8,0,34-12.2,34-27.2
				c0-3.4-0.8-6.6-2.3-9.7c-0.9-1.4-1.8-2.9-2.7-4.4C72.3,42.1,68.3,29.4,66.8,24l-0.2,0.1l-0.5-2.8C64.2,10.9,54.9,3.3,43.9,3.3
				c-12.4,0-22.6,9.9-22.6,22c0,1.1,0.1,2.4,0.4,3.8C21.9,29.4,21.9,29.6,22,29.8L22,29.8z"/>
		</g>
		<g>
			<path d="M13.3,73C13.3,73,13.3,73,13.3,73c-7.7,0-10-11.1-10.1-11.6c-0.1-0.6,0.1-1.2,0.6-1.6c0.5-0.4,1.1-0.5,1.7-0.2
				c0.4,0.2,1,0.3,1.7,0.3c2.5,0,6.3-1.4,10.6-4c0.2-0.1,0.3-0.2,0.3-0.2c0.6-0.3,1.4-0.2,1.9,0.3c0.5,0.5,0.6,1.2,0.3,1.9
				c-4,8.4-4.2,13.4-4.2,13.5c0,0.8-0.6,1.4-1.3,1.6C14.3,72.9,13.8,73,13.3,73z M7.1,63c0.9,3,2.8,6.4,5.9,6.6
				c0.2-1.7,0.9-4.8,2.5-9C12.2,62.2,9.4,63,7.1,63C7.1,63,7.1,63,7.1,63z"/>
		</g>
		<g>
			<path d="M29,92.2c-1.3-0.3-2.7-0.7-4.1-0.4c-1.4,0.3-2.6,1.4-2.7,2.8c0,0.4,0.1,0.9,0.4,1.2c0.2,0.2,0.5,0.3,0.8,0.4
				c1.6,0.5,3.3,0.5,4.8-0.1c1.7-0.6,3.5-1.8,5.1-1.1c-1.2-1.5-2.9-2.7-4.8-3.2"/>
		</g>
		<g>
			<path d="M76.4,91.1c1.2-0.3,2.4-0.6,3.5-0.3c1.2,0.2,2.3,1.2,2.3,2.4c0,0.4-0.1,0.7-0.4,1c-0.2,0.2-0.5,0.3-0.7,0.4
				c-1.3,0.4-2.8,0.4-4.1-0.1c-1.5-0.5-3-1.5-4.4-0.9c1-1.3,2.5-2.3,4.1-2.7"/>
		</g>
		<g>
			<path d="M20.2,31.6c0,0,15.2-19.8,35.5,4.1c0,0,2.2,0.8,0-3.2C53.6,28.4,53.8,13.5,61,9c0,0-9.6-11-25.6-5.7S20.2,31.6,20.2,31.6
				z"/>
			<path d="M56.1,36.2c-0.3,0-0.5-0.1-0.5-0.1c-0.1,0-0.1-0.1-0.2-0.1c-6.6-7.7-13.3-11.6-19.9-11.6c-9.1,0-14.9,7.5-15,7.6
				c-0.1,0.1-0.3,0.2-0.4,0.1c-0.2-0.1-0.3-0.2-0.3-0.4c0-0.2-0.7-23.4,15.5-28.7c2.9-1,5.9-1.5,8.7-1.5c10.9,0,17.3,7.2,17.4,7.3
				c0.1,0.1,0.1,0.2,0.1,0.3c0,0.1-0.1,0.2-0.2,0.3c-6.8,4.3-7.3,18.8-5.1,22.9c0.9,1.8,1.2,2.9,0.9,3.5
				C56.8,36,56.5,36.2,56.1,36.2z M56,35.3c0.1,0,0.3,0,0.3,0c0,0,0.3-0.5-0.9-2.7c-2.2-4.2-2-18.8,5-23.7C59,7.5,53.1,2.3,44,2.3
				c-2.7,0-5.6,0.5-8.4,1.4c-6.5,2.1-11,7.5-13.3,15.8c-1.3,4.7-1.5,9.1-1.6,11c1.9-2,7.3-7,14.9-7C42.4,23.5,49.3,27.5,56,35.3z"/>
		</g>
		<g>
			<path d="M57.1,93.9c-0.5,0-0.9-0.3-1-0.8c-0.2-0.6,0.2-1.2,0.7-1.3c9.4-2.7,15.8-7.3,19-13.6c4.3-8.3,1.3-16.8,1.3-16.9
				c-0.2-0.6,0.1-1.2,0.7-1.4c0.6-0.2,1.2,0.1,1.4,0.7c0.1,0.4,3.2,9.5-1.4,18.6C74.3,86,67.4,90.9,57.4,93.9
				C57.3,93.9,57.2,93.9,57.1,93.9z"/>
		</g>
		<g>
			<g>
				<path d="M58.5,60.9c-2.5,0-4.8-1.7-5.4-4.2c-0.8-3,1-6,4-6.8c0.5-0.1,0.9-0.2,1.4-0.2c2.5,0,4.8,1.7,5.4,4.2c0.8,3-1,6-4,6.8
					C59.4,60.9,59,60.9,58.5,60.9z M58.5,53c-0.2,0-0.4,0-0.6,0.1c-1.2,0.3-2,1.6-1.7,2.8c0.3,1.2,1.6,2,2.8,1.7
					c1.2-0.3,2-1.6,1.7-2.8C60.5,53.7,59.6,53,58.5,53z"/>
			</g>
			<g>
				<path d="M72.6,61c-0.2,0-0.3-0.1-0.5-0.2l-9.8-2.9c-0.5-0.2-0.9-0.6-1.1-1.1l-1.2-3.9c-0.2-0.6,0-1.3,0.5-1.7l7.5-6.5
					c0.4-0.4,1-0.5,1.6-0.3c0.5,0.2,1,0.6,1.1,1.1l3.3,13.1c0.1,0.2,0.1,0.5,0.1,0.8C74.2,60.2,73.5,61,72.6,61
					C72.6,61,72.6,61,72.6,61z M64.1,55l6.2,1.8l-2-8l-4.7,4.1L64.1,55z"/>
			</g>
			<g>
				<path d="M47.2,67.3c-0.1,0-0.3,0-0.4-0.1c-0.6-0.2-1-0.6-1.1-1.2l-3.4-13.3c-0.1-0.5,0-1.1,0.4-1.5c0.4-0.4,1-0.6,1.5-0.5
					l9.8,2.1c0.6,0.1,1.1,0.6,1.3,1.3l0.8,4c0.1,0.5-0.1,1.1-0.4,1.5l-7.2,7.2C48,67.1,47.6,67.3,47.2,67.3z M46,54.5l2.1,8l4.6-4.6
					l-0.4-2.1L46,54.5z"/>
			</g>
		</g>
		<g>
			<path d="M83.3,54.9c-0.5,0-1-0.1-1.5-0.2c-0.5-0.1-0.9-0.4-1.1-0.9L70.7,33c-0.3-0.7-0.1-1.6,0.5-2c0.6-0.5,1.5-0.4,2.1,0.1
				c4.1,3.9,12,10.1,15.5,10.1c0.6,0,0.7-0.2,0.8-0.2c0.5-0.4,1.2-1,2.1-1c0.8,0,1.4,0.4,1.8,1.1c0.2,0.4,0.3,0.8,0.3,1.4
				C93.8,45.7,89.7,54.9,83.3,54.9z M83.2,53C83.3,53,83.3,53,83.2,53c1.7,0,3.2-1.9,4.1-3c1.4-1.6,2.3-3.9,2.8-5.3
				c-0.4,0.1-0.9,0-1.3,0c-3.3,0-8.1-2.5-11.9-5.4L83.2,53z"/>
		</g>
		<g>
			<path d="M28.9,90.7c-0.6,0-1-0.4-1.1-1c-0.1-0.6,0.4-1.1,1-1.2c0.6-0.1,1.2,0.4,1.2,0.9c0.1,0.6-0.3,1.1-0.9,1.2L28.9,90.7
				C29,90.7,28.9,90.7,28.9,90.7z M26.2,90.5c-0.1,0-0.1,0-0.2,0l-0.1,0c-0.6-0.1-0.9-0.7-0.8-1.3c0.1-0.6,0.7-0.9,1.3-0.8
				c0.6,0.1,1,0.7,0.9,1.3C27.1,90.1,26.7,90.5,26.2,90.5z M31.6,89.8c-0.4,0-0.7-0.2-0.9-0.5c-0.3-0.5-0.2-1.2,0.3-1.5
				c0.5-0.3,1.2-0.2,1.5,0.3c0.3,0.5,0.2,1.2-0.3,1.5l-0.1,0.1C32,89.7,31.8,89.8,31.6,89.8z M33.6,87.9c-0.2,0-0.5-0.1-0.7-0.2
				c-0.5-0.4-0.6-1.1-0.2-1.5c0.4-0.5,1.1-0.6,1.5-0.2c0.5,0.4,0.6,1,0.3,1.5c0,0-0.1,0.1-0.1,0.1C34.2,87.7,33.9,87.9,33.6,87.9z
				 M35,85.4c-0.1,0-0.3,0-0.4-0.1c-0.5-0.2-0.8-0.9-0.6-1.4c0.2-0.6,0.9-0.9,1.4-0.6c0.6,0.2,0.8,0.8,0.6,1.4L36,84.7
				C35.8,85.2,35.4,85.4,35,85.4z M35.9,82.7c-0.1,0-0.2,0-0.3,0c-0.6-0.1-0.9-0.7-0.8-1.3c0,0,0-0.1,0-0.1c0.1-0.6,0.7-0.9,1.3-0.8
				c0.6,0.1,0.9,0.7,0.8,1.3l-1.1-0.3l1,0.4C36.8,82.4,36.4,82.7,35.9,82.7z M36.4,80c-0.1,0-0.1,0-0.2,0c-0.6-0.1-1-0.7-0.9-1.2
				c0.1-0.6,0.7-1,1.2-0.9c0.6,0.1,1,0.6,0.9,1.2c0,0,0,0.1,0,0.1C37.4,79.6,36.9,80,36.4,80z M36.8,77.2
				C36.7,77.2,36.7,77.2,36.8,77.2c-0.7,0-1.1-0.6-1.1-1.2c0,0,0-0.1,0-0.1c0.1-0.6,0.6-1,1.2-1c0.6,0.1,1,0.6,1,1.2L36.8,76
				l1.1,0.2C37.8,76.7,37.3,77.2,36.8,77.2z M36.9,75C36.9,75,36.9,75,36.9,75c-0.6,0-1.1-0.8-1.1-1.4l0-0.3c0-0.6,0.5-1.1,1.1-1.1
				c0.6,0,1.1,0.5,1.1,1.1l0,0.4C38,74.2,37.5,75,36.9,75z M36.9,71.5c-0.6,0-1.1-0.5-1.1-1.1c0-0.6,0.5-1.1,1.1-1.1
				c0.6,0,1.1,0.4,1.1,1c0,0,0,0.1,0,0.1C38,71,37.5,71.5,36.9,71.5z M36.9,68c-0.6,0-1.1-0.1-1.1-0.7c0-0.6,0.4-1,1-1
				c0.6,0,1.1,0.5,1.1,1.1l0-0.2C38,67.8,37.5,68,36.9,68C36.9,68,36.9,68,36.9,68z M36.7,65.9c-0.6,0-1-0.4-1.1-1
				c0-0.6,0.4-1.2,1-1.2c0.6,0,1.1,0.4,1.2,0.9l0,0.1C37.8,65.3,37.4,65.8,36.7,65.9C36.8,65.9,36.7,65.9,36.7,65.9z M36.5,63.1
				c-0.5,0-1-0.4-1.1-1l0-0.1c-0.1-0.6,0.4-1.1,1-1.2c0.6-0.1,1.1,0.4,1.2,1l0,0.1c0.1,0.6-0.4,1.1-1,1.2
				C36.5,63.1,36.5,63.1,36.5,63.1z M36.1,60.3c-0.5,0-1-0.4-1.1-1C35,58.7,35.4,58.1,36,58c0.6-0.1,1.1,0.3,1.2,0.9l0,0.1
				c0.1,0.6-0.4,1.1-1,1.2C36.2,60.2,36.2,60.3,36.1,60.3z M35.7,57.5c-0.5,0-1-0.4-1.1-0.9c-0.1-0.6,0.3-1.2,0.9-1.3
				c0.6-0.1,1.1,0.2,1.2,0.8l0,0.1c0.1,0.6-0.3,1.2-0.9,1.2C35.9,57.5,35.8,57.5,35.7,57.5z"/>
		</g>
	</g>
</g>
</svg>
