<?xml version="1.0" encoding="utf-8"?>
<!-- Generator: Adobe Illustrator 18.1.0, SVG Export Plug-In . SVG Version: 6.00 Build 0)  -->
<!DOCTYPE svg PUBLIC "-//W3C//DTD SVG 1.1//EN" "http://www.w3.org/Graphics/SVG/1.1/DTD/svg11.dtd">
<svg version="1.1" xmlns="http://www.w3.org/2000/svg" xmlns:xlink="http://www.w3.org/1999/xlink" x="0px" y="0px"
	 viewBox="0 0 100 100" enable-background="new 0 0 100 100" xml:space="preserve">
<g id="Layer_1">
</g>
<g id="Layer_3">
	<g>
		<g>
			<path d="M23.4,66c-0.7,0-1.5-0.1-2.2-0.2c-5.8-1.1-10-6.4-10-12.6c0-7.1,5.5-12.8,12.2-12.8s12.2,5.8,12.2,12.8S30.2,66,23.4,66z
				 M23.4,42.8c-5.4,0-9.7,4.6-9.7,10.4c0,5,3.4,9.3,8,10.2c0.6,0.1,1.2,0.2,1.7,0.2c5.4,0,9.7-4.6,9.7-10.4
				C33.2,47.5,28.8,42.8,23.4,42.8z"/>
		</g>
		<g>
			<path d="M23.3,62.9c-0.5,0-1.1-0.1-1.6-0.2c-4.2-0.8-7.3-4.7-7.3-9.2c0-5.2,4-9.3,8.9-9.3s8.9,4.2,8.9,9.3S28.2,62.9,23.3,62.9z
				 M23.3,45c-4.4,0-8.1,3.8-8.1,8.5c0,4.1,2.8,7.7,6.6,8.4c0.5,0.1,1,0.1,1.4,0.1c4.4,0,8.1-3.8,8.1-8.5S27.8,45,23.3,45z"/>
		</g>
		<g>
			<path d="M22.9,55.8c-1.4,0-2.5-1.1-2.5-2.5s1.1-2.5,2.5-2.5s2.5,1.1,2.5,2.5S24.3,55.8,22.9,55.8z M22.9,52.3
				c-0.5,0-0.9,0.4-0.9,0.9c0,0.5,0.4,0.9,0.9,0.9c0.5,0,0.9-0.4,0.9-0.9C23.8,52.7,23.4,52.3,22.9,52.3z"/>
		</g>
		<g>
			<path d="M46.9,42.6c-1.4,0-2.5-1.1-2.5-2.5s1.1-2.5,2.5-2.5s2.5,1.1,2.5,2.5S48.3,42.6,46.9,42.6z M46.9,39.1
				c-0.5,0-0.9,0.4-0.9,0.9c0,0.5,0.4,0.9,0.9,0.9s0.9-0.4,0.9-0.9C47.8,39.5,47.4,39.1,46.9,39.1z"/>
		</g>
		<g>
			<path d="M36.5,98C21,98,8.3,87.6,8.3,74.8c0-3.9,3.3-10.4,3.7-11.1c1.3-3.5,0.8-12.9,0.1-18.3c-0.1-0.1-0.1-0.2-0.1-0.3l0,0
				c-0.3-1.4-0.4-2.6-0.4-3.7c0-10.6,8.8-19.2,19.6-19.2c8.8,0,16.4,5.7,18.8,13.7l0,0l0.1,0.6c0.1,0.4,0.2,0.8,0.3,1.2l0.1,0.2
				c0,0.1,2.9,12.5,10.2,25c0.7,1.1,1.4,2.3,2,3.3l0.1,0.1c1.3,2.7,2,5.6,2,8.6C64.8,87.6,52.1,98,36.5,98z M14.4,44.7
				c0,0.1,2,14.6-0.2,20l-0.1,0.1c-0.9,1.8-3.4,7.1-3.4,10c0,11.4,11.5,20.7,25.7,20.7c14.3,0,25.9-9.3,25.9-20.7
				c0-2.6-0.6-5-1.7-7.4c-0.7-1.1-1.4-2.2-2.1-3.4c-5.8-10-8.9-19.7-10-23.8l-0.1,0.1L48,38.3c-1.5-8-8.6-13.7-16.9-13.7
				c-9.5,0-17.2,7.5-17.2,16.8c0,0.9,0.1,1.8,0.3,2.9C14.4,44.4,14.4,44.5,14.4,44.7L14.4,44.7z"/>
		</g>
		<g>
			<path d="M7.8,77.5C7.8,77.5,7.8,77.5,7.8,77.5c-5.8,0-7.6-8.5-7.7-8.8c-0.1-0.5,0.1-0.9,0.4-1.2c0.4-0.3,0.9-0.3,1.3-0.1
				c0.3,0.2,0.8,0.2,1.3,0.2c1.9,0,4.8-1.1,8.1-3.1c0.1-0.1,0.2-0.1,0.3-0.2c0.5-0.2,1-0.2,1.4,0.2c0.4,0.4,0.5,0.9,0.3,1.4
				c-3,6.4-3.2,10.2-3.2,10.2c0,0.6-0.4,1.1-1,1.2C8.6,77.5,8.2,77.5,7.8,77.5z M3.1,70c0.7,2,2.1,4.8,4.5,5
				c0.2-1.3,0.7-3.6,1.9-6.8C7,69.4,4.9,70,3.1,70C3.1,70,3.1,70,3.1,70z"/>
		</g>
		<g>
			<path d="M19.8,92.1c-1-0.3-2.1-0.5-3.1-0.3s-2,1.1-2,2.1c0,0.3,0.1,0.7,0.3,0.9c0.2,0.2,0.4,0.3,0.6,0.3c1.2,0.4,2.5,0.4,3.7-0.1
				c1.3-0.4,2.6-1.4,3.9-0.8c-0.9-1.2-2.2-2-3.6-2.4"/>
		</g>
		<g>
			<path d="M55.8,91.3c0.9-0.2,1.8-0.4,2.7-0.2c0.9,0.2,1.7,0.9,1.7,1.8c0,0.3-0.1,0.6-0.3,0.8c-0.2,0.1-0.4,0.2-0.6,0.3
				c-1,0.3-2.1,0.3-3.2,0c-1.1-0.4-2.3-1.2-3.4-0.7c0.8-1,1.9-1.8,3.1-2.1"/>
		</g>
		<g>
			<path d="M13.1,46.1c0,0,11.5-15.1,27,3.1c0,0,1.7,0.6,0-2.5s-1.5-14.4,4-17.8c0,0-7.3-8.3-19.5-4.3S13.1,46.1,13.1,46.1z"/>
			<path d="M40.4,49.5c-0.2,0-0.4-0.1-0.4-0.1c0,0-0.1,0-0.1-0.1c-5-5.9-10.1-8.9-15.1-8.9c-6.9,0-11.3,5.7-11.4,5.7
				c-0.1,0.1-0.2,0.1-0.3,0.1c-0.1,0-0.2-0.2-0.2-0.3c0-0.2-0.5-17.8,11.7-21.8c2.2-0.7,4.4-1.1,6.6-1.1c8.3,0,13.2,5.5,13.2,5.5
				c0.1,0.1,0.1,0.2,0.1,0.2c0,0.1-0.1,0.2-0.1,0.2c-5.2,3.2-5.6,14.3-3.9,17.4c0.7,1.3,0.9,2.2,0.7,2.6
				C40.9,49.4,40.7,49.5,40.4,49.5z M40.3,48.9c0.1,0,0.2,0,0.2,0c0,0,0.2-0.4-0.7-2c-1.7-3.2-1.6-14.3,3.8-18
				c-1.1-1.1-5.5-5.1-12.5-5.1c-2.1,0-4.2,0.4-6.4,1.1c-4.9,1.6-8.3,5.7-10.1,12c-1,3.6-1.2,6.9-1.2,8.4c1.4-1.5,5.5-5.3,11.3-5.3
				C30,39.9,35.2,42.9,40.3,48.9z"/>
		</g>
		<g>
			<path d="M41.2,93.4c-0.4,0-0.7-0.2-0.8-0.6c-0.1-0.4,0.1-0.9,0.6-1c7.2-2.1,12-5.6,14.5-10.3c3.2-6.3,1-12.8,1-12.8
				c-0.2-0.4,0.1-0.9,0.5-1.1c0.4-0.1,0.9,0.1,1.1,0.5c0.1,0.3,2.5,7.2-1.1,14.1c-2.7,5.2-7.9,8.9-15.5,11.2
				C41.3,93.4,41.2,93.4,41.2,93.4z"/>
		</g>
		<g>
			<g>
				<path d="M42.2,68.3c-1.9,0-3.6-1.3-4.1-3.2c-0.6-2.3,0.8-4.6,3.1-5.2c0.3-0.1,0.7-0.1,1.1-0.1c1.9,0,3.6,1.3,4.1,3.2
					c0.6,2.3-0.8,4.6-3.1,5.2C42.9,68.3,42.6,68.3,42.2,68.3z M42.2,62.3c-0.1,0-0.3,0-0.4,0.1c-0.9,0.2-1.5,1.2-1.3,2.1
					c0.2,0.9,1.2,1.5,2.1,1.3c0.9-0.2,1.5-1.2,1.3-2.1C43.7,62.9,43,62.3,42.2,62.3z"/>
			</g>
			<g>
				<path d="M52.9,68c-0.1,0-0.2,0.1-0.3,0.1L45.2,66c-0.4-0.1-0.7-0.4-0.8-0.8l-0.9-3c-0.1-0.5,0-1,0.4-1.3l5.7-5
					c0.3-0.3,0.8-0.4,1.2-0.2c0.4,0.1,0.7,0.5,0.8,0.9l2.5,9.9c0.1,0.2,0.1,0.2,0.1,0.4C54.2,67.6,53.6,68,52.9,68
					C52.9,68,52.9,68,52.9,68z M46.5,63.8l4.7,1.4l-1.6-6.1L46,62.3L46.5,63.8z"/>
			</g>
			<g>
				<path d="M33.6,73.2c-0.1,0-0.2,0-0.3,0c-0.4-0.1-0.8-0.5-0.9-0.9l-2.6-10.1c-0.1-0.4,0-0.9,0.3-1.2c0.3-0.3,0.7-0.4,1.2-0.4
					l7.5,1.6c0.5,0.1,0.9,0.5,1,1l0.6,3.1c0.1,0.4,0,0.8-0.3,1.1l-5.5,5.5C34.3,73.1,33.9,73.2,33.6,73.2z M32.7,63.4l1.6,6.1
					l3.5-3.5l-0.3-1.6L32.7,63.4z"/>
			</g>
		</g>
		<g>
			<path d="M61.1,63.8c-0.4,0-0.8,0-1.1-0.1c-0.4-0.1-0.7-0.3-0.8-0.7l-7.6-15.9c-0.3-0.5-0.1-1.2,0.4-1.5c0.5-0.4,1.1-0.3,1.6,0.1
				c3.1,3,9.1,7.7,11.8,7.7c0.4,0,0.6-0.1,0.6-0.2c0.4-0.3,0.9-0.8,1.6-0.8c0.6,0,1.1,0.3,1.4,0.8c0.2,0.3,0.2,0.6,0.2,1.1
				C69.1,56.8,65.9,63.8,61.1,63.8z M61,62C61,62,61.1,62,61,62c1.3,0,2.4-1.3,3.1-2.1c1-1.2,1.8-2.9,2.1-4c-0.3,0.1-0.7,0-1,0
				c-2.5,0-6.2-2-9-4.3L61,62z"/>
		</g>
		<g>
			<path d="M19.7,90.9c-0.4,0-0.8-0.3-0.8-0.8c0-0.5,0.3-0.9,0.7-0.9c0.5-0.1,0.9,0.3,0.9,0.7c0.1,0.5-0.2,0.9-0.7,0.9L19.7,90.9
				C19.8,90.9,19.8,90.9,19.7,90.9z M17.7,90.8c-0.1,0-0.1,0-0.2,0l-0.1,0c-0.4-0.1-0.7-0.6-0.6-1c0.1-0.4,0.6-0.7,1-0.6
				c0.4,0.1,0.8,0.5,0.7,1C18.4,90.5,18.1,90.8,17.7,90.8z M21.7,90.3c-0.3,0-0.5-0.1-0.7-0.4c-0.2-0.4-0.1-0.9,0.3-1.1
				c0.4-0.2,0.9-0.1,1.2,0.2c0.2,0.4,0.2,0.9-0.2,1.1l-0.1,0C22,90.2,21.9,90.3,21.7,90.3z M23.3,88.8c-0.2,0-0.4-0.1-0.5-0.2
				c-0.4-0.3-0.4-0.8-0.1-1.2c0.3-0.4,0.8-0.5,1.2-0.2c0.4,0.3,0.5,0.7,0.2,1.1c0,0-0.1,0.1-0.1,0.1C23.8,88.7,23.5,88.8,23.3,88.8z
				 M24.3,86.9c-0.1,0-0.2,0-0.3-0.1c-0.4-0.2-0.6-0.7-0.4-1.1c0.2-0.4,0.7-0.7,1.1-0.5c0.4,0.2,0.6,0.6,0.5,1l0,0.1
				C25,86.8,24.7,86.9,24.3,86.9z M25,84.9c-0.1,0-0.1,0-0.2,0c-0.4-0.1-0.7-0.6-0.6-1c0,0,0-0.1,0-0.1c0.1-0.4,0.6-0.7,1-0.6
				c0.4,0.1,0.7,0.6,0.6,1L25,84l0.8,0.3C25.7,84.7,25.4,84.9,25,84.9z M25.4,82.8c0,0-0.1,0-0.1,0c-0.4-0.1-0.8-0.5-0.7-0.9
				c0.1-0.4,0.5-0.8,0.9-0.7c0.4,0.1,0.8,0.4,0.7,0.9c0,0,0,0.1,0,0.1C26.2,82.5,25.8,82.8,25.4,82.8z M25.7,80.7
				C25.7,80.7,25.6,80.7,25.7,80.7c-0.5,0-0.9-0.4-0.8-0.9c0,0,0-0.1,0-0.1c0-0.5,0.4-0.8,0.9-0.7c0.5,0,0.8,0.4,0.7,0.9l-0.8-0.1
				l0.8,0.1C26.5,80.3,26.1,80.7,25.7,80.7z M25.8,79C25.8,79,25.8,79,25.8,79c-0.5,0-0.8-0.6-0.8-1.1l0-0.2c0-0.5,0.4-0.8,0.8-0.9
				c0.5,0,0.8,0.4,0.8,0.8l0,0.3C26.6,78.4,26.3,79,25.8,79z M25.8,76.4c-0.5,0-0.8-0.4-0.8-0.8c0-0.5,0.4-0.9,0.8-0.9
				c0.5,0,0.8,0.3,0.8,0.8c0,0,0,0.1,0,0.1C26.6,76,26.3,76.4,25.8,76.4z M25.8,73.7c-0.4,0-0.8-0.1-0.8-0.5c0-0.5,0.3-0.8,0.8-0.8
				c0.5,0,0.8,0.4,0.9,0.8l0-0.1C26.6,73.5,26.3,73.7,25.8,73.7C25.8,73.7,25.8,73.7,25.8,73.7z M25.7,72.1c-0.4,0-0.8-0.3-0.8-0.8
				c0-0.5,0.3-0.9,0.8-0.9c0.5,0,0.8,0.3,0.9,0.7l0,0.1C26.5,71.7,26.2,72.1,25.7,72.1C25.7,72.1,25.7,72.1,25.7,72.1z M25.5,70
				c-0.4,0-0.8-0.3-0.8-0.7l0-0.1c0-0.5,0.3-0.9,0.7-0.9c0.5,0,0.9,0.3,0.9,0.7l0,0.1C26.3,69.5,26,69.9,25.5,70
				C25.5,70,25.5,70,25.5,70z M25.2,67.8c-0.4,0-0.8-0.3-0.8-0.7c-0.1-0.5,0.3-0.9,0.7-1c0.5-0.1,0.9,0.2,0.9,0.7l0,0.1
				C26.1,67.4,25.8,67.8,25.2,67.8C25.3,67.8,25.3,67.8,25.2,67.8z M24.9,65.7c-0.4,0-0.7-0.3-0.8-0.7c-0.1-0.4,0.2-0.9,0.7-1
				c0.4-0.1,0.9,0.2,0.9,0.6l0,0.1c0.1,0.4-0.2,0.9-0.7,0.9C25,65.7,25,65.7,24.9,65.7z"/>
		</g>
	</g>
	<g>
		<path d="M65.1,33.5l-10.5-1.3c-2.2-0.3-3.8-2.3-3.5-4.5l1.3-10.5c0.3-2.2,2.3-3.8,4.5-3.5L67.5,15c2.2,0.3,3.8,2.3,3.5,4.5
			L69.7,30C69.4,32.2,67.4,33.8,65.1,33.5z"/>
		<path fill="#FFFFFF" stroke="#000000" stroke-miterlimit="10" d="M64.3,31.3l-7.2-0.9c-2.2-0.3-3.8-2.3-3.5-4.5l0.9-7
			c0.3-2.2,2.3-3.8,4.5-3.5l7.2,0.9c2.2,0.3,3.8,2.3,3.5,4.5l-0.9,7C68.6,30.1,66.5,31.6,64.3,31.3z"/>
		<path fill="#FFFFFF" d="M56.2,14.6l0.1,1c0,0-1.5-0.3-2.1,1.9l-1.1-0.5C53.1,17.1,53.6,14.5,56.2,14.6z"/>
		<path fill="#FFFFFF" d="M52.7,26.8c0,0-0.3,2.1,2.8,3.6l-0.4,1c0,0-2.4-0.2-3.3-3.5L52.7,26.8z"/>
		<path fill="#FFFFFF" d="M65.4,31.6c0,0,1.2,0,2.3-1.2l0.6,1c0,0-0.7,1.3-2.5,1.3L65.4,31.6z"/>
	</g>
	<g>
		<path d="M90.4,27.7l-10.5,1.4c-2.2,0.3-4.2-1.2-4.6-3.5l-1.4-10.5c-0.3-2.2,1.2-4.2,3.5-4.6l10.5-1.4c2.2-0.3,4.2,1.2,4.6,3.5
			l1.4,10.5C94.1,25.4,92.6,27.4,90.4,27.7z"/>
		<path fill="#FFFFFF" stroke="#000000" stroke-miterlimit="10" d="M89,25.8l-7.2,1c-2.2,0.3-4.2-1.2-4.6-3.5l-1-7
			c-0.3-2.2,1.2-4.2,3.5-4.6l7.2-1c2.2-0.3,4.2,1.2,4.6,3.5l1,7C92.8,23.5,91.2,25.5,89,25.8z"/>
		<path fill="#FFFFFF" d="M76.9,11.8l0.3,1c0,0-1.6,0.1-1.6,2.4L74.4,15C74.4,15,74.3,12.3,76.9,11.8z"/>
		<path fill="#FFFFFF" d="M76.6,24.4c0,0,0.3,2.1,3.7,2.7l-0.2,1c0,0-2.4,0.5-4.1-2.5L76.6,24.4z"/>
		<path fill="#FFFFFF" d="M90.2,25.8c0,0,1.2-0.3,1.9-1.8l0.8,0.9c0,0-0.4,1.4-2.1,1.9L90.2,25.8z"/>
	</g>
	<g>
		<path d="M64.3,19.2l2.2,0.3l-4.1,5.4L62,28.4l-2-0.3l0.5-3.5l-2.3-6.4l2.3,0.4l1.3,4.4L64.3,19.2z"/>
	</g>
	<g>
		<path d="M88,22.3c-0.6,0.8-1.6,1.3-2.9,1.5c-1.3,0.2-2.4,0-3.2-0.7c-1.1-0.8-1.7-2-2-3.7c-0.2-1.7,0-3.1,0.9-4.1
			c0.6-0.8,1.6-1.3,2.9-1.5c1.3-0.2,2.4,0,3.2,0.7c1.1,0.7,1.7,2,2,3.7C89.1,19.9,88.8,21.2,88,22.3z M86.6,21
			c0.4-0.6,0.5-1.5,0.3-2.6c-0.2-1.1-0.5-1.8-1-2.4c-0.5-0.5-1.2-0.7-2-0.6s-1.4,0.5-1.7,1.1c-0.4,0.6-0.5,1.5-0.3,2.6
			c0.2,1.1,0.5,1.8,1,2.4c0.5,0.5,1.2,0.7,2,0.6C85.6,22,86.2,21.6,86.6,21z"/>
	</g>
	<g>
		<path d="M95.9,12.3h3.7v4.4l-1,8.1h-1.8l-1-8.1V12.3z M96,26.1h3.5v3.4H96V26.1z"/>
	</g>
	<g>
	</g>
	<g>
	</g>
	<g>
	</g>
	<g>
	</g>
	<g>
	</g>
	<g>
	</g>
	<g>
	</g>
	<g>
	</g>
	<g>
	</g>
	<g>
	</g>
	<g>
	</g>
	<g>
	</g>
	<g>
	</g>
	<g>
	</g>
	<g>
	</g>
</g>
</svg>
