<?xml version="1.0" encoding="utf-8"?>
<!-- Generator: Adobe Illustrator 18.1.0, SVG Export Plug-In . SVG Version: 6.00 Build 0)  -->
<!DOCTYPE svg PUBLIC "-//W3C//DTD SVG 1.1//EN" "http://www.w3.org/Graphics/SVG/1.1/DTD/svg11.dtd">
<svg version="1.1" xmlns="http://www.w3.org/2000/svg" xmlns:xlink="http://www.w3.org/1999/xlink" x="0px" y="0px"
	 viewBox="0 0 68.2 81" enable-background="new 0 0 68.2 81" xml:space="preserve">
<g id="Layer_1">
</g>
<g id="Layer_3">
	<path fill="none" stroke="#000000" stroke-width="2" stroke-linecap="round" stroke-linejoin="round" stroke-miterlimit="10" d="
		M65.2,57.2c0,0.2-0.1,0.4-0.2,0.6C63.6,70.3,51.4,80,36.6,80c-12.9,0-23.7-7.4-27.3-17.5c-0.6-0.9-0.9-2-1.2-3.1
		c-1.4-5.8-1-12,0.3-17.8c1.2-5.1,2.9-10.1,4.8-15C14,12.3,24.4,1,37.2,1c12.2,0,22.6,12.2,24.2,25.4c1.7,4.7,1.8,8,2.8,13
		c0.6,2.9,1.3,5.8,1.6,8.7C66.1,51.1,65.9,54.2,65.2,57.2z"/>
	<path fill="none" stroke="#000000" stroke-width="2" stroke-linecap="round" stroke-linejoin="round" stroke-miterlimit="10" d="
		M65.5,56.8c0.3-0.8,0.3-1.6,0.2-2.4c-0.3-7.1-1-15.7-2.8-22.6c1.4,6.7,0.6,15.3-1.7,21.7c-0.9,2.6-2.5,5.4-5.1,6.2
		c1.7-0.2,3.5,0.1,5.3-0.1C63.1,59.3,64.9,58.4,65.5,56.8z"/>
	<path d="M54.7,9.4c-1.3-1.3-2.9-2.2-4.5-3.1c-2-1.1-3.9-2.2-5.9-3.3c-1.1-0.6-2.2-1.3-3.5-1.6c-2.2-0.6-4.6-0.1-6.8,0.5
		c-2.9,0.8-5.7,1.8-8.5,2.9c-1.6,0.7-3.2,1.4-4.4,2.7c-1,1-1.6,2.1-2.3,3.3c-1.1,2-2.1,4.1-3.1,6.1c-0.4,0.8-0.7,1.6-0.5,2.4
		c0.9-1.2,2.3-2,3.8-2.2c2.4-0.3,4.8,1.1,6.4,2.9c1.6,1.8,2.5,4.1,3.5,6.4c2,4.7,4.3,9.3,6.8,13.8c0.3,0.5,0.6,1,1.2,1.1
		c0.5,0,0.9-0.3,1.2-0.7c0.9-1.1,1.6-2.5,2.2-3.8c2.3-4.7,5-9.2,8.1-13.4c1.1-1.5,2.3-3,3.9-4c2.3-1.4,5.3-1.5,7.6-0.2
		c-0.3-2.2-1.5-4.1-2.7-6C56.6,11.8,55.8,10.5,54.7,9.4z"/>
	<circle fill="none" stroke="#000000" stroke-width="2" stroke-miterlimit="10" cx="19" cy="27.1" r="2.1"/>
	<circle fill="none" stroke="#000000" stroke-width="2" stroke-miterlimit="10" cx="56" cy="27.1" r="2.1"/>
	<path fill="none" stroke="#000000" stroke-width="2" stroke-miterlimit="10" d="M67.2,29.2c0,6.2-4.7,11.2-10.6,11.2
		c-0.6,0-1.3-0.1-1.9-0.2c-4.9-0.9-8.7-5.5-8.7-11C46.1,23,50.8,18,56.7,18S67.2,23,67.2,29.2z"/>
	<path fill="none" stroke="#000000" stroke-width="0.75" stroke-miterlimit="10" d="M64.7,29.5c0,4.8-3.7,8.6-8.2,8.6
		c-0.5,0-1,0-1.5-0.1c-3.8-0.7-6.7-4.2-6.7-8.5c0-4.8,3.7-8.6,8.2-8.6S64.7,24.8,64.7,29.5z"/>
	
		<path fill="none" stroke="#000000" stroke-linecap="round" stroke-linejoin="round" stroke-miterlimit="10" stroke-dasharray="0.1,1.25" d="
		M53.8,40.8c-0.2,3.7,1.4,7.2,2.8,10.2c0.9,1.8,1.9,3.8,3.4,4.3"/>
	<path d="M18.7,75.2c-1.1-0.3-2.2-0.5-3.3-0.3s-2.1,1.1-2.1,2.2c0,0.3,0.1,0.7,0.3,0.9c0.2,0.2,0.4,0.3,0.7,0.4
		c1.2,0.4,2.6,0.4,3.8-0.1c1.4-0.5,2.8-1.4,4.1-0.9c-0.9-1.2-2.3-2.1-3.8-2.5"/>
	<path d="M53.9,75.2c1.1-0.3,2.2-0.5,3.3-0.3s2.1,1.1,2.1,2.2c0,0.3-0.1,0.7-0.3,0.9c-0.2,0.2-0.4,0.3-0.7,0.4
		c-1.2,0.4-2.6,0.4-3.8-0.1c-1.4-0.5-2.8-1.4-4.1-0.9c0.9-1.2,2.3-2.1,3.8-2.5"/>
	<path fill="#FFFFFF" stroke="#000000" stroke-width="2" stroke-miterlimit="10" d="M9.3,29.7l1.1,5l1.3-0.3
		c2.5-0.6,4.9,1.1,5.5,3.7l0.6,2.4c0.6,2.5-0.9,4.8-3.4,5.4l-2.1,0.5c-2.2,0.5-4.6-0.5-5.5-2.5c0-0.1-0.1-0.1-0.1-0.2
		c-0.1-0.2-0.3-0.3-0.4-0.5L1.9,23.6c-0.6-2.5,1.3-5.3,3.9-5.9l2.1-0.5c2.5-0.6,4.9,1.2,5.5,3.8l0.6,2.4c0.6,2.5-0.8,5.4-3.3,6
		L9.3,29.7z"/>
	<path fill="none" stroke="#000000" stroke-width="2" stroke-linecap="round" stroke-linejoin="round" stroke-miterlimit="10" d="
		M3.9,33.7c0,0-8.5,15.2,3.3,24l1.1-12C8.3,45.7,3.1,37.2,3.9,33.7z"/>
	<g>
	</g>
	<g>
	</g>
	<g>
	</g>
	<g>
	</g>
	<g>
	</g>
	<g>
	</g>
	<g>
	</g>
	<g>
	</g>
	<g>
	</g>
	<g>
	</g>
	<g>
	</g>
	<g>
	</g>
	<g>
	</g>
	<g>
	</g>
	<g>
	</g>
</g>
</svg>
