<?xml version="1.0" encoding="utf-8"?>
<!-- Generator: Adobe Illustrator 18.1.0, SVG Export Plug-In . SVG Version: 6.00 Build 0)  -->
<!DOCTYPE svg PUBLIC "-//W3C//DTD SVG 1.1//EN" "http://www.w3.org/Graphics/SVG/1.1/DTD/svg11.dtd">
<svg version="1.1" xmlns="http://www.w3.org/2000/svg" xmlns:xlink="http://www.w3.org/1999/xlink" x="0px" y="0px"
	 viewBox="0 0 100 100" enable-background="new 0 0 100 100" xml:space="preserve">
<g id="Layer_1">
</g>
<g id="Layer_3">
	<g>
		<g>
			<path d="M52.4,100c-16.1,0-30-9-34.8-22.3c-0.7-1.1-1.2-2.4-1.6-4c-1.6-6.7-1.5-14.2,0.4-22.5c1.3-5.5,3.1-11.4,5.9-18.5
				c1-18.2,14.5-32.5,30.8-32.5c15,0,28.9,14.5,31,32.3c1.5,4.1,2,7.3,2.6,11c0.3,1.6,0.5,3.2,0.9,5.1c0.2,1.1,0.4,2.1,0.7,3.2
				c0.5,2.5,1.1,5.1,1.4,7.7c0.4,3.9,0.2,7.8-0.7,11.6c-0.1,0.3-0.1,0.5-0.2,0.8C86.7,87.8,71.1,100,52.4,100z M53.1,2.5
				c-15,0-27.5,13.3-28.3,30.4c0,0.1,0,0.3-0.1,0.4c-2.7,7.1-4.6,12.9-5.8,18.4c-1.8,7.9-2,15.1-0.4,21.4c0.3,1.5,0.8,2.6,1.3,3.4
				c0.1,0.1,0.1,0.2,0.1,0.3c4.4,12.4,17.5,20.8,32.5,20.8c17.5,0,32-11.3,33.8-26.3c0-0.1,0-0.2,0-0.2c0.1-0.2,0.1-0.5,0.2-0.7
				c0.8-3.5,1-7.1,0.7-10.8c-0.3-2.5-0.8-5-1.3-7.4c-0.2-1.1-0.5-2.2-0.7-3.2c-0.4-1.9-0.6-3.6-0.9-5.2c-0.6-3.6-1.1-6.8-2.5-10.7
				c0-0.1-0.1-0.2-0.1-0.3C79.8,16.1,66.9,2.5,53.1,2.5z"/>
		</g>
		<g>
			<path d="M76.4,74.9c-0.6,0-1.1-0.4-1.2-1c-0.1-0.6,0.2-1.2,0.9-1.4c2.3-0.7,4.1-2.9,5.5-6.9c2.9-8,3.7-18.2,2.1-26.1
				c-0.1-0.7,0.3-1.3,0.9-1.5c0.7-0.1,1.3,0.2,1.5,0.9c1.9,7.3,3,16.7,3.5,28.1c0,1.2,0.1,2.3-0.4,3.5c-1,2.6-3.8,4-6.1,4.3
				c-0.7,0.1-1.4,0.2-2.3,0.2h0c-0.4,0-0.9-0.1-1.3-0.1c-1.1,0-2.1-0.1-2.9,0C76.4,74.9,76.4,74.9,76.4,74.9z M80.5,72
				c0.1,0,0.1,0,0.2,0l0,0.2c0.8,0,1.4,0.1,2,0c1.6-0.2,3.6-1,4.1-2.5c0.3-0.7,0.2-1.5,0.2-2.5c-0.2-3.8-0.4-7.4-0.7-10.8
				c-0.5,3.5-1.3,6.8-2.5,9.9C82.9,68.8,81.8,70,80.5,72z"/>
		</g>
		<g>
			<path d="M74.7,11.7c-1.6-1.6-3.6-2.7-5.5-3.8c-2.4-1.4-4.8-2.7-7.2-4.1c-1.4-0.8-2.7-1.6-4.3-2C54.9,1,52,1.6,49.3,2.4
				c-3.6,1-7.1,2.2-10.5,3.6c-2,0.8-3.9,1.8-5.4,3.3c-1.2,1.2-2,2.6-2.8,4.1c-1.4,2.5-2.6,5-3.8,7.6c-0.4,0.9-0.9,2-0.6,3
				c1.1-1.5,2.8-2.5,4.7-2.7c3-0.4,5.9,1.3,7.8,3.6s3.1,5.1,4.3,7.9c2.5,5.8,5.3,11.5,8.4,17c0.3,0.6,0.8,1.3,1.5,1.3
				c0.6,0,1.1-0.4,1.5-0.9c1.2-1.4,1.9-3.1,2.8-4.7c2.9-5.8,6.2-11.3,10-16.5c1.4-1.9,2.8-3.7,4.8-4.9c2.8-1.7,6.5-1.8,9.4-0.3
				c-0.4-2.7-1.9-5.1-3.3-7.4C77,14.6,76,13,74.7,11.7z"/>
		</g>
		<g>
			<path d="M30.6,37.3c-2.1,0-3.8-1.7-3.8-3.8s1.7-3.8,3.8-3.8s3.8,1.7,3.8,3.8S32.7,37.3,30.6,37.3z M30.6,32.1
				c-0.7,0-1.3,0.6-1.3,1.3c0,0.7,0.6,1.3,1.3,1.3c0.7,0,1.3-0.6,1.3-1.3C31.9,32.7,31.4,32.1,30.6,32.1z"/>
		</g>
		<g>
			<path d="M76.3,37.3c-2.1,0-3.8-1.7-3.8-3.8s1.7-3.8,3.8-3.8s3.8,1.7,3.8,3.8S78.4,37.3,76.3,37.3z M76.3,32.1
				c-0.7,0-1.3,0.6-1.3,1.3c0,0.7,0.6,1.3,1.3,1.3s1.3-0.6,1.3-1.3C77.6,32.7,77,32.1,76.3,32.1z"/>
		</g>
		<g>
			<path d="M77.1,51c-0.9,0-1.7-0.1-2.6-0.2c-6.8-1.3-11.7-7.5-11.7-14.8c0-8.3,6.4-15,14.3-15s14.3,6.7,14.3,15
				C91.4,44.3,85,51,77.1,51z M77.1,23.5c-6.5,0-11.8,5.6-11.8,12.5c0,6.1,4.1,11.3,9.7,12.3c0.7,0.1,1.4,0.2,2.1,0.2
				c6.5,0,11.8-5.6,11.8-12.5S83.6,23.5,77.1,23.5z"/>
		</g>
		<g>
			<path d="M77,47.6c-0.6,0-1.3-0.1-1.9-0.2c-5-1-8.6-5.5-8.6-10.9c0-6.1,4.7-11.1,10.5-11.1c5.8,0,10.5,5,10.5,11.1
				S82.8,47.6,77,47.6z M77,26.3c-5.3,0-9.6,4.6-9.6,10.2c0,4.9,3.3,9.1,7.9,10c0.6,0.1,1.1,0.2,1.7,0.2c5.3,0,9.6-4.6,9.6-10.2
				S82.3,26.3,77,26.3z"/>
		</g>
		<g>
			<path d="M81.1,69c-0.1,0-0.2,0-0.2,0l-0.1-0.1c-0.3-0.1-0.4-0.5-0.3-0.8c0.1-0.3,0.5-0.4,0.8-0.3l0.1,0c0.3,0.1,0.5,0.5,0.3,0.8
				C81.6,68.8,81.4,69,81.1,69z M79.8,68c-0.2,0-0.3-0.1-0.4-0.2l-0.1-0.1c-0.2-0.2-0.2-0.6,0-0.9c0.2-0.2,0.6-0.2,0.9,0l0.1,0.1
				c0.2,0.2,0.2,0.6,0,0.9C80.1,68,79.9,68,79.8,68z M78.7,66.8c-0.2,0-0.4-0.1-0.5-0.3c0,0-0.1-0.1-0.1-0.1
				c-0.2-0.3-0.1-0.7,0.2-0.9c0.3-0.2,0.7-0.1,0.9,0.2L78.7,66l0.6-0.2c0.2,0.3,0.1,0.7-0.2,0.9C79,66.7,78.9,66.8,78.7,66.8z
				 M77.9,65.3c-0.2,0-0.4-0.1-0.5-0.3c-0.2-0.3-0.1-0.7,0.2-0.9c0.3-0.2,0.6-0.1,0.8,0.2l0.1,0.1c0.2,0.3,0,0.7-0.3,0.8
				C78.1,65.3,78,65.3,77.9,65.3z M77.1,63.8c-0.2,0-0.4-0.1-0.6-0.3l-0.1-0.1c-0.1-0.3,0-0.7,0.3-0.8c0.3-0.1,0.7,0,0.8,0.3
				l0.1,0.1c0.2,0.3,0,0.7-0.3,0.8C77.3,63.8,77.2,63.8,77.1,63.8z M76.4,62.3c-0.2,0-0.5-0.1-0.6-0.4c-0.1-0.3,0-0.7,0.3-0.9
				c0.3-0.1,0.7-0.1,0.8,0.2l0.1,0.1c0.1,0.3,0,0.7-0.3,0.8C76.6,62.3,76.5,62.3,76.4,62.3z M75.7,60.8c-0.2,0-0.5-0.1-0.6-0.4
				c-0.1-0.3,0-0.7,0.3-0.9c0.3-0.1,0.7,0,0.8,0.3l0.1,0.1c0.1,0.3,0,0.7-0.3,0.8C75.9,60.8,75.8,60.8,75.7,60.8z M75.1,59.3
				c-0.2,0-0.5-0.1-0.6-0.4l-0.1-0.1c-0.1-0.3,0-0.7,0.4-0.8c0.3-0.1,0.7,0,0.8,0.4l0,0.1c0.1,0.3,0,0.7-0.3,0.8
				C75.2,59.3,75.2,59.3,75.1,59.3z M74.5,57.7c-0.3,0-0.5-0.2-0.6-0.4l0-0.1c-0.1-0.3,0.1-0.7,0.4-0.8c0.3-0.1,0.7,0.1,0.8,0.4
				l0,0.1c0.1,0.3-0.1,0.7-0.4,0.8C74.7,57.7,74.6,57.7,74.5,57.7z M74.1,56.1c-0.3,0-0.5-0.2-0.6-0.5c-0.1-0.3,0.1-0.7,0.4-0.8
				c0.3-0.1,0.7,0.1,0.7,0.4l0,0.1c0.1,0.3-0.1,0.7-0.5,0.7C74.2,56.1,74.1,56.1,74.1,56.1z M73.7,54.5c-0.3,0-0.6-0.2-0.6-0.5
				c0,0,0-0.1,0-0.1c0-0.3,0.2-0.6,0.5-0.7c0.3,0,0.6,0.2,0.7,0.5l-0.6,0.1l0.6,0C74.4,54.1,74.2,54.4,73.7,54.5
				C73.8,54.5,73.8,54.5,73.7,54.5z M73.5,52.8c-0.3,0-0.6-0.3-0.6-0.6c0-0.3,0.2-0.7,0.6-0.7c0.3,0,0.6,0.2,0.6,0.5l0,0.1
				C74.2,52.5,73.9,52.8,73.5,52.8C73.6,52.8,73.5,52.8,73.5,52.8z M73.5,51.2C73.5,51.2,73.5,51.2,73.5,51.2
				c-0.4,0-0.6-0.3-0.6-0.7l0-0.1c0-0.3,0.3-0.6,0.7-0.6c0.3,0,0.6,0.3,0.6,0.7l0,0.1C74.1,50.9,73.9,51.2,73.5,51.2z"/>
		</g>
		<g>
			<path d="M30.3,92.8c-1.3-0.3-2.7-0.7-4-0.4s-2.6,1.4-2.6,2.7c0,0.4,0.1,0.9,0.4,1.1c0.2,0.2,0.5,0.3,0.8,0.4
				c1.5,0.5,3.2,0.5,4.7-0.1c1.7-0.6,3.4-1.8,5-1.1c-1.2-1.5-2.9-2.6-4.7-3.1"/>
		</g>
		<g>
			<path d="M73.6,92.8c1.3-0.3,2.7-0.7,4-0.4s2.6,1.4,2.6,2.7c0,0.4-0.1,0.9-0.4,1.1c-0.2,0.2-0.5,0.3-0.8,0.4
				c-1.5,0.5-3.2,0.5-4.7-0.1c-1.7-0.6-3.4-1.8-5-1.1c1.2-1.5,2.9-2.6,4.7-3.1"/>
		</g>
		<g>
			<path fill="#FFFFFF" d="M18.7,36.7l1.4,6.2l1.6-0.4c3.1-0.7,6.1,1.4,6.8,4.5l0.7,3c0.7,3.1-1.1,5.9-4.2,6.6l-2.5,0.6
				c-2.8,0.6-5.7-0.6-6.8-3.1c0-0.1-0.1-0.1-0.1-0.2c-0.1-0.3-0.4-0.4-0.5-0.7L9.6,29.2c-0.7-3.1,1.6-6.6,4.8-7.3l2.5-0.6
				c3.1-0.7,6.1,1.5,6.8,4.7l0.7,3c0.7,3.1-0.9,6.6-4.1,7.4L18.7,36.7z"/>
			<path d="M20.9,58.7c-2.8,0-5.4-1.6-6.5-4c0-0.1-0.1-0.1-0.1-0.2c-0.2-0.2-0.5-0.5-0.6-1l-5.5-24c-0.8-3.7,1.9-7.9,5.7-8.8
				l2.5-0.6c0.5-0.1,1-0.2,1.5-0.2c3.2,0,6.1,2.4,6.8,5.8l0.7,3c0.9,4-1.3,8-5,8.8l-0.4,0.1l0.9,3.8l0.4-0.1c0.5-0.1,1-0.2,1.5-0.2
				c3.2,0,6,2.3,6.7,5.6l0.7,3c0.9,3.8-1.3,7.2-5.2,8.1l-2.5,0.6C22.1,58.6,21.5,58.7,20.9,58.7z M16.2,52.8
				c0.1,0.2,0.3,0.4,0.4,0.7l0.1,0.1c0.7,1.6,2.4,2.5,4.2,2.5c0.4,0,0.8,0,1.2-0.1l2.5-0.6c2.5-0.6,3.9-2.7,3.3-5.1l-0.7-3
				c-0.6-2.5-2.9-4.1-5.3-3.6l-2.8,0.6l-2-8.6l2.8-0.6c2.6-0.6,3.7-3.5,3.1-5.9l-0.7-3c-0.6-2.5-3-4.3-5.3-3.7l-2.5,0.6
				c-2.5,0.6-4.4,3.4-3.9,5.8L16.2,52.8z"/>
		</g>
		<g>
			<path d="M16.2,72.4c-0.3,0-0.5-0.1-0.7-0.2C0.2,60.9,10.9,41.2,11,41c0.3-0.5,1-0.8,1.5-0.5c0.6,0.2,0.9,0.8,0.7,1.4
				c-0.7,2.8,2.9,10,5.3,13.9c0.1,0.2,0.2,0.5,0.2,0.8l-1.3,14.8c0,0.4-0.3,0.8-0.7,1C16.5,72.4,16.3,72.4,16.2,72.4z M11.4,46.4
				c-0.6,1.7-1.2,3.9-1.5,6.2c-0.9,6.7,0.9,12.1,5.3,16.2l1.1-12.1C15.3,55.2,12.6,50.6,11.4,46.4z"/>
		</g>
	</g>
</g>
</svg>
