<?xml version="1.0" encoding="utf-8"?>
<!-- Generator: Adobe Illustrator 18.1.0, SVG Export Plug-In . SVG Version: 6.00 Build 0)  -->
<!DOCTYPE svg PUBLIC "-//W3C//DTD SVG 1.1//EN" "http://www.w3.org/Graphics/SVG/1.1/DTD/svg11.dtd">
<svg version="1.1" xmlns="http://www.w3.org/2000/svg" xmlns:xlink="http://www.w3.org/1999/xlink" x="0px" y="0px"
	 viewBox="0 0 100 100" enable-background="new 0 0 100 100" xml:space="preserve">
<g id="Layer_1">
</g>
<g id="Layer_3">
	<g>
		<g>
			<path d="M36,99.3c-11.6,0-21.7-6.5-25.1-16.1c-0.5-0.8-0.8-1.7-1.1-2.9C8.6,75.4,8.7,69.9,10.1,64c0.9-4,2.3-8.2,4.2-13.4
				C15,37.4,24.8,27.1,36.5,27.1c10.8,0,20.8,10.5,22.4,23.3c1.1,2.9,1.4,5.3,1.9,7.9c0.2,1.2,0.4,2.3,0.6,3.7
				c0.1,0.8,0.3,1.5,0.5,2.3c0.4,1.8,0.8,3.7,1,5.5c0.3,2.8,0.1,5.6-0.5,8.4c0,0.2-0.1,0.4-0.2,0.6C60.7,90.5,49.5,99.3,36,99.3z
				 M36.5,28.9c-10.9,0-19.9,9.6-20.5,21.9c0,0.1,0,0.2-0.1,0.3c-2,5.1-3.3,9.3-4.2,13.3c-1.3,5.7-1.4,10.9-0.3,15.5
				c0.2,1.1,0.6,1.9,0.9,2.5c0,0.1,0.1,0.1,0.1,0.2c3.2,9,12.6,15,23.5,15c12.6,0,23.1-8.2,24.4-19c0-0.1,0-0.1,0-0.2
				c0.1-0.2,0.1-0.3,0.1-0.5c0.6-2.5,0.8-5.2,0.5-7.8c-0.2-1.8-0.6-3.6-0.9-5.3c-0.2-0.8-0.3-1.6-0.5-2.3c-0.3-1.4-0.5-2.6-0.6-3.7
				c-0.4-2.6-0.8-4.9-1.8-7.7c0-0.1,0-0.1,0-0.2C55.8,38.7,46.5,28.9,36.5,28.9z"/>
		</g>
		<g>
			<path d="M52.1,35.5c-1.1-1.2-2.6-2-4-2.8c-1.7-1-3.5-2-5.2-3c-1-0.6-2-1.1-3.1-1.4c-2-0.5-4.1-0.1-6.1,0.4
				c-2.6,0.7-5.1,1.6-7.6,2.6c-1.4,0.6-2.8,1.3-3.9,2.4c-0.8,0.8-1.5,1.9-2,3c-1,1.8-1.9,3.6-2.8,5.5c-0.3,0.7-0.6,1.4-0.4,2.1
				c0.8-1.1,2-1.8,3.4-2c2.1-0.3,4.3,1,5.7,2.6c1.4,1.6,2.2,3.7,3.1,5.7c1.8,4.2,3.8,8.3,6.1,12.3c0.2,0.4,0.6,0.9,1.1,1
				c0.4,0,0.8-0.3,1.1-0.6c0.8-1,1.4-2.2,2-3.4c2.1-4.2,4.5-8.2,7.2-11.9c1-1.3,2.1-2.7,3.5-3.6c2-1.2,4.7-1.3,6.8-0.2
				c-0.3-1.9-1.3-3.7-2.4-5.3C53.8,37.6,53.1,36.4,52.1,35.5z"/>
		</g>
		<g>
			<path d="M20.3,54c-1.5,0-2.7-1.2-2.7-2.7c0-1.5,1.2-2.7,2.7-2.7s2.7,1.2,2.7,2.7C23,52.7,21.8,54,20.3,54z M20.3,50.3
				c-0.5,0-1,0.4-1,1c0,0.5,0.4,1,1,1c0.5,0,1-0.4,1-1C21.2,50.7,20.8,50.3,20.3,50.3z"/>
		</g>
		<g>
			<path d="M53.2,54c-1.5,0-2.7-1.2-2.7-2.7c0-1.5,1.2-2.7,2.7-2.7c1.5,0,2.7,1.2,2.7,2.7C56,52.7,54.7,54,53.2,54z M53.2,50.3
				c-0.5,0-1,0.4-1,1c0,0.5,0.4,1,1,1s1-0.4,1-1C54.2,50.7,53.8,50.3,53.2,50.3z"/>
		</g>
		<g>
			<path d="M53.8,63.9c-0.6,0-1.3-0.1-1.9-0.2c-4.9-0.9-8.5-5.4-8.5-10.7c0-6,4.6-10.8,10.3-10.8s10.3,4.9,10.3,10.8
				C64.1,59.1,59.5,63.9,53.8,63.9z M53.8,44c-4.7,0-8.5,4.1-8.5,9.1c0,4.4,2.9,8.1,7,8.9c0.5,0.1,1,0.1,1.5,0.1
				c4.7,0,8.5-4.1,8.5-9.1S58.5,44,53.8,44z"/>
		</g>
		<g>
			<path d="M53.7,61.4c-0.5,0-0.9,0-1.4-0.1c-3.6-0.7-6.2-4-6.2-7.9c0-4.4,3.4-8,7.6-8s7.6,3.6,7.6,8S57.9,61.4,53.7,61.4z
				 M53.7,46.1c-3.8,0-6.9,3.3-6.9,7.3c0,3.6,2.4,6.6,5.7,7.2c0.4,0.1,0.8,0.1,1.2,0.1c3.8,0,6.9-3.3,6.9-7.3S57.6,46.1,53.7,46.1z"
				/>
		</g>
		<g>
			<path d="M60.1,80.4c-0.1,0-0.1,0-0.2,0c-0.2-0.1-0.4-0.4-0.2-0.6c0.1-0.2,0.3-0.3,0.6-0.2l0.1,0c0.2,0.1,0.3,0.4,0.2,0.6
				C60.4,80.3,60.3,80.4,60.1,80.4z M59.1,79.7c-0.1,0-0.2,0-0.3-0.1l-0.1-0.1c-0.2-0.2-0.2-0.4-0.1-0.6c0.2-0.2,0.4-0.2,0.6-0.1
				l0.1,0c0.2,0.1,0.2,0.4,0.1,0.6C59.4,79.7,59.2,79.7,59.1,79.7z M58.2,78.9c-0.1,0-0.2,0-0.3-0.1c-0.2-0.2-0.2-0.5,0-0.7
				c0.2-0.2,0.4-0.2,0.6,0l0.1,0.1c0.2,0.2,0.2,0.5,0,0.6C58.4,78.9,58.3,78.9,58.2,78.9z M57.4,78.1c-0.1,0-0.3-0.1-0.3-0.2
				c-0.2-0.2-0.2-0.5,0-0.7c0.2-0.2,0.4-0.2,0.6,0l0.1,0.1c0.2,0.2,0.1,0.5-0.1,0.6C57.6,78,57.5,78.1,57.4,78.1z M56.7,77.1
				c-0.1,0-0.3-0.1-0.4-0.2c-0.1-0.2-0.1-0.5,0.1-0.7c0.2-0.1,0.5-0.1,0.6,0.1c0,0,0.1,0.1,0.1,0.1c0.1,0.2,0.1,0.5-0.1,0.6
				C56.8,77.1,56.7,77.1,56.7,77.1z M56,76.1c-0.1,0-0.3-0.1-0.4-0.2c-0.1-0.2-0.1-0.5,0.1-0.6c0.2-0.1,0.5-0.1,0.6,0.1
				c0,0,0.1,0.1,0.1,0.1c0.1,0.2,0.1,0.5-0.1,0.6C56.1,76.1,56.1,76.1,56,76.1z M55.3,75.1c-0.1,0-0.3-0.1-0.4-0.2
				c-0.1-0.2-0.1-0.5,0.1-0.7c0.2-0.1,0.5-0.1,0.6,0.1l0.1,0.1c0.1,0.2,0.1,0.5-0.1,0.6C55.5,75.1,55.4,75.1,55.3,75.1z M54.7,74.1
				c-0.1,0-0.3-0.1-0.4-0.2c-0.1-0.2-0.1-0.5,0.1-0.7c0.2-0.1,0.5-0.1,0.6,0.1l0,0.1c0.1,0.2,0.1,0.5-0.1,0.6
				C54.8,74.1,54.8,74.1,54.7,74.1z M54,73.1c-0.2,0-0.3-0.1-0.4-0.2c0,0,0-0.1,0-0.1c-0.1-0.2-0.1-0.5,0.2-0.6
				c0.2-0.1,0.5-0.1,0.6,0.2L54,72.5l0.4-0.2c0.1,0.2,0.1,0.5-0.2,0.6C54.2,73,54.1,73.1,54,73.1z M53.4,72c-0.2,0-0.3-0.1-0.4-0.2
				l0-0.1c-0.1-0.2,0-0.5,0.2-0.6c0.2-0.1,0.5,0,0.6,0.2l0,0.1c0.1,0.2,0,0.5-0.2,0.6C53.6,72,53.5,72,53.4,72z M52.9,70.9
				c-0.2,0-0.3-0.1-0.4-0.2l0-0.1c-0.1-0.2,0-0.5,0.2-0.6c0.2-0.1,0.5,0,0.6,0.2l0,0.1c0.1,0.2,0,0.5-0.2,0.6
				C53,70.9,53,70.9,52.9,70.9z M52.4,69.9c-0.2,0-0.3-0.1-0.4-0.3c-0.1-0.2,0-0.5,0.2-0.6c0.2-0.1,0.5,0,0.6,0.2c0,0,0,0.1,0,0.1
				c0.1,0.2,0,0.5-0.2,0.6C52.5,69.8,52.5,69.9,52.4,69.9z M52,68.7c-0.2,0-0.4-0.1-0.4-0.3c-0.1-0.2,0-0.5,0.3-0.6
				c0.2-0.1,0.5,0,0.5,0.2c0,0,0,0.1,0,0.1c0.1,0.2-0.1,0.5-0.3,0.6C52.1,68.7,52,68.7,52,68.7z M51.6,67.6c-0.2,0-0.4-0.1-0.4-0.3
				c-0.1-0.2,0.1-0.5,0.3-0.6c0.2-0.1,0.5,0,0.5,0.3l0,0.1c0.1,0.2-0.1,0.5-0.3,0.5C51.7,67.6,51.7,67.6,51.6,67.6z M51.4,66.4
				c-0.2,0-0.4-0.2-0.4-0.4c0,0,0-0.1,0-0.1c0-0.2,0.1-0.5,0.4-0.5c0.2,0,0.5,0.1,0.5,0.4l-0.4,0.1l0.5,0
				C51.9,66.1,51.7,66.4,51.4,66.4C51.4,66.4,51.4,66.4,51.4,66.4z M51.3,65.2c-0.2,0-0.4-0.2-0.4-0.4l0-0.1c0-0.2,0.2-0.5,0.4-0.5
				c0.2,0,0.5,0.2,0.5,0.4l0,0.1C51.7,65,51.5,65.2,51.3,65.2C51.3,65.2,51.3,65.2,51.3,65.2z M51.3,63.6l-0.4,0
				c0-0.2,0.2-0.5,0.5-0.4c0.2,0,0.4,0.2,0.4,0.4L51.3,63.6l0.4,0L51.3,63.6z"/>
		</g>
		<g>
			<path d="M20,94.1c-1-0.2-1.9-0.5-2.9-0.3c-1,0.2-1.9,1-1.9,2c0,0.3,0.1,0.6,0.3,0.8c0.2,0.2,0.4,0.2,0.6,0.3
				c1.1,0.3,2.3,0.3,3.4,0c1.2-0.4,2.5-1.3,3.6-0.8c-0.8-1.1-2.1-1.9-3.4-2.2"/>
		</g>
		<g>
			<path d="M51.3,94.1c1-0.2,1.9-0.5,2.9-0.3c1,0.2,1.9,1,1.9,2c0,0.3-0.1,0.6-0.3,0.8c-0.2,0.2-0.4,0.2-0.6,0.3
				c-1.1,0.3-2.3,0.3-3.4,0c-1.2-0.4-2.5-1.3-3.6-0.8c0.8-1.1,2.1-1.9,3.4-2.2"/>
		</g>
		<g>
			<path d="M10.6,64.8c-0.1,0-0.2,0-0.3,0C10,64.7,9.8,64.4,9.7,64c-0.6-7.4-4.6-14.2-8.4-19.9c-0.2-0.3-0.8-1.4-0.6-2.3
				c0.1-0.5,0.4-0.8,0.8-1c0.4-0.2,0.8-0.2,1.3-0.1c2.9,0.4,5.6,1.9,7.4,4.1c1,1.2,1.7,2.5,2.4,3.8c0.7,1.3,1.3,2.6,1.5,4
				c0.4,2-0.1,4.1-0.4,5.9c-0.4,2-0.9,4.4-2.5,6.2C11.1,64.7,10.9,64.8,10.6,64.8z M2.5,42.4c0,0.2,0.1,0.5,0.3,0.8
				c3.5,5.2,7.1,11.4,8.3,18.1c0.4-1.1,0.7-2.2,0.9-3.3c0.4-1.7,0.7-3.5,0.4-5.2c-0.2-1.2-0.8-2.3-1.4-3.5c-0.6-1.2-1.3-2.4-2.1-3.5
				c-1.6-1.9-3.9-3.2-6.3-3.5C2.6,42.4,2.6,42.4,2.5,42.4z"/>
		</g>
		<g>
			<path d="M61.6,65.5c-0.3,0-0.5-0.1-0.7-0.3c-1.5-1.9-1.8-4.4-2.1-6.3c-0.2-1.8-0.5-3.9,0-5.9c0.4-1.4,1.1-2.6,1.8-3.8
				c0.8-1.3,1.6-2.5,2.6-3.6c2-2.1,4.8-3.4,7.7-3.6c0.5,0,0.9,0,1.3,0.2c0.4,0.2,0.7,0.6,0.8,1.1c0.2,1-0.5,2-0.7,2.3
				c-4.2,5.4-8.6,11.9-9.8,19.2c-0.1,0.4-0.3,0.6-0.7,0.7C61.8,65.5,61.7,65.5,61.6,65.5z M71.3,43.7c0,0-0.1,0-0.1,0
				c-2.5,0.2-4.8,1.3-6.5,3c-0.9,1-1.7,2.1-2.4,3.3c-0.7,1.2-1.3,2.2-1.6,3.4c-0.4,1.7-0.2,3.4,0.1,5.2c0.1,1.1,0.3,2.3,0.6,3.3
				c1.7-6.7,5.8-12.5,9.6-17.5C71.1,44.1,71.2,43.8,71.3,43.7z"/>
		</g>
	</g>
	<g>
		<g>
			<path fill="#FFFFFF" d="M79.4,49.6l-17.9-9c-3.7-1.9-5.2-6.4-3.4-10.1l3.2-6.4c1.9-3.7,6.4-5.2,10.1-3.4l17.9,9
				c3.7,1.9,5.2,6.4,3.4,10.1l-3.2,6.4C87.6,49.9,83.1,51.4,79.4,49.6z"/>
			<path d="M82.7,52L57.6,39.4c-2.1-1-2.9-3.6-1.9-5.6l6.8-13.6c1-2.1,3.6-2.9,5.6-1.9l25.1,12.6c2.1,1,2.9,3.6,1.9,5.6l-6.8,13.6
				C87.2,52.2,84.7,53,82.7,52z M67.5,19.6c-1.4-0.7-3.1-0.1-3.8,1.2l-6.8,13.6c-0.7,1.4-0.1,3.1,1.2,3.8l25.1,12.6
				c1.4,0.7,3.1,0.1,3.8-1.2l6.8-13.6c0.7-1.4,0.1-3.1-1.2-3.8L67.5,19.6z"/>
		</g>
		<g>
			<polyline fill="#FFFFFF" points="64.5,19.1 74.6,36.8 94.8,34.3 			"/>
			<polygon points="74.2,37.6 63.9,19.4 65.1,18.7 74.9,36.1 94.7,33.6 94.9,35 			"/>
		</g>
	</g>
	<g>
	</g>
	<g>
	</g>
	<g>
	</g>
	<g>
	</g>
	<g>
	</g>
	<g>
	</g>
	<g>
	</g>
	<g>
	</g>
	<g>
	</g>
	<g>
	</g>
	<g>
	</g>
	<g>
	</g>
	<g>
	</g>
	<g>
	</g>
	<g>
	</g>
</g>
</svg>
