<?xml version="1.0" encoding="utf-8"?>
<!-- Generator: Adobe Illustrator 18.1.0, SVG Export Plug-In . SVG Version: 6.00 Build 0)  -->
<!DOCTYPE svg PUBLIC "-//W3C//DTD SVG 1.1//EN" "http://www.w3.org/Graphics/SVG/1.1/DTD/svg11.dtd">
<svg version="1.1" xmlns="http://www.w3.org/2000/svg" xmlns:xlink="http://www.w3.org/1999/xlink" x="0px" y="0px"
	 viewBox="0 0 100 100" enable-background="new 0 0 100 100" xml:space="preserve">
<g id="Layer_1">
</g>
<g id="Layer_3">
	
		<path fill="#FFFFFF" stroke="#000000" stroke-width="2" stroke-linecap="round" stroke-linejoin="round" stroke-miterlimit="10" d="
		M67.7,46.1c0.4-1.5,1.2-2.8,1.9-4c0.8-1.4,1.7-2.7,2.8-3.9c2.1-2.2,5-3.5,8-3.7c0.3,0,0.6,0,0.8,0.1c0.8,0.5,0.3,1.6-0.3,2.3
		c-5.1,6.6-9.9,13.8-11.2,22c-1.4-1.9-1.8-4.3-2.1-6.6C67.4,50.2,67.1,48.1,67.7,46.1z"/>
	
		<path fill="#FFFFFF" stroke="#000000" stroke-width="2" stroke-linecap="round" stroke-linejoin="round" stroke-miterlimit="10" d="
		M69.7,74c0,0.2-0.1,0.4-0.2,0.6C68,87.1,55.8,96.8,41.1,96.8c-12.9,0-23.7-7.4-27.3-17.5c-0.6-0.9-0.9-2-1.2-3.1
		c-1.4-5.8-1-12,0.3-17.8c1.2-5.1,2.9-10.1,4.8-15c0.7-14.2,11.2-25.6,24-25.6c12.2,0,22.6,12.2,24.2,25.4c1.7,4.7,1.8,8,2.8,13
		c0.6,2.9,1.3,5.8,1.6,8.7C70.6,68,70.4,71,69.7,74z"/>
	<path fill="#FFFFFF" stroke="#000000" stroke-width="2" stroke-miterlimit="10" d="M71.7,46c0,6.2-4.7,11.2-10.6,11.2
		c-0.6,0-1.3-0.1-1.9-0.2c-4.9-0.9-8.7-5.5-8.7-11c0-6.2,4.7-11.2,10.6-11.2S71.7,39.8,71.7,46z"/>
	<path fill="#FFFFFF" stroke="#000000" stroke-miterlimit="10" d="M69.1,46.3c0,4.8-3.7,8.6-8.2,8.6c-0.5,0-1,0-1.5-0.1
		c-3.8-0.7-6.7-4.2-6.7-8.5c0-4.8,3.7-8.6,8.2-8.6S69.1,41.6,69.1,46.3z"/>
	<path d="M59.2,26.2c-1.3-1.3-2.9-2.2-4.5-3.1c-2-1.1-3.9-2.2-5.9-3.3c-1.1-0.6-2.2-1.3-3.5-1.6c-2.2-0.6-4.6-0.1-6.8,0.5
		c-2.9,0.8-5.7,1.8-8.5,2.9c-1.6,0.7-3.2,1.4-4.4,2.7c-1,1-1.6,2.1-2.3,3.3c-1.1,2-2.1,4.1-3.1,6.1c-0.4,0.8-0.7,1.6-0.5,2.4
		c0.9-1.2,2.3-2,3.8-2.2c2.4-0.3,4.8,1.1,6.4,2.9s2.5,4.1,3.5,6.4c2,4.7,4.3,9.3,6.8,13.8c0.3,0.5,0.6,1,1.2,1.1
		c0.5,0,0.9-0.3,1.2-0.7c0.9-1.1,1.6-2.5,2.2-3.8c2.3-4.7,5-9.2,8.1-13.4c1.1-1.5,2.3-3,3.9-4c2.3-1.4,5.3-1.5,7.6-0.2
		c-0.3-2.2-1.5-4.1-2.7-6C61,28.6,60.2,27.3,59.2,26.2z"/>
	<circle fill="none" stroke="#000000" stroke-width="2" stroke-miterlimit="10" cx="23.4" cy="43.9" r="2.1"/>
	<circle fill="none" stroke="#000000" stroke-width="2" stroke-miterlimit="10" cx="60.4" cy="43.9" r="2.1"/>
	
		<path fill="none" stroke="#000000" stroke-linecap="round" stroke-linejoin="round" stroke-miterlimit="10" stroke-dasharray="0.1,1.25" d="
		M58.2,57.7c-0.4,4.8,2.4,9.2,5,13.2c1.6,2.4,3.3,4.9,6,5.6"/>
	<path d="M23.1,92c-1.1-0.3-2.2-0.5-3.3-0.3c-1.1,0.2-2.1,1.1-2.1,2.2c0,0.3,0.1,0.7,0.3,0.9c0.2,0.2,0.4,0.3,0.7,0.4
		c1.2,0.4,2.6,0.4,3.8-0.1c1.4-0.5,2.8-1.4,4.1-0.9c-0.9-1.2-2.3-2.1-3.8-2.5"/>
	<path d="M58.3,92c1.1-0.3,2.2-0.5,3.3-0.3s2.1,1.1,2.1,2.2c0,0.3-0.1,0.7-0.3,0.9c-0.2,0.2-0.4,0.3-0.7,0.4
		c-1.2,0.4-2.6,0.4-3.8-0.1c-1.4-0.5-2.8-1.4-4.1-0.9c0.9-1.2,2.3-2.1,3.8-2.5"/>
	
		<path fill="#FFFFFF" stroke="#000000" stroke-width="2" stroke-linecap="round" stroke-linejoin="round" stroke-miterlimit="10" d="
		M15.7,45.5c-0.3-1.5-1-2.8-1.6-4.2c-0.7-1.4-1.5-2.8-2.5-4.1C9.6,35,6.8,33.4,3.8,33C3.5,33,3.2,33,3,33.1
		c-0.8,0.4-0.4,1.6,0.1,2.3c4.6,6.9,8.9,14.5,9.6,22.8c1.6-1.7,2.1-4.2,2.6-6.5C15.6,49.7,16.1,47.6,15.7,45.5z"/>
	<path fill="#FFFFFF" stroke="#000000" stroke-width="2" stroke-miterlimit="10" d="M89.4,39L66,28.7c-1.3-0.6-1.8-2-1.3-3.3
		l6.1-13.7c0.6-1.3,2-1.8,3.3-1.3l23.5,10.4c1.3,0.6,1.8,2,1.3,3.3l-6.1,13.7C92.2,39,90.7,39.6,89.4,39z"/>
	<polyline fill="none" stroke="#000000" stroke-width="2" stroke-miterlimit="10" points="72.6,10.1 80.3,27.9 98.7,21.7 	"/>
	<g>
	</g>
	<g>
	</g>
	<g>
	</g>
	<g>
	</g>
	<g>
	</g>
	<g>
	</g>
	<g>
	</g>
	<g>
	</g>
	<g>
	</g>
	<g>
	</g>
	<g>
	</g>
	<g>
	</g>
	<g>
	</g>
	<g>
	</g>
	<g>
	</g>
</g>
</svg>
